<svg width="150" height="128" viewBox="0 0 150 128" fill="none" xmlns="http://www.w3.org/2000/svg">
<path d="M81.5354 68.3319C90.3883 68.3319 97.565 61.1843 97.565 52.3671C97.565 43.55 90.3883 36.4023 81.5354 36.4023C72.6825 36.4023 65.5059 43.55 65.5059 52.3671C65.5059 61.1843 72.6825 68.3319 81.5354 68.3319Z" fill="#EF4141"/>
<path d="M22.3486 79.4385L12.2685 79.3477L11.4297 81.6681L19.0717 117.682L22.1471 118.424L69.7698 118.888L74.1499 120.93L78.1573 120.837L82.3429 119.147L131.372 118.703L133.701 117.403L141.157 81.4825L139.2 79.3477L22.3486 79.4385Z" fill="#EF4141"/>
<path d="M63.5001 48.8588L66.7915 49.7463L83.1475 72.7161L83.1519 72.7222C83.3073 72.9404 83.611 72.9918 83.8302 72.8373C84.0495 72.6826 84.1015 72.3802 83.9462 72.1617L82.5948 70.2598L85.2995 61.7636L89.5791 60.2413C89.6841 60.204 89.773 60.1319 89.8309 60.037L93.9624 53.2846L99.1359 49.7094C99.2286 49.6454 99.296 49.5512 99.3266 49.4431L100.844 44.1035L105.135 46.1796L111.986 55.9958L109.168 68.1C109.147 68.1902 109.153 68.2845 109.184 68.3717L112.999 79.0687C113.002 79.1205 113.006 79.1722 113.008 79.224C113.017 79.4272 113.012 79.6288 112.996 79.8285L109.418 87.1798C109.36 87.2619 109.303 87.3443 109.248 87.4281C109.248 87.4321 109.247 87.4361 109.247 87.4401L109.283 87.4554L105.29 95.6578C105.197 95.8505 105.241 96.0817 105.399 96.2264C105.491 96.3106 105.609 96.354 105.728 96.354C105.814 96.354 105.9 96.3315 105.977 96.2857L110.668 93.5011C110.731 93.4637 110.785 93.4126 110.825 93.3518L120.052 79.429C120.158 79.2681 120.159 79.0595 120.054 78.8977L112.94 67.9979L117.507 59.3462L132.846 84.0332L128.443 107.303C128.288 108.124 127.541 108.713 126.702 108.669C118.5 108.259 91.4498 107.732 77.4108 117.364C81.4816 113.06 89.0683 109.782 100.003 107.611C109.616 105.703 119.142 105.233 122.792 105.119C124.123 105.078 125.232 104.139 125.488 102.835L128.977 85.0717C129.028 84.809 128.856 84.5544 128.592 84.503C128.329 84.4515 128.073 84.623 128.021 84.8857L124.533 102.649C124.365 103.506 123.636 104.123 122.761 104.15C114.034 104.422 84.8906 106.209 75.7542 117.791C66.4543 106.375 37.5755 104.606 28.8955 104.336C28.0205 104.309 27.2918 103.691 27.1236 102.834L23.8786 86.4037C23.8268 86.141 23.5714 85.97 23.3071 86.0216C23.0435 86.0733 22.8717 86.3281 22.9235 86.5908L26.1683 103.021C26.4243 104.324 27.5332 105.264 28.8651 105.305C32.5145 105.419 42.0402 105.889 51.6535 107.797C62.0226 109.855 69.3833 112.909 73.5883 116.889C59.5736 109.687 40.7427 108.594 30.6383 108.594C28.5855 108.594 26.8909 108.639 25.6723 108.687C24.8414 108.719 24.1032 108.132 23.9496 107.321L19.582 84.2402L43.9099 74.5558C43.9827 74.5268 44.0473 74.4808 44.0984 74.4216L50.8319 66.6198C50.9062 66.5338 50.9478 66.4246 50.9495 66.3112L51.1619 52.3503L58.5843 41.5898L63.2198 48.6557C63.2851 48.7557 63.3849 48.8278 63.5001 48.8588Z" fill="white"/>
<path d="M56.0325 39.8243L43.6922 50.0753L36.8802 60.96L30.9038 64.7957L19.0193 84.2748L44.0142 74.4156L50.5331 66.2399L50.6672 52.5333L58.5841 41.0559L56.0325 39.8243Z" fill="white"/>
<path d="M95.2001 48.7661L92.6784 49.6478L86.4546 55.7396L83.5037 55.5793L76.2068 62.4592L82.2695 70.7553L84.845 61.8847L89.4056 60.1213L93.8051 53.2815L99.0096 49.434L100.619 44.3575L100.118 44.4355L95.2001 48.7661Z" fill="white"/>
<path d="M65.0019 65.6782L62.0197 60.666L57.4841 58.9025L59.6587 64.683L58.9132 72.3559L63.1379 77.1825L68.3569 90.3627L69.4753 77.2805L65.4678 71.3401L65.0019 65.6782Z" fill="white"/>
<path d="M112.364 68.3601L117.438 58.7483L112.468 56.3556L109.631 68.5458L113.669 79.8695L105.717 96.2056L110.407 93.421L119.634 79.4982L112.364 68.3601Z" fill="white"/>
<path d="M88.7578 87.1706L81.5508 93.1109L76.3318 107.838L84.0359 96.2049L93.2312 89.8933L93.9767 78.6312L98.0772 70.0919L91.1187 77.1461L88.7578 87.1706Z" fill="white"/>
<path d="M140.909 79.761C140.382 79.1121 139.598 78.74 138.759 78.74H130.711L117.941 58.1893C117.892 58.11 117.821 58.0465 117.736 58.0065L117.679 57.9796C117.676 57.9778 117.673 57.9753 117.67 57.9736L112.987 55.7196L105.87 45.5203C105.822 45.4521 105.758 45.3972 105.683 45.361L100.755 42.9766C100.73 42.9646 100.704 42.9554 100.679 42.9479C100.677 42.9474 100.676 42.9467 100.675 42.9462C100.67 42.945 100.666 42.945 100.661 42.9438C100.638 42.938 100.615 42.9338 100.591 42.9314C100.582 42.9305 100.573 42.9297 100.564 42.9294C100.542 42.9284 100.52 42.929 100.499 42.9309C100.491 42.9315 100.484 42.9315 100.477 42.9325C100.449 42.9363 100.422 42.9425 100.396 42.9508C100.389 42.953 100.382 42.956 100.375 42.9586C100.355 42.9658 100.336 42.9742 100.317 42.9841C100.308 42.9884 100.301 42.993 100.293 42.9977C100.275 43.0079 100.259 43.0194 100.243 43.0319C100.236 43.0373 100.229 43.0424 100.222 43.0484C100.219 43.0508 100.216 43.0526 100.213 43.0552L94.8336 47.9651L92.3049 48.8651C92.2376 48.889 92.1766 48.9274 92.1258 48.9776L86.2918 54.7459H83.242C83.1141 54.7459 82.9914 54.7961 82.9003 54.8854L76.2812 61.3842L67.4921 49.0412C67.4268 48.9494 67.3314 48.8832 67.2224 48.8537L63.9412 47.969L59.0129 40.4567C59.0125 40.4561 59.0122 40.4556 59.0118 40.455L59.0098 40.452C58.995 40.4293 58.9777 40.4085 58.9593 40.3888C58.954 40.3831 58.9484 40.3778 58.9428 40.3722C58.9252 40.355 58.9065 40.3392 58.8865 40.3247C58.8834 40.3226 58.8811 40.3198 58.878 40.3176C58.8769 40.3169 58.8756 40.3164 58.8745 40.3156C58.8546 40.3022 58.8337 40.29 58.8118 40.2795L56.1905 39.0355C56.0187 38.9541 55.8149 38.9796 55.6687 39.1013L43.978 48.8461C43.9405 48.8773 43.908 48.9141 43.8815 48.9549L36.5466 60.2704L30.6584 64.0494C30.5965 64.0891 30.5443 64.1424 30.5061 64.2051L21.6382 78.7397H13.689C12.8506 78.7397 12.067 79.1119 11.5394 79.7608C11.0116 80.4097 10.8087 81.2505 10.9827 82.0673L18.3885 116.819C18.6558 118.073 19.7845 118.987 21.0723 118.991L70.1024 119.145C71.9165 120.515 74.0704 121.2 76.2244 121.2C78.3783 121.2 80.5323 120.515 82.3464 119.145L131.376 118.991C132.664 118.987 133.793 118.073 134.06 116.819L141.466 82.0673C141.64 81.2507 141.437 80.4099 140.909 79.761ZM107.138 94.4704L106.988 94.4065L107.771 92.798L109.045 93.3388L107.138 94.4704ZM110.082 92.7231L110.08 92.7243L108.196 91.9246L108.979 90.316L111.084 91.21L110.082 92.7231ZM111.63 90.3875L109.404 89.4427L110.187 87.8341L112.633 88.8728L111.63 90.3875ZM113.178 88.0502L110.613 86.9607L111.396 85.3521L114.182 86.5353L113.178 88.0502ZM114.727 85.7129L111.821 84.4788L112.604 82.8703L115.731 84.1981L114.727 85.7129ZM116.276 83.3756L113.029 81.9968L113.812 80.3883L117.28 81.8608L116.276 83.3756ZM117.825 81.0383L114.171 79.4868C114.168 79.4469 114.161 79.4073 114.147 79.369L113.377 77.2083L118.829 79.5234L117.825 81.0383ZM112.934 75.9663L112.118 73.6789L116.79 75.6629L118.542 78.3481L112.934 75.9663ZM111.675 72.4368L110.859 70.1493L114.086 71.5195L115.839 74.2047L111.675 72.4368ZM110.416 68.9073L110.156 68.1787L110.436 66.9749L112.029 67.6513L111.953 67.7963C111.871 67.9516 111.879 68.1388 111.976 68.2861L113.135 70.0618L110.416 68.9073ZM112.484 66.7905L110.66 66.0159L111.071 64.2493L113.321 65.2048L112.484 66.7905ZM113.775 64.3438L111.294 63.2902L111.705 61.5236L114.612 62.7581L113.775 64.3438ZM115.067 61.8972L111.928 60.5646L112.34 58.7981L115.904 60.3116L115.067 61.8972ZM116.358 59.4506L112.563 57.8389L112.816 56.7527L116.79 58.6322L116.358 59.4506ZM98.5325 48.702L96.44 47.8135L97.8916 46.4888L99.0248 46.97L98.5325 48.702ZM99.2922 46.0296L98.6798 45.7696L99.6066 44.9236L99.2922 46.0296ZM95.2535 48.845C95.3146 48.8233 95.3707 48.7895 95.4185 48.746L95.652 48.5328L97.8096 49.4489L96.0698 50.6513L93.3833 49.5106L95.2535 48.845ZM91.8669 54.8567L88.8547 53.5777L90.2281 52.2197L92.8097 53.3159L91.8669 54.8567ZM93.3854 52.5064L90.9736 51.4825L92.347 50.1245L95.1251 51.3041L93.3854 52.5064ZM88.109 54.3149L91.355 55.6932L90.4123 57.234L86.7095 55.6618C86.755 55.639 86.7981 55.611 86.8349 55.5746L88.109 54.3149ZM83.4412 55.7153H84.3533L89.9003 58.0706L89.0968 59.3838L88.7295 59.5145L82.3364 56.7999L83.4412 55.7153ZM82.0854 68.6733L81.2134 68.3031L79.2382 65.5234L82.6296 66.9635L82.0854 68.6733ZM82.9253 66.0349L78.1657 64.014L76.8601 62.1766L77.3279 61.7172L83.4695 64.3249L82.9253 66.0349ZM83.7652 63.3966L78.0773 60.9815L79.4575 59.6264L84.3095 61.6866L83.7652 63.3966ZM84.8914 60.8798L80.207 58.8908L81.5873 57.5357L87.3792 59.995L84.8914 60.8798ZM63.5075 48.8564L66.799 49.7439L83.155 72.7137L83.1594 72.7198C83.3147 72.938 83.6184 72.9894 83.8377 72.8349C84.057 72.6801 84.1089 72.3778 83.9537 72.1593L82.6022 70.2574L85.307 61.7611L89.5865 60.2389C89.6915 60.2016 89.7805 60.1295 89.8384 60.0346L93.9699 53.2822L99.1433 49.7069C99.236 49.643 99.3034 49.5488 99.3341 49.4407L100.852 44.101L105.143 46.1772L111.993 55.9934L109.176 68.0976C109.155 68.1878 109.16 68.2821 109.191 68.3693L113.006 79.0663C113.01 79.1181 113.013 79.1698 113.016 79.2215C113.025 79.4248 113.02 79.6264 113.004 79.8261L109.425 87.1773C109.368 87.2595 109.311 87.3419 109.256 87.4256C109.255 87.4296 109.255 87.4336 109.254 87.4376L109.291 87.453L105.298 95.6554C105.204 95.8481 105.248 96.0793 105.407 96.224C105.499 96.3082 105.617 96.3516 105.736 96.3516C105.821 96.3516 105.908 96.3291 105.985 96.2833L110.676 93.4987C110.739 93.4612 110.792 93.4102 110.833 93.3494L120.059 79.4266C120.166 79.2657 120.166 79.0571 120.061 78.8953L112.947 67.9955L117.514 59.3437L132.854 84.0308L128.45 107.301C128.295 108.121 127.548 108.71 126.709 108.667C118.508 108.256 91.4572 107.73 77.4182 117.361C81.4891 113.058 89.0758 109.78 100.011 107.609C109.623 105.701 119.15 105.23 122.799 105.117C124.131 105.075 125.24 104.136 125.496 102.833L128.984 85.0693C129.036 84.8066 128.864 84.552 128.6 84.5006C128.336 84.4491 128.08 84.6206 128.029 84.8833L124.54 102.647C124.372 103.503 123.644 104.121 122.769 104.148C114.042 104.42 84.8981 106.207 75.7616 117.788C66.4617 106.373 37.5829 104.604 28.9029 104.334C28.028 104.306 27.2993 103.689 27.131 102.832L23.8861 86.4013C23.8342 86.1386 23.5788 85.9676 23.3146 86.0192C23.0509 86.0708 22.8791 86.3257 22.9309 86.5884L26.1758 103.018C26.4318 104.322 27.5407 105.261 28.8725 105.303C32.5219 105.416 42.0477 105.886 51.6609 107.795C62.0301 109.853 69.3907 112.907 73.5958 116.887C59.5811 109.685 40.7502 108.592 30.6458 108.592C28.5929 108.592 26.8984 108.637 25.6797 108.685C24.8488 108.717 24.1107 108.13 23.957 107.318L19.5895 84.2378L43.9174 74.5533C43.9901 74.5244 44.0548 74.4783 44.1059 74.4192L50.8394 66.6174C50.9136 66.5314 50.9552 66.4222 50.9569 66.3088L51.1694 52.3479L58.5918 41.5874L63.2272 48.6533C63.2925 48.7532 63.3923 48.8254 63.5075 48.8564ZM41.4257 74.5016L28.6677 69.0845L29.6084 67.5429L43.6221 73.4931L43.4457 73.6977L41.4257 74.5016ZM40.1446 75.0116L37.7852 75.9509L27.2163 71.4633L28.157 69.9216L40.1446 75.0116ZM36.5041 76.4608L34.1446 77.4001L25.765 73.842L26.7057 72.3004L36.5041 76.4608ZM32.8637 77.91L30.5042 78.8493L24.3139 76.2208L25.2545 74.6791L32.8637 77.91ZM29.2232 79.3592L26.8637 80.2985L22.8626 78.5995L23.8032 77.0579L29.2232 79.3592ZM25.5826 80.8084L23.2232 81.7477L21.4111 80.9783L22.3518 79.4365L25.5826 80.8084ZM20.9005 81.8154L21.9421 82.2577L20.2099 82.9472L20.9005 81.8154ZM55.4041 44.4972L52.2953 43.1772L53.8381 41.8912L56.4397 42.9959L55.4041 44.4972ZM54.8418 45.3124L53.8062 46.8137L49.9148 45.1614L51.4576 43.8754L54.8418 45.3124ZM53.244 47.6288L52.2083 49.1302L47.5343 47.1457L49.0771 45.8597L53.244 47.6288ZM51.6428 49.95L50.6086 51.4493L45.1276 49.1516L46.6534 47.8798L51.6428 49.95ZM50.1216 57.2292L41.9306 53.7512L42.9173 52.229L50.151 55.3006L50.1216 57.2292ZM50.1057 58.2763L50.0764 60.2048L40.4083 56.0996L41.3949 54.5775L50.1057 58.2763ZM50.0604 61.2521L50.0311 63.1806L38.8858 58.4483L39.8724 56.9262L50.0604 61.2521ZM50.0152 64.2279L49.9865 66.1191L49.9627 66.1466L37.3636 60.7969L38.3502 59.2748L50.0152 64.2279ZM49.2971 66.9178L48.0711 68.3383L34.651 62.6401L36.4712 61.4719L49.2971 66.9178ZM47.4053 69.1096L46.1793 70.5301L31.8424 64.4425L33.6626 63.2743L47.4053 69.1096ZM56.0534 40.0447L57.8781 40.9106L57.002 42.1807L54.6758 41.193L56.0534 40.0447ZM44.4233 49.9058L50.1964 52.3283L50.167 54.2533L43.4531 51.4026L44.4233 49.9058ZM31.0597 65.1641L45.5137 71.3014L44.2876 72.7218L30.119 66.7058L31.0597 65.1641ZM140.514 81.8663L133.108 116.618C132.935 117.429 132.206 118.019 131.373 118.022L82.1825 118.176C82.0804 118.176 81.9758 118.21 81.8929 118.269C81.8876 118.273 81.8823 118.277 81.8771 118.281C78.5488 120.879 73.8996 120.88 70.5712 118.281C70.5659 118.277 70.5607 118.273 70.5553 118.269C70.473 118.21 70.3688 118.177 70.2673 118.176L21.0752 118.022C20.2427 118.019 19.5132 117.429 19.3404 116.618L11.9347 81.8663C11.8218 81.3367 11.9533 80.7919 12.2954 80.3713C12.6376 79.9507 13.1454 79.7095 13.6888 79.7095H21.0464L18.6212 83.6845C18.6148 83.695 18.6106 83.7065 18.6051 83.7174C18.5987 83.7299 18.5919 83.7419 18.5867 83.7549C18.5804 83.7705 18.576 83.7866 18.5712 83.8029C18.5675 83.8158 18.5631 83.8285 18.5604 83.8419C18.5571 83.8586 18.556 83.8756 18.5544 83.8925C18.5532 83.906 18.5509 83.9191 18.5508 83.9328C18.5507 83.9518 18.5532 83.9708 18.5553 83.99C18.5566 84.0015 18.5564 84.013 18.5586 84.0245C18.5587 84.0251 18.5586 84.0256 18.5587 84.0262L23.0003 107.498C23.2425 108.779 24.4121 109.705 25.7181 109.654C32.9225 109.37 56.8273 109.188 73.4858 117.922C52.8165 112.201 30.3125 113.101 23.6819 113.534C22.8843 113.585 22.1596 113.039 21.9938 112.26L16.6936 87.3747C16.6378 87.1129 16.3797 86.9455 16.1165 87.0011C15.8536 87.0566 15.6855 87.314 15.7414 87.5759L21.0416 112.462C21.3071 113.708 22.4704 114.585 23.7457 114.502C30.6055 114.053 54.5577 113.101 75.7265 119.585C75.8113 119.651 75.9164 119.689 76.0267 119.689C76.046 119.689 76.0656 119.687 76.0852 119.685C76.1048 119.687 76.1243 119.689 76.1437 119.689C76.2538 119.689 76.3591 119.651 76.4439 119.585C97.6127 113.101 121.565 114.053 128.425 114.502C129.702 114.588 130.863 113.708 131.129 112.462L136.429 87.5759C136.485 87.314 136.317 87.0566 136.054 87.0011C135.791 86.9456 135.533 87.1129 135.477 87.3747L130.177 112.26C130.011 113.039 129.286 113.586 128.488 113.534C121.792 113.096 98.9039 112.182 78.0673 118.095C83.7954 114.198 92.387 111.579 103.653 110.302C113.698 109.164 123.089 109.457 126.66 109.636C127.981 109.7 129.162 108.775 129.407 107.481L133.845 84.0262C133.868 83.9073 133.845 83.7842 133.781 83.6813L131.313 79.7098H138.759C139.303 79.7098 139.811 79.951 140.153 80.3715C140.495 80.7918 140.626 81.3367 140.514 81.8663Z" fill="#000D38"/>
<path d="M16.0647 84.4394L15.6112 82.3102C15.5555 82.0484 15.297 81.8811 15.0341 81.9366C14.7712 81.9921 14.6033 82.2495 14.659 82.5114L15.1125 84.6405C15.161 84.8684 15.3631 85.0248 15.5881 85.0248C15.6215 85.0248 15.6555 85.0212 15.6895 85.0141C15.9525 84.9586 16.1204 84.7012 16.0647 84.4394Z" fill="#000D38"/>
<path d="M137.137 81.9365C136.874 81.8811 136.616 82.0482 136.56 82.3101L136.106 84.4392C136.051 84.7011 136.219 84.9585 136.481 85.014C136.516 85.0211 136.549 85.0246 136.583 85.0246C136.808 85.0246 137.01 84.8683 137.059 84.6404L137.512 82.5113C137.568 82.2494 137.4 81.9921 137.137 81.9365Z" fill="#000D38"/>
<path d="M57.6869 58.5255C57.5528 58.655 57.505 58.8495 57.5637 59.0261L59.3929 64.5168L58.454 71.9571C58.4367 72.0942 58.479 72.2321 58.5701 72.3361L62.7398 77.0998L67.9279 90.2022C68.002 90.3894 68.1832 90.5091 68.3804 90.5091C68.4045 90.5091 68.4289 90.5073 68.4533 90.5037C68.6776 90.47 68.8487 90.2865 68.866 90.0614L69.8911 76.7007C69.8996 76.5902 69.8698 76.4802 69.8067 76.3889L65.9661 70.8336L65.5107 65.3004C65.504 65.2188 65.4766 65.1404 65.4314 65.0722L61.9935 59.9053C61.9362 59.8192 61.8526 59.7535 61.7553 59.718L58.1933 58.4185C58.0178 58.3544 57.8211 58.3959 57.6869 58.5255ZM59.8789 60.0657L61.3476 60.6893L63.1477 63.3946L59.5335 61.86L58.8053 59.6739L59.8789 60.0657ZM64.5508 65.5036L64.6772 67.0391L60.2908 65.1765L60.3725 64.5287C60.3815 64.457 60.3745 64.3841 60.3516 64.3156L59.9425 63.0875L64.1252 64.8635L64.5508 65.5036ZM65.0908 71.2766L66.9776 74.0058L59.5733 70.8619L59.8058 69.0195L65.0805 71.2591C65.084 71.265 65.0869 71.271 65.0908 71.2766ZM59.932 68.0193L60.1645 66.1769L64.767 68.1311L64.9325 70.1425L59.932 68.0193ZM59.447 71.8622L68.0088 75.4976L68.9074 76.7975L68.8313 77.7881L62.1504 74.9512L59.4468 71.8626L59.447 71.8622ZM68.3864 83.589L65.9453 82.5526L65.0213 80.2192L68.5306 81.7092L68.3864 83.589ZM68.308 84.6096L68.1639 86.4895L67.3709 86.1527L66.447 83.8193L68.308 84.6096ZM63.5895 76.6161L68.7531 78.8086L68.6089 80.6885L64.5197 78.9521L63.6146 76.6663C63.6076 76.6488 63.5983 76.6326 63.5895 76.6161ZM67.8726 87.4198L68.0855 87.5102L68.0568 87.885L67.8726 87.4198Z" fill="#000D38"/>
<path d="M80.3373 94.7925L75.8911 107.339C75.8092 107.57 75.9132 107.826 76.1334 107.935C76.2028 107.969 76.2768 107.985 76.3498 107.985C76.5088 107.985 76.6635 107.907 76.7563 107.767L84.4083 96.2129L93.5256 89.9547C93.6481 89.8706 93.7252 89.7354 93.735 89.5875L94.4745 78.4186L98.5347 69.9636C98.6374 69.7498 98.5698 69.4935 98.375 69.3576C98.18 69.2214 97.9151 69.2457 97.7486 69.4148L90.7899 76.4689C90.7275 76.5321 90.6836 76.6114 90.6633 76.6979L88.3397 86.5636L81.2588 92.4001C81.1909 92.4561 81.1396 92.5294 81.1101 92.6122L80.3833 94.6634C80.3564 94.7015 80.3288 94.7393 80.302 94.7775L80.3373 94.7925ZM82.4353 92.6884L85.7667 94.1029L84.0197 95.3021L81.559 94.2573L81.9829 93.0611L82.4353 92.6884ZM88.4626 92.2526L86.7155 93.4518L83.2793 91.9927L84.8337 90.7116L88.4626 92.2526ZM85.6774 90.0161L87.2317 88.735L91.1582 90.4023L89.4112 91.6015L85.6774 90.0161ZM83.3389 96.067L82.3356 97.582L80.6366 96.8606L81.2345 95.1734L83.3389 96.067ZM78.4668 102.983L78.6945 103.08L78.1312 103.931L78.4668 102.983ZM78.7915 102.067L79.3893 100.38L80.2425 100.742L79.2392 102.257L78.7915 102.067ZM79.7141 99.464L80.312 97.7768L81.7908 98.4048L80.7875 99.9198L79.7141 99.464ZM93.2419 82.302L93.1169 84.1899L90.191 82.9476L90.6066 81.183L93.2419 82.302ZM90.8322 80.2249L91.2478 78.4603L93.4347 79.3889L93.3097 81.2769L90.8322 80.2249ZM89.9653 83.9058L93.049 85.2151L92.9241 87.1031L89.5497 85.6704L89.9653 83.9058ZM94.6301 75.8476L93.3172 75.29L94.6668 73.922L95.4044 74.2353L94.6301 75.8476ZM95.8247 73.3599L95.3993 73.1793L96.3971 72.1678L95.8247 73.3599ZM92.5843 76.0329L94.2096 76.723L93.5558 78.0846C93.529 78.1402 93.5132 78.2004 93.5092 78.2618L93.5025 78.3639L91.4734 77.5023L91.5796 77.0516L92.5843 76.0329ZM89.0863 87.2063C89.1681 87.1388 89.2256 87.0466 89.2498 86.9436L89.324 86.6284L92.8561 88.1282L92.7793 89.2897L92.1069 89.7511L88.0756 88.0394L89.0863 87.2063Z" fill="#000D38"/>
<path d="M108.134 55.4081C108.228 55.5432 108.38 55.6155 108.533 55.6155C108.629 55.6155 108.726 55.5873 108.811 55.5283C109.032 55.3751 109.086 55.073 108.932 54.8534L105.204 49.5318C105.05 49.3123 104.747 49.2583 104.527 49.4116C104.306 49.5648 104.252 49.8669 104.406 50.0865L108.134 55.4081Z" fill="#000D38"/>
<path d="M58.0912 45.2161C57.8663 45.3627 57.8034 45.6631 57.9506 45.8871L60.1873 49.2904C60.2807 49.4325 60.4362 49.5097 60.595 49.5097C60.6864 49.5097 60.7788 49.4842 60.8611 49.4305C61.0861 49.2839 61.149 48.9835 61.0017 48.7595L58.7651 45.3562C58.6178 45.1322 58.3162 45.0694 58.0912 45.2161Z" fill="#000D38"/>
<path d="M76.2306 68.5712C76.3255 68.7045 76.4757 68.7756 76.6281 68.7756C76.7254 68.7756 76.8238 68.7467 76.9092 68.6863C77.1284 68.5314 77.1802 68.229 77.0248 68.0105L75.9033 66.435C75.7478 66.2167 75.4441 66.1651 75.2248 66.3199C75.0055 66.4748 74.9537 66.7773 75.1092 66.9957L76.2306 68.5712Z" fill="#000D38"/>
<path d="M73.7989 65.1517C73.8938 65.285 74.0439 65.3561 74.1963 65.3561C74.2937 65.3561 74.392 65.3271 74.4774 65.2668C74.6967 65.112 74.7485 64.8095 74.593 64.591L66.9619 53.8706C66.8065 53.6521 66.5026 53.6006 66.2833 53.7555C66.0641 53.9104 66.0123 54.2128 66.1678 54.4313L73.7989 65.1517Z" fill="#000D38"/>
<path d="M126.63 79.9749C126.722 80.1227 126.881 80.2038 127.044 80.2038C127.132 80.2038 127.22 80.1802 127.3 80.1308C127.529 79.9895 127.599 79.6906 127.457 79.4632L126.433 77.8228C126.291 77.5955 125.991 77.5257 125.763 77.667C125.535 77.8082 125.465 78.1071 125.607 78.3345L126.63 79.9749Z" fill="#000D38"/>
<path d="M124.817 76.6431C124.904 76.6431 124.993 76.6194 125.073 76.57C125.301 76.4287 125.371 76.1299 125.229 75.9024L118.265 64.7407C118.123 64.5134 117.824 64.4437 117.595 64.5849C117.367 64.7262 117.297 65.025 117.439 65.2524L124.403 76.4142C124.495 76.5619 124.654 76.6431 124.817 76.6431Z" fill="#000D38"/>
<path d="M14.5152 73.3702L13.9155 71.8769C13.6834 71.299 13.2145 70.8473 12.6268 70.6355L11.1084 70.0881C10.9664 70.0369 10.9631 69.8381 11.1033 69.7822L12.6026 69.1849C13.1829 68.9537 13.6365 68.4868 13.8492 67.9015L14.3987 66.3892C14.4501 66.2478 14.6497 66.2445 14.7058 66.3841L15.3056 67.8774C15.5376 68.4553 16.0065 68.9071 16.5942 69.1189L18.1126 69.6663C18.2546 69.7174 18.2579 69.9163 18.1177 69.9721L16.6184 70.5694C16.0381 70.8006 15.5845 71.2675 15.3719 71.8528L14.8223 73.3651C14.7708 73.5066 14.5713 73.5098 14.5152 73.3702Z" fill="#EF4141"/>
<path d="M137.724 73.3702L137.124 71.8769C136.892 71.299 136.423 70.8473 135.836 70.6355L134.317 70.0881C134.175 70.0369 134.172 69.8381 134.312 69.7822L135.812 69.1849C136.392 68.9537 136.845 68.4868 137.058 67.9015L137.608 66.3892C137.659 66.2478 137.859 66.2445 137.915 66.3841L138.515 67.8774C138.747 68.4553 139.215 68.9071 139.803 69.1189L141.322 69.6663C141.464 69.7174 141.467 69.9163 141.327 69.9721L139.827 70.5694C139.247 70.8006 138.794 71.2675 138.581 71.8528L138.031 73.3651C137.98 73.5066 137.78 73.5098 137.724 73.3702Z" fill="#EF4141"/>
<path d="M9.48074 53.6513C9.58756 53.2928 9.75668 52.9758 9.98786 52.7006C10.219 52.4254 10.4879 52.2051 10.7945 52.0394C11.1013 51.874 11.4334 51.7698 11.7912 51.7272C12.149 51.6844 12.5078 51.7164 12.8678 51.8229L17.7682 53.2726L19.8155 53.8781C20.1755 53.9846 20.4938 54.1531 20.7701 54.3832C21.0464 54.6134 21.2676 54.8812 21.4338 55.1866C21.6002 55.4921 21.7045 55.8229 21.7474 56.1791C21.7903 56.5354 21.7581 56.8929 21.6511 57.2514L21.2371 58.6401C21.1301 58.9987 20.9611 59.3157 20.73 59.5907C20.4987 59.8661 20.23 60.0864 19.9233 60.2518C19.6167 60.4174 19.2845 60.5215 18.9267 60.5642C18.5691 60.6068 18.2102 60.575 17.8501 60.4684L15.803 59.8628C15.4431 59.7564 15.1248 59.5878 14.8485 59.3577C14.5722 59.1275 14.3522 58.8602 14.1887 58.5554C14.0252 58.2509 13.922 57.9204 13.8792 57.564C13.8363 57.2077 13.8683 56.8504 13.9754 56.4918L14.3894 55.1031C14.4213 54.9961 14.4665 54.8886 14.5251 54.7806C14.5836 54.6728 14.6499 54.5731 14.7239 54.4815C14.7981 54.3898 14.8793 54.3089 14.9673 54.239C15.0553 54.1689 15.145 54.1183 15.2361 54.087L12.3265 53.2263C12.1654 53.1785 12.003 53.164 11.8396 53.1826C11.6762 53.2013 11.5265 53.2474 11.3906 53.3207C11.2546 53.394 11.1347 53.4926 11.0306 53.6161C10.9267 53.7397 10.8505 53.8817 10.8026 54.0423L10.4363 55.2705C10.3884 55.431 10.3743 55.5913 10.3936 55.7514C10.4132 55.9115 10.4597 56.0592 10.5334 56.1946C10.607 56.3299 10.7073 56.4498 10.834 56.5542C10.9607 56.6587 11.1047 56.7348 11.2659 56.7824L12.072 57.0209L11.6457 58.4498L10.9526 58.2448C10.5927 58.1384 10.2745 57.97 9.99808 57.7397C9.72188 57.5095 9.5002 57.243 9.33315 56.9402C9.16622 56.6375 9.06121 56.308 9.01838 55.9516C8.97555 55.5955 9.00756 55.238 9.11451 54.8794L9.48074 53.6513ZM17.2268 54.6759C17.0656 54.6282 16.9033 54.6138 16.7399 54.6324C16.5765 54.6511 16.4268 54.697 16.2909 54.7703C16.155 54.8437 16.035 54.9422 15.931 55.0658C15.827 55.1894 15.7509 55.3314 15.703 55.492L15.2888 56.8807C15.241 57.0411 15.2264 57.2029 15.2451 57.3656C15.2638 57.5284 15.31 57.6774 15.3836 57.8128C15.4572 57.9482 15.5574 58.068 15.6841 58.1725C15.8108 58.277 15.9549 58.353 16.1161 58.4008L18.389 59.0731C18.5501 59.1207 18.7112 59.135 18.8719 59.1155C19.0326 59.0961 19.1823 59.05 19.3209 58.9775C19.4596 58.905 19.5814 58.8055 19.6861 58.6794C19.791 58.5531 19.8673 58.4097 19.9154 58.2492L20.3294 56.8606C20.3774 56.7 20.3915 56.5398 20.372 56.3796C20.3524 56.2195 20.3046 56.0715 20.2283 55.9352C20.152 55.799 20.0518 55.6792 19.9277 55.5755C19.8037 55.4719 19.661 55.3961 19.4997 55.3484L17.2268 54.6759Z" fill="#000D38" stroke="#000D38" stroke-width="0.244066" stroke-miterlimit="10"/>
<path d="M16.4143 38.1973C16.5971 37.8706 16.8313 37.598 17.1172 37.3794C17.403 37.1609 17.7129 37.0053 18.0471 36.9127C18.3814 36.8201 18.7275 36.7916 19.086 36.8276C19.4445 36.8635 19.7878 36.9724 20.1158 37.1545L28.6878 41.9097L27.9597 43.2119L19.2848 38.3996C19.1379 38.3182 18.9827 38.2688 18.8191 38.2515C18.6555 38.2342 18.4994 38.2465 18.3507 38.2887C18.202 38.3309 18.0634 38.401 17.9348 38.4988C17.8063 38.597 17.7011 38.719 17.6192 38.8653L17.2673 39.4944C17.1855 39.6408 17.1361 39.7954 17.1187 39.9583C17.1013 40.1212 17.1138 40.2766 17.1561 40.4249C17.1985 40.5729 17.27 40.7117 17.3709 40.8411C17.4716 40.9705 17.5956 41.076 17.7425 41.1575L17.8454 41.2145L24.177 44.727C24.5053 44.909 24.7789 45.1424 24.9983 45.4269C25.2177 45.7116 25.3759 46.0197 25.4726 46.3514C25.5693 46.6831 25.5998 47.0274 25.5637 47.3843C25.5277 47.7414 25.4182 48.0834 25.2356 48.4101L24.8797 49.0465C24.6968 49.3732 24.4626 49.646 24.1769 49.8644C23.891 50.083 23.5806 50.2398 23.2449 50.3348C22.9096 50.4299 22.5626 50.4594 22.204 50.4235C21.8457 50.3876 21.5025 50.2787 21.1742 50.0966L14.8426 46.5842C14.5145 46.4022 14.2409 46.1689 14.0214 45.8842C13.802 45.5996 13.6446 45.2905 13.5492 44.956C13.4537 44.622 13.424 44.2764 13.4601 43.9193C13.4961 43.5624 13.6055 43.2205 13.7883 42.8938L14.1442 42.2573C14.3324 41.9208 14.5745 41.6428 14.8703 41.4236C15.1662 41.2043 15.4906 41.0488 15.8435 40.957C15.7361 40.6099 15.698 40.2533 15.7295 39.8873C15.7609 39.5212 15.8721 39.1677 16.063 38.8263L16.4143 38.1973ZM17.1168 42.517L17.014 42.4599C16.8672 42.3784 16.7118 42.3291 16.5483 42.3119C16.3846 42.2945 16.2286 42.3069 16.0798 42.3492C15.9312 42.3914 15.7926 42.4615 15.664 42.5593C15.5354 42.6575 15.4301 42.7795 15.3483 42.9258L14.9923 43.5623C14.9106 43.7086 14.8617 43.8621 14.8457 44.0224C14.8298 44.183 14.8429 44.3371 14.8853 44.4852C14.9276 44.6334 14.999 44.7722 15.1 44.9016C15.2009 45.031 15.3247 45.1364 15.4716 45.2179L22.0089 48.8444C22.1557 48.926 22.3099 48.9747 22.471 48.9906C22.6321 49.0065 22.7882 48.9941 22.9393 48.9532C23.0906 48.9125 23.2304 48.8431 23.3589 48.745C23.4875 48.6471 23.5927 48.5249 23.6745 48.3786L24.0304 47.7422C24.1123 47.5958 24.1612 47.4425 24.1772 47.2819C24.1932 47.1216 24.1789 46.9665 24.1341 46.8171C24.0893 46.6677 24.0177 46.5289 23.9192 46.4007C23.8209 46.2727 23.6983 46.1679 23.5514 46.0864L17.1168 42.517Z" fill="#000D38" stroke="#000D38" stroke-width="0.244066" stroke-miterlimit="10"/>
<path d="M25.1702 27.1489C25.4968 26.9974 25.8333 26.9126 26.1796 26.8944C26.5261 26.8764 26.8702 26.9234 27.2123 27.036C27.5545 27.1486 27.8658 27.3291 28.1464 27.5776L35.4777 34.0727L34.4829 35.1864L27.0636 28.6135C26.938 28.5022 26.7972 28.4204 26.6412 28.3682C26.4853 28.316 26.3302 28.2944 26.1759 28.3034C26.0216 28.3123 25.871 28.3509 25.7242 28.4186C25.5772 28.4866 25.4478 28.5829 25.3362 28.7081L24.3639 29.7968C24.2521 29.9218 24.1709 30.0612 24.1204 30.2142C24.0698 30.3675 24.0491 30.5208 24.0581 30.6746C24.0671 30.8283 24.1067 30.9794 24.177 31.1273C24.2472 31.2755 24.3451 31.4052 24.471 31.5166L31.8902 38.0895L30.8956 39.2031L23.5643 32.7081C23.2837 32.4596 23.0674 32.1726 22.9153 31.8473C22.7632 31.522 22.6761 31.1871 22.6538 30.8423C22.6315 30.4977 22.6768 30.155 22.7899 29.8142C22.903 29.4735 23.0843 29.1634 23.3338 28.8839L24.3061 27.7953C24.5554 27.5159 24.8435 27.3004 25.1702 27.1489Z" fill="#000D38" stroke="#000D38" stroke-width="0.244066" stroke-miterlimit="10"/>
<path d="M34.6667 18.7443C35.0158 18.6551 35.3633 18.6322 35.7093 18.6757C36.0553 18.7194 36.3862 18.8276 36.7017 19.0008C37.0174 19.174 37.2902 19.4082 37.5203 19.7038L41.9612 25.4084C42.1912 25.7041 42.3511 26.0256 42.4407 26.3731C42.5303 26.7208 42.5533 27.0669 42.5094 27.4113C42.4656 27.7561 42.3568 28.0854 42.1831 28.3997C42.0093 28.7142 41.7739 28.9859 41.4773 29.215L40.3277 30.1027C40.031 30.3318 39.7079 30.4912 39.3592 30.5804C39.01 30.6697 38.6627 30.6926 38.3166 30.6488C37.9707 30.6053 37.6399 30.4969 37.3243 30.3237C37.0087 30.1507 36.7359 29.9163 36.5057 29.6207L35.6402 28.5089L36.823 27.5956L37.7606 28.8001C37.8635 28.9324 37.9862 29.0375 38.1282 29.1151C38.2702 29.1927 38.4186 29.2422 38.5737 29.2637C38.7287 29.2853 38.8858 29.2753 39.0449 29.2336C39.2041 29.192 39.35 29.1199 39.483 29.0173L40.6324 28.1296C40.7653 28.027 40.8706 27.9051 40.9486 27.7635C41.0266 27.6222 41.0755 27.4732 41.0954 27.3164C41.1153 27.1598 41.1052 27.0034 41.0651 26.8471C41.0249 26.6909 40.9535 26.5465 40.8504 26.4141L36.2654 20.5241C36.1624 20.3918 36.0388 20.2858 35.8953 20.2059C35.7516 20.1262 35.6019 20.0775 35.4464 20.0598C35.2907 20.0422 35.1346 20.0534 34.9776 20.0932C34.8208 20.1332 34.676 20.2044 34.543 20.307L33.5264 21.0921C33.3936 21.1948 33.2882 21.3168 33.2102 21.4582C33.1323 21.5996 33.0837 21.7466 33.0642 21.8994C33.0449 22.0521 33.0559 22.2078 33.0978 22.3662C33.1394 22.5247 33.212 22.6701 33.315 22.8024L34.2422 23.9938L33.0595 24.907L32.2044 23.8085C31.9743 23.513 31.8143 23.1914 31.7247 22.8439C31.6351 22.4963 31.611 22.1512 31.6526 21.8082C31.6941 21.4652 31.8019 21.1367 31.9755 20.8224C32.1492 20.508 32.3846 20.2363 32.6814 20.0071L33.6981 19.222C33.9949 18.9929 34.3178 18.8336 34.6667 18.7443Z" fill="#000D38" stroke="#000D38" stroke-width="0.244066" stroke-miterlimit="10"/>
<path d="M52.9181 8.98637C53.2783 8.98443 53.6198 9.0472 53.9421 9.17456C54.2645 9.30192 54.5576 9.48781 54.8213 9.73223C55.085 9.97677 55.2924 10.2703 55.4432 10.6127L57.7874 15.9347L56.4167 16.5334L54.0254 11.1041C53.9579 10.9507 53.8641 10.818 53.7442 10.7057C53.6245 10.5936 53.4925 10.5094 53.3485 10.4534C53.2046 10.3974 53.0515 10.3698 52.8896 10.3704C52.7277 10.3711 52.5697 10.4049 52.4158 10.4722L52.0923 10.6134C51.9384 10.6807 51.8062 10.7735 51.6963 10.8917C51.586 11.0101 51.503 11.1408 51.4468 11.2842C51.3905 11.4277 51.3632 11.5812 51.3652 11.745C51.3669 11.9089 51.4016 12.0675 51.4692 12.2208L53.0904 15.9017L51.7122 16.5039L50.0907 12.823C50.0233 12.6696 49.9295 12.5369 49.8097 12.4247C49.6898 12.3124 49.558 12.2283 49.4139 12.1723C49.2699 12.1163 49.1168 12.0888 48.955 12.0893C48.7931 12.09 48.6352 12.124 48.4811 12.1912L48.1654 12.3292C48.0114 12.3965 47.8792 12.4894 47.7691 12.6075C47.6591 12.7257 47.5759 12.8565 47.5198 12.9998C47.4637 13.1433 47.4362 13.297 47.438 13.4608C47.4398 13.6246 47.4746 13.7833 47.542 13.9366L49.1633 17.6174L47.7851 18.2195L46.1638 14.5387C46.0961 14.3853 46.0024 14.2526 45.8826 14.1403C45.7628 14.028 45.6308 13.9438 45.4869 13.888C45.3428 13.832 45.1899 13.8045 45.0279 13.805C44.866 13.8057 44.7081 13.8395 44.554 13.9069L44.2462 14.0414C44.0922 14.1088 43.9615 14.201 43.8538 14.3179C43.7463 14.4351 43.663 14.5658 43.6043 14.7104C43.5455 14.855 43.517 15.0092 43.5189 15.173C43.5206 15.3368 43.5552 15.4954 43.6228 15.6488L45.7644 20.5107C45.8746 20.7611 46.0091 20.9829 46.1675 21.1758C46.3259 21.3687 46.5028 21.5201 46.698 21.6299C46.8933 21.7397 47.104 21.8015 47.3305 21.8153C47.5569 21.8292 47.7958 21.7811 48.0476 21.6713L54.6846 18.7715C54.9771 18.6437 55.2792 18.5789 55.5905 18.5769C55.9018 18.5751 56.196 18.6278 56.4728 18.7355C56.7499 18.8431 57.0021 19.0026 57.23 19.214C57.4577 19.4255 57.6357 19.6768 57.7642 19.9683L57.8757 20.2213L56.5052 20.82L56.3531 20.475C56.3058 20.3677 56.2408 20.2757 56.1581 20.199C56.0753 20.1225 55.9816 20.0628 55.8772 20.0199C55.7726 19.9774 55.664 19.9563 55.5509 19.9568C55.4379 19.9575 55.3275 19.9812 55.2197 20.0284L48.5981 22.9214C48.1516 23.1165 47.7152 23.2067 47.2893 23.1915C46.8632 23.1764 46.4637 23.0783 46.09 22.8972C45.7165 22.7159 45.3786 22.4597 45.0765 22.1283C44.7746 21.7971 44.5256 21.4089 44.3297 20.9641L42.2997 16.3554C42.1488 16.0128 42.0723 15.6623 42.0704 15.3033C42.0683 14.9445 42.1308 14.6034 42.2576 14.2796C42.3843 13.9561 42.5692 13.6634 42.8121 13.4018C43.0551 13.1403 43.3484 12.9344 43.6921 12.784L44.0002 12.6495C44.3542 12.4948 44.7171 12.4185 45.0884 12.4208C45.4598 12.4233 45.8139 12.4942 46.1507 12.6334C46.2757 12.2923 46.4621 11.9853 46.7092 11.7127C46.9562 11.44 47.257 11.2264 47.6112 11.0716L47.9268 10.9336C48.2811 10.7789 48.6426 10.7032 49.0113 10.7068C49.3801 10.7102 49.733 10.7816 50.0697 10.9209C50.1949 10.5798 50.3822 10.2723 50.6322 9.99858C50.8819 9.72496 51.1839 9.5106 51.5381 9.35597L51.8615 9.21467C52.2056 9.06441 52.5578 8.98831 52.9181 8.98637Z" fill="#000D38" stroke="#000D38" stroke-width="0.244066" stroke-miterlimit="10"/>
<path d="M65.8591 6.09113C66.2087 6.17741 66.5241 6.32174 66.8052 6.52411C67.0862 6.7266 67.3245 6.97853 67.5199 7.2799C67.7151 7.58152 67.8438 7.9167 67.9056 8.28557L69.5187 17.9249L68.0426 18.1699L66.41 8.41499C66.3822 8.24983 66.3242 8.09811 66.2359 7.96009C66.1473 7.82194 66.0404 7.70803 65.9144 7.61872C65.7885 7.52917 65.6471 7.46494 65.4902 7.42592C65.333 7.38702 65.1716 7.38121 65.0057 7.40872L63.5626 7.64841C63.3968 7.67592 63.2458 7.7336 63.1099 7.82121C62.974 7.90882 62.8611 8.01534 62.7713 8.14064C62.6815 8.26582 62.617 8.40821 62.5786 8.56731C62.5398 8.72654 62.5343 8.8888 62.5619 9.05409L64.1945 18.809L62.7182 19.0542L61.1049 9.41472C61.0432 9.04597 61.0557 8.68728 61.1422 8.33889C61.2289 7.99062 61.3721 7.67543 61.5721 7.39308C61.7721 7.11086 62.0233 6.8725 62.3261 6.67788C62.6287 6.48339 62.9652 6.35518 63.3358 6.29387L64.7789 6.05417C65.1492 5.99249 65.5091 6.00485 65.8591 6.09113Z" fill="#000D38" stroke="#000D38" stroke-width="0.244066" stroke-miterlimit="10"/>
<path d="M82.7867 8.27476C82.8475 7.90577 82.9754 7.57034 83.17 7.26824C83.3647 6.96638 83.6034 6.71409 83.8869 6.51148C84.1702 6.30899 84.4866 6.16405 84.8362 6.07705C85.1856 5.98992 85.5458 5.97671 85.9163 6.0373C86.298 6.09971 86.6425 6.23252 86.9497 6.4355C87.2572 6.63859 87.5139 6.88992 87.7201 7.18959C88.0118 6.97135 88.3358 6.81503 88.6921 6.72063C89.0486 6.62611 89.4203 6.6106 89.8076 6.67398L90.7533 6.8286L90.5298 8.18387L89.584 8.02913C89.4181 8.00186 89.2565 8.00816 89.0997 8.04743C88.9425 8.08681 88.7999 8.15104 88.6715 8.24047C88.5432 8.32978 88.4349 8.44356 88.3468 8.58195C88.2586 8.72034 88.2009 8.87205 88.1736 9.03734L88.0458 9.865L86.5688 9.62337L86.6969 8.79571C86.7243 8.6303 86.7182 8.46816 86.6793 8.30905C86.6401 8.14994 86.5755 8.0078 86.4855 7.88262C86.3954 7.75757 86.2821 7.65141 86.1459 7.56404C86.0098 7.47679 85.8587 7.41959 85.6929 7.39233C85.5271 7.36518 85.3655 7.37136 85.2085 7.41063C85.0514 7.45001 84.9087 7.51424 84.7804 7.60367C84.6519 7.69298 84.5437 7.80676 84.4556 7.94515C84.3673 8.08342 84.3099 8.23525 84.2826 8.40054L83.7959 11.3504C83.9733 11.2042 84.1774 11.1117 84.4083 11.073C84.639 11.0344 84.8649 11.0332 85.0862 11.0694L86.5216 11.3042C86.8921 11.3648 87.2289 11.4921 87.5322 11.686C87.8354 11.8798 88.0888 12.1165 88.2928 12.396C88.4963 12.6754 88.6422 12.9891 88.7296 13.3372C88.8169 13.6854 88.8302 14.044 88.7693 14.413L88.4232 16.5118C88.3624 16.8809 88.2346 17.2165 88.0399 17.5183C87.8451 17.8203 87.6062 18.0726 87.323 18.2751C87.0395 18.4777 86.7231 18.6225 86.3736 18.7095C86.0241 18.7967 85.6641 18.8099 85.2936 18.7492L83.8582 18.5143C83.4875 18.4537 83.1507 18.3265 82.8476 18.1327C82.5443 17.9388 82.2911 17.701 82.0878 17.4185C81.8843 17.1363 81.7389 16.8213 81.6515 16.473C81.5641 16.125 81.5508 15.7663 81.6117 15.3973L82.7867 8.27476ZM83.0682 15.7633C83.0408 15.9286 83.0471 16.0881 83.0873 16.2416C83.1272 16.3954 83.1934 16.5363 83.286 16.6645C83.3783 16.793 83.4926 16.9007 83.6289 16.9879C83.7649 17.0753 83.9159 17.1325 84.082 17.1596L85.5172 17.3945C85.6832 17.4218 85.8445 17.4155 86.0016 17.3762C86.1585 17.3368 86.3001 17.271 86.4262 17.1783C86.5521 17.0858 86.6587 16.9733 86.7461 16.8403C86.8332 16.7075 86.8905 16.5585 86.9178 16.3932L87.3035 14.0548C87.3308 13.8895 87.3245 13.7287 87.2851 13.5724C87.2455 13.4159 87.1807 13.2752 87.0905 13.1502C87.0004 13.0251 86.8872 12.919 86.7512 12.8316C86.615 12.7443 86.464 12.687 86.2982 12.6599L84.8628 12.425C84.6969 12.3979 84.5353 12.4041 84.3785 12.4433C84.2214 12.4827 84.0787 12.5471 83.9504 12.6364C83.8219 12.7257 83.7139 12.8383 83.6263 12.9737C83.5386 13.1093 83.4813 13.2597 83.4539 13.425L83.0682 15.7633Z" fill="#000D38" stroke="#000D38" stroke-width="0.244066" stroke-miterlimit="10"/>
<path d="M100.594 10.1744C100.856 10.4204 101.06 10.7003 101.205 11.0139C101.35 11.3277 101.434 11.6634 101.456 12.0217C101.477 12.3799 101.424 12.7348 101.296 13.0865L97.9549 22.2747L96.5478 21.767L99.9294 12.4686C99.9866 12.3112 100.011 12.1505 100.002 11.987C99.9924 11.8234 99.9553 11.6719 99.8897 11.5325C99.824 11.3931 99.7325 11.2679 99.6148 11.1572C99.4971 11.0465 99.3593 10.9625 99.2012 10.9055L97.8256 10.4094C97.6674 10.3523 97.5075 10.3289 97.3461 10.3387C97.1843 10.3488 97.0336 10.3863 96.8936 10.4517C96.7534 10.517 96.6274 10.6094 96.5153 10.7294C96.4031 10.8491 96.3184 10.9879 96.2613 11.1454L92.8798 20.4439L91.4727 19.9363L94.814 10.7481C94.9419 10.3965 95.1295 10.0901 95.3765 9.82879C95.6235 9.56765 95.9037 9.36286 96.217 9.21465C96.53 9.06645 96.8665 8.9815 97.226 8.95981C97.5857 8.93812 97.942 8.99095 98.2952 9.11831L99.6709 9.61454C100.024 9.74166 100.332 9.9284 100.594 10.1744Z" fill="#000D38" stroke="#000D38" stroke-width="0.244066" stroke-miterlimit="10"/>
<path d="M109.494 20.4438C109.625 20.6507 109.724 20.8708 109.79 21.1045C109.857 21.3382 109.893 21.5767 109.898 21.8197C109.903 22.063 109.875 22.3056 109.813 22.5477C109.75 22.7899 109.652 23.0239 109.518 23.2498L108.431 25.0807C108.24 25.4028 107.999 25.6693 107.708 25.8803C107.416 26.0914 107.102 26.2403 106.764 26.3267C106.426 26.4131 106.078 26.4338 105.721 26.3887C105.364 26.3436 105.023 26.226 104.7 26.0356L103.448 25.2983C103.125 25.108 102.857 24.8677 102.645 24.5775C102.433 24.2873 102.284 23.9742 102.197 23.6377C102.11 23.3012 102.089 22.9552 102.135 22.599C102.18 22.2431 102.298 21.9042 102.489 21.5821L103.576 19.7511C103.767 19.4291 104.008 19.1628 104.3 18.9514C104.591 18.7405 104.905 18.5927 105.241 18.5088C105.578 18.4247 105.925 18.4053 106.282 18.4503C106.639 18.4954 106.98 18.6131 107.303 18.8035L108.013 19.221C108.217 19.3154 108.426 19.3314 108.639 19.2687C108.852 19.206 109.016 19.0762 109.133 18.8792L110.16 17.1492C110.22 17.0483 110.258 16.9408 110.274 16.8268C110.289 16.7129 110.283 16.6022 110.256 16.4951C110.228 16.3881 110.181 16.2891 110.115 16.198C110.048 16.107 109.964 16.0316 109.863 15.972L109.523 15.7718C109.421 15.7122 109.313 15.6745 109.199 15.659C109.084 15.6435 108.975 15.6501 108.87 15.6791C108.764 15.7081 108.665 15.7568 108.573 15.8252C108.48 15.8938 108.404 15.9787 108.344 16.0796L107.728 17.1176L106.447 16.3633L107.011 15.4118C107.174 15.1379 107.381 14.9095 107.633 14.7269C107.884 14.5444 108.155 14.4169 108.446 14.3447C108.736 14.2723 109.034 14.2551 109.341 14.2929C109.647 14.3307 109.94 14.4318 110.22 14.5967L110.56 14.797C110.84 14.9617 111.07 15.1688 111.252 15.4181C111.432 15.6672 111.56 15.9353 111.634 16.222C111.708 16.5088 111.725 16.8059 111.686 17.1135C111.647 17.421 111.546 17.7119 111.383 17.9856L110.459 19.5428C110.339 19.7447 110.196 19.9217 110.031 20.074C109.865 20.2262 109.687 20.3496 109.494 20.4438ZM108.29 22.3903C108.375 22.2462 108.429 22.0928 108.45 21.9304C108.472 21.768 108.463 21.6123 108.425 21.4631C108.386 21.3141 108.318 21.1735 108.221 21.0415C108.123 20.9096 108.002 20.801 107.858 20.7158L106.606 19.9785C106.461 19.8934 106.308 19.8408 106.147 19.8206C105.987 19.8007 105.832 19.8097 105.682 19.848C105.532 19.8864 105.391 19.9541 105.259 20.0511C105.126 20.1482 105.017 20.2689 104.931 20.413L103.725 22.4458C103.639 22.5898 103.586 22.742 103.566 22.902C103.546 23.0621 103.555 23.2178 103.592 23.3694C103.629 23.521 103.695 23.6619 103.79 23.7924C103.885 23.9231 104.005 24.0309 104.15 24.1161L105.402 24.8532C105.547 24.9385 105.7 24.992 105.864 25.0133C106.027 25.0348 106.184 25.0252 106.335 24.9845C106.486 24.9438 106.627 24.876 106.758 24.7813C106.889 24.6866 106.998 24.5671 107.083 24.4229L108.29 22.3903Z" fill="#000D38" stroke="#000D38" stroke-width="0.244066" stroke-miterlimit="10"/>
<path d="M118.051 26.5571C118.334 26.8036 118.552 27.089 118.707 27.4131C118.862 27.7371 118.951 28.0715 118.976 28.4161C119.001 28.7606 118.958 29.1037 118.847 29.4452C118.737 29.7868 118.558 30.0983 118.31 30.3795L116.903 31.9792C116.656 32.2605 116.369 32.4782 116.044 32.6321C115.718 32.7861 115.381 32.8744 115.033 32.8972C114.685 32.92 114.34 32.8765 113.997 32.7665C113.654 32.6564 113.341 32.4782 113.059 32.2317L111.965 31.2769C111.683 31.0304 111.464 30.7451 111.309 30.421C111.155 30.0969 111.066 29.7616 111.043 29.4149C111.02 29.0683 111.064 28.7243 111.174 28.3827C111.285 28.0411 111.464 27.7297 111.711 27.4484L113.119 25.8487L116.488 22.0194C116.735 21.7382 117.022 21.5205 117.347 21.3665C117.673 21.2126 118.008 21.1234 118.354 21.0986C118.7 21.074 119.044 21.1164 119.387 21.2265C119.73 21.3364 120.045 21.5166 120.332 21.7669C120.538 21.9471 120.692 22.1002 120.794 22.226C120.896 22.3519 120.982 22.47 121.053 22.5799C121.124 22.69 121.201 22.7996 121.283 22.9089C121.366 23.0182 121.494 23.1482 121.667 23.2992C121.839 23.4499 122.024 23.5922 122.219 23.7257C122.415 23.8593 122.595 23.976 122.761 24.0759C122.955 24.1937 123.149 24.2996 123.342 24.3938L122.433 25.4266C122.249 25.3398 122.059 25.2376 121.865 25.1198C121.699 25.0199 121.519 24.9032 121.323 24.7697C121.127 24.6362 120.939 24.4901 120.758 24.3321C120.577 24.1739 120.428 24.0254 120.311 23.8867C120.195 23.7479 120.092 23.6153 120.002 23.4886C119.912 23.3621 119.824 23.2422 119.737 23.1293C119.65 23.0162 119.545 22.9064 119.423 22.7998C119.297 22.6894 119.156 22.6097 119.002 22.5604C118.848 22.5113 118.692 22.4908 118.536 22.499C118.38 22.5072 118.228 22.547 118.079 22.6179C117.931 22.6889 117.802 22.7876 117.691 22.9135L115.713 25.162C115.945 25.1348 116.169 25.1645 116.383 25.2514C116.597 25.3382 116.789 25.4552 116.957 25.6023L118.051 26.5571ZM117.262 29.309C117.373 29.1829 117.454 29.0421 117.506 28.8865C117.557 28.7308 117.577 28.5753 117.564 28.4199C117.552 28.2643 117.511 28.1138 117.442 27.968C117.372 27.8222 117.275 27.6941 117.148 27.5837L116.054 26.629C115.928 26.5187 115.786 26.438 115.63 26.3868C115.474 26.3359 115.318 26.3155 115.164 26.3255C115.01 26.3356 114.859 26.3761 114.71 26.4473C114.562 26.5183 114.433 26.6168 114.322 26.7429L112.759 28.5189C112.649 28.6449 112.568 28.7846 112.519 28.9382C112.469 29.0917 112.449 29.2464 112.457 29.4022C112.466 29.558 112.505 29.7096 112.577 29.8572C112.648 30.0048 112.747 30.1338 112.873 30.2441L113.968 31.1988C114.094 31.3092 114.234 31.389 114.388 31.4382C114.543 31.4874 114.699 31.5068 114.857 31.4964C115.015 31.486 115.168 31.4463 115.314 31.3774C115.46 31.3084 115.589 31.2109 115.7 31.0848L117.262 29.309Z" fill="#000D38" stroke="#000D38" stroke-width="0.244066" stroke-miterlimit="10"/>
<path d="M130.591 32.9827C130.684 33.3295 130.709 33.6755 130.668 34.0204C130.627 34.3654 130.52 34.6957 130.349 35.0112C130.177 35.3268 129.944 35.6004 129.649 35.8318L123.954 40.2967C123.659 40.5281 123.337 40.6897 122.989 40.7816C122.641 40.8735 122.294 40.8989 121.947 40.8578C121.601 40.8167 121.269 40.7108 120.952 40.5401C120.636 40.3692 120.361 40.1369 120.129 39.8432L119.229 38.7048C118.997 38.4108 118.834 38.0905 118.742 37.7437C118.65 37.3968 118.624 37.0509 118.666 36.7059C118.707 36.3609 118.813 36.0308 118.985 35.7152C119.156 35.3996 119.389 35.1261 119.685 34.8948L120.794 34.0246L121.72 35.1958L120.518 36.1386C120.386 36.2422 120.281 36.3649 120.204 36.507C120.127 36.6489 120.079 36.7972 120.058 36.9517C120.038 37.1063 120.049 37.2628 120.092 37.4209C120.135 37.579 120.209 37.7238 120.312 37.8554L121.212 38.9938C121.316 39.1253 121.44 39.2294 121.582 39.306C121.724 39.3824 121.874 39.4299 122.032 39.4487C122.189 39.4674 122.346 39.4562 122.503 39.4152C122.659 39.3741 122.804 39.3018 122.936 39.1982L128.816 34.5882C128.948 34.4847 129.054 34.361 129.133 34.2173C129.211 34.0734 129.259 33.9241 129.276 33.7691C129.292 33.614 129.28 33.4586 129.239 33.3026C129.198 33.1467 129.125 33.0028 129.021 32.8712L128.225 31.8646C128.121 31.733 127.998 31.6289 127.855 31.5523C127.713 31.4757 127.565 31.4283 127.411 31.4103C127.258 31.3921 127.102 31.4042 126.943 31.4471C126.784 31.4899 126.639 31.5631 126.506 31.6667L125.317 32.599L124.392 31.4277L125.488 30.568C125.783 30.3366 126.105 30.175 126.453 30.0831C126.802 29.9913 127.148 29.9648 127.493 30.0036C127.837 30.0425 128.168 30.1472 128.485 30.318C128.802 30.4887 129.076 30.721 129.309 31.015L130.105 32.0216C130.337 32.3154 130.499 32.6358 130.591 32.9827Z" fill="#000D38" stroke="#000D38" stroke-width="0.244066" stroke-miterlimit="10"/>
<path d="M132.47 45.2931C132.609 45.6176 132.685 45.9501 132.696 46.2908C132.708 46.6314 132.658 46.9582 132.548 47.2711C132.437 47.5841 132.271 47.8725 132.049 48.1364C131.827 48.4003 131.557 48.6152 131.24 48.7811L129.348 49.7685C129.016 49.9421 128.67 50.0424 128.31 50.0691C127.951 50.096 127.605 50.0575 127.272 49.954C126.939 49.8504 126.633 49.6872 126.355 49.464C126.076 49.2408 125.849 48.9635 125.675 48.6322L124.996 47.3418C124.821 47.0103 124.721 46.6657 124.694 46.308C124.667 45.9501 124.706 45.6067 124.811 45.2777C124.916 44.9486 125.082 44.6445 125.309 44.3656C125.536 44.0866 125.815 43.8603 126.148 43.6866L128.039 42.6994C128.372 42.5257 128.718 42.4255 129.077 42.3987C129.436 42.3719 129.781 42.4097 130.11 42.5121C130.439 42.6144 130.744 42.7785 131.024 43.0041C131.304 43.2298 131.531 43.5082 131.706 43.8397L131.776 43.9732L133.556 43.0441L133.388 42.7252C133.237 42.4384 133.15 42.1416 133.128 41.8349C133.106 41.5282 133.139 41.2336 133.228 40.9509C133.316 40.6682 133.457 40.407 133.651 40.1674C133.844 39.9279 134.085 39.733 134.373 39.5826L134.917 39.2988L135.6 40.5968L134.959 40.9311C134.855 40.9855 134.767 41.0564 134.696 41.144C134.625 41.2315 134.574 41.3292 134.542 41.4372C134.51 41.5451 134.499 41.6552 134.507 41.7675C134.515 41.8797 134.547 41.9878 134.602 42.0915L135.367 43.5453C135.395 43.5997 135.4 43.6539 135.381 43.7079C135.362 43.762 135.328 43.802 135.278 43.8279L132.47 45.2931ZM130.649 47.4066C130.798 47.3289 130.925 47.2265 131.029 47.0998C131.133 46.9729 131.207 46.8347 131.252 46.6853C131.297 46.5359 131.314 46.382 131.304 46.2238C131.293 46.0652 131.249 45.9121 131.171 45.7636L130.492 44.4731C130.413 44.3246 130.311 44.1999 130.185 44.0987C130.059 43.9976 129.923 43.924 129.775 43.8781C129.627 43.8322 129.471 43.8157 129.308 43.8289C129.144 43.842 128.987 43.8874 128.838 43.9652L126.738 45.0614C126.589 45.1391 126.464 45.2407 126.362 45.3663C126.261 45.4917 126.186 45.6288 126.137 45.7771C126.088 45.9253 126.07 46.0798 126.082 46.2407C126.094 46.4015 126.139 46.5561 126.217 46.7045L126.896 47.995C126.974 48.1434 127.075 48.2668 127.2 48.3657C127.325 48.4644 127.463 48.5373 127.614 48.5843C127.765 48.6315 127.922 48.649 128.083 48.6373C128.245 48.6254 128.4 48.5807 128.549 48.5029L130.649 47.4066Z" fill="#000D38" stroke="#000D38" stroke-width="0.244066" stroke-miterlimit="10"/>
<path d="M141.752 55.6379C141.712 55.9944 141.61 56.325 141.445 56.629C141.281 56.9333 141.062 57.2017 140.787 57.4344C140.513 57.6671 140.196 57.8382 139.837 57.9477L130.456 60.8115L130.018 59.3865L139.511 56.4882C139.672 56.4391 139.815 56.3618 139.941 56.2563C140.067 56.1507 140.166 56.0299 140.238 55.894C140.311 55.758 140.356 55.6098 140.374 55.4496C140.392 55.2894 140.377 55.1292 140.327 54.969L139.899 53.5759C139.85 53.4158 139.772 53.2743 139.667 53.1518C139.562 53.0292 139.441 52.9317 139.305 52.8595C139.168 52.7874 139.018 52.7426 138.854 52.7255C138.691 52.7083 138.529 52.7241 138.368 52.7733L128.874 55.6716L128.436 54.2464L137.817 51.3826C138.176 51.2729 138.534 51.2379 138.892 51.2775C139.25 51.3171 139.583 51.417 139.89 51.5772C140.198 51.7374 140.468 51.954 140.702 52.2273C140.935 52.5003 141.107 52.8157 141.217 53.1735L141.646 54.5667C141.756 54.924 141.791 55.2811 141.752 55.6379Z" fill="#000D38" stroke="#000D38" stroke-width="0.244066" stroke-miterlimit="10"/>
</svg>
