<svg width="70" height="64" viewBox="0 0 70 64" fill="none" xmlns="http://www.w3.org/2000/svg">
<path d="M38.2688 34.1659C42.6953 34.1659 46.2837 30.5921 46.2837 26.1836C46.2837 21.775 42.6953 18.2012 38.2688 18.2012C33.8423 18.2012 30.2539 21.775 30.2539 26.1836C30.2539 30.5921 33.8423 34.1659 38.2688 34.1659Z" fill="#EF4141"/>
<path d="M8.67435 39.7193L3.63425 39.6738L3.21484 40.8341L7.03591 58.8408L8.5736 59.212L32.3852 59.4441L34.5753 60.4651L36.579 60.4187L38.6719 59.5736L63.1865 59.3513L64.3514 58.7015L68.0793 40.7412L67.1007 39.6738L8.67435 39.7193Z" fill="#EF4141"/>
<path d="M29.2503 24.4294L30.896 24.8731L39.0741 36.358L39.0763 36.3611C39.154 36.4702 39.3059 36.4959 39.4155 36.4186C39.5251 36.3413 39.5511 36.1901 39.4735 36.0808L38.7978 35.1299L40.1502 30.8818L42.2899 30.1206C42.3424 30.102 42.3869 30.0659 42.4159 30.0185L44.4816 26.6423L47.0684 24.8547C47.1148 24.8227 47.1485 24.7756 47.1638 24.7216L47.9227 22.0517L50.0681 23.0898L53.4934 27.9979L52.0847 34.05C52.0742 34.0951 52.0769 34.1422 52.0924 34.1858L53.9999 39.5343C54.0016 39.5602 54.0034 39.5861 54.0046 39.6119C54.0091 39.7136 54.0067 39.8144 53.9987 39.9142L52.2093 43.5898C52.1807 43.6309 52.1521 43.6721 52.1246 43.714C52.1244 43.716 52.1242 43.718 52.124 43.72L52.1422 43.7277L50.1457 47.8289C50.0988 47.9252 50.1209 48.0408 50.2001 48.1132C50.2462 48.1553 50.3052 48.177 50.3647 48.177C50.4075 48.177 50.4506 48.1657 50.4892 48.1428L52.8346 46.7505C52.8662 46.7318 52.8929 46.7063 52.9132 46.6758L57.5264 39.7145C57.5797 39.634 57.5801 39.5297 57.5274 39.4488L53.9705 33.9989L56.254 29.6731L63.9238 42.0166L61.7222 53.6516C61.6445 54.0619 61.2709 54.3562 60.8515 54.3345C56.7507 54.1292 43.2253 53.866 36.2057 58.6818C38.2412 56.53 42.0346 54.891 47.502 53.8057C52.3085 52.8515 57.0716 52.6164 58.8964 52.5596C59.5623 52.5389 60.1167 52.0692 60.2447 51.4175L61.9889 42.5358C62.0147 42.4045 61.9287 42.2772 61.7968 42.2515C61.665 42.2257 61.537 42.3115 61.5113 42.4428L59.7671 51.3245C59.683 51.7528 59.3187 52.0615 58.8812 52.0751C54.5178 52.211 39.9457 53.1045 35.3774 58.8953C30.7274 53.1875 16.2879 52.3031 11.9478 52.1679C11.5103 52.1543 11.146 51.8457 11.0618 51.417L9.43933 43.2018C9.41342 43.0705 9.28572 42.985 9.15358 43.0108C9.02175 43.0366 8.93585 43.164 8.96176 43.2954L10.5842 51.5103C10.7122 52.1621 11.2667 52.6317 11.9326 52.6524C13.7573 52.7092 18.5202 52.9443 23.3269 53.8985C28.5116 54.9277 32.1919 56.4544 34.2945 58.4444C27.2871 54.8435 17.8715 54.297 12.8192 54.297C11.7928 54.297 10.9455 54.3196 10.3362 54.3436C9.92073 54.3596 9.55164 54.0662 9.4748 53.6603L7.29102 42.1201L19.4551 37.2779C19.4915 37.2634 19.5238 37.2403 19.5493 37.2108L22.9162 33.3099C22.9533 33.2669 22.9741 33.2123 22.9749 33.1556L23.0811 26.1752L26.7924 20.7949L29.1101 24.3278C29.1428 24.3778 29.1927 24.4139 29.2503 24.4294Z" fill="white"/>
<path d="M25.5166 19.9116L19.3464 25.0371L15.9403 30.4794L12.9521 32.3973L7.00977 42.1368L19.5074 37.2072L22.7668 33.1194L22.8339 26.2661L26.7924 20.5274L25.5166 19.9116Z" fill="white"/>
<path d="M45.1003 24.3827L43.8394 24.8236L40.7275 27.8695L39.252 27.7893L35.6035 31.2293L38.6349 35.3773L39.9227 30.942L42.203 30.0603L44.4028 26.6404L47.005 24.7167L47.8098 22.1785L47.5594 22.2174L45.1003 24.3827Z" fill="white"/>
<path d="M30.0011 32.839L28.51 30.3329L26.2422 29.4512L27.3295 32.3414L26.9567 36.1779L29.0691 38.5912L31.6786 45.1813L32.2378 38.6402L30.2341 35.67L30.0011 32.839Z" fill="white"/>
<path d="M53.6833 34.18L56.2203 29.3741L53.7351 28.1777L52.3165 34.2728L54.3358 39.9347L50.3594 48.1027L52.7048 46.7104L57.318 39.749L53.6833 34.18Z" fill="white"/>
<path d="M41.8791 43.585L38.2755 46.5551L35.666 53.9187L39.5181 48.1021L44.1158 44.9463L44.4886 39.3153L46.5389 35.0457L43.0596 38.5728L41.8791 43.585Z" fill="white"/>
<path d="M67.9554 39.8804C67.6916 39.556 67.2997 39.3699 66.8805 39.3699H62.8561L56.4713 29.0946C56.4467 29.0549 56.4111 29.0232 56.3688 29.0032L56.3404 28.9897C56.3386 28.9888 56.3372 28.9875 56.3354 28.9867L53.9943 27.8597L50.4354 22.7601C50.4116 22.726 50.3794 22.6985 50.3419 22.6804L47.8779 21.4882C47.8655 21.4822 47.8528 21.4776 47.8399 21.4739C47.8392 21.4736 47.8386 21.4733 47.8378 21.473C47.8356 21.4724 47.8333 21.4724 47.8311 21.4718C47.8195 21.4689 47.808 21.4669 47.7963 21.4656C47.7916 21.4652 47.787 21.4648 47.7824 21.4646C47.7715 21.4641 47.7607 21.4644 47.7499 21.4654C47.7463 21.4657 47.7426 21.4657 47.739 21.4662C47.7252 21.4681 47.7116 21.4712 47.6983 21.4753C47.6949 21.4764 47.6916 21.4779 47.6881 21.4792C47.6781 21.4829 47.6684 21.487 47.6589 21.492C47.6548 21.4941 47.6508 21.4964 47.6469 21.4988C47.6383 21.5039 47.6301 21.5096 47.6221 21.5159C47.6186 21.5186 47.6149 21.5211 47.6115 21.5241C47.6101 21.5253 47.6085 21.5262 47.6072 21.5275L44.9173 23.9825L43.653 24.4325C43.6193 24.4444 43.5888 24.4636 43.5634 24.4887L40.6464 27.3729H39.1215C39.0575 27.3729 38.9961 27.398 38.9506 27.4426L35.641 30.692L31.2464 24.5205C31.2138 24.4747 31.1661 24.4415 31.1116 24.4268L29.4709 23.9844L27.0068 20.2283C27.0066 20.228 27.0064 20.2277 27.0062 20.2274L27.0052 20.2259C26.9978 20.2146 26.9892 20.2042 26.98 20.1944C26.9773 20.1915 26.9745 20.1888 26.9717 20.1861C26.9629 20.1775 26.9536 20.1695 26.9435 20.1623C26.942 20.1612 26.9409 20.1598 26.9393 20.1587C26.9387 20.1584 26.9381 20.1581 26.9376 20.1578C26.9276 20.151 26.9171 20.1449 26.9062 20.1397L25.5955 19.5177C25.5096 19.477 25.4077 19.4898 25.3347 19.5506L19.4892 24.423C19.4705 24.4386 19.4542 24.457 19.441 24.4774L15.7735 30.1351L12.8293 32.0246C12.7984 32.0445 12.7723 32.0711 12.7532 32.1025L8.31919 39.3698H4.34457C3.92535 39.3698 3.53356 39.5558 3.26971 39.8803C3.00581 40.2048 2.9044 40.6251 2.99139 41.0336L6.69431 58.4092C6.82797 59.0366 7.39234 59.4934 8.03624 59.4953L32.5516 59.5724C33.4586 60.2573 34.5356 60.5997 35.6126 60.5997C36.6896 60.5997 37.7666 60.2573 38.6736 59.5724L63.189 59.4953C63.8328 59.4934 64.3973 59.0366 64.5309 58.4092L68.2339 41.0336C68.3207 40.6252 68.2193 40.2049 67.9554 39.8804ZM51.0697 47.2351L50.9944 47.2032L51.386 46.3989L52.0229 46.6693L51.0697 47.2351ZM52.5415 46.3614L52.5404 46.3621L51.5985 45.9622L51.9901 45.1579L53.0428 45.6049L52.5415 46.3614ZM53.3154 45.1936L52.2028 44.7212L52.5943 43.917L53.8174 44.4363L53.3154 45.1936ZM54.0899 44.025L52.8069 43.4802L53.1984 42.676L54.5918 43.2676L54.0899 44.025ZM54.8643 42.8563L53.411 42.2393L53.8025 41.435L55.3662 42.099L54.8643 42.8563ZM55.6387 41.6877L54.0151 40.9983L54.4067 40.194L56.1407 40.9303L55.6387 41.6877ZM56.4132 40.519L54.5863 39.7433C54.5845 39.7234 54.581 39.7036 54.5742 39.6844L54.1889 38.604L56.9152 39.7616L56.4132 40.519ZM53.9674 37.9831L53.5595 36.8394L55.8957 37.8313L56.7719 39.1739L53.9674 37.9831ZM53.338 36.2183L52.9301 35.0746L54.5437 35.7597L55.4199 37.1023L53.338 36.2183ZM52.7086 34.4536L52.5787 34.0893L52.7188 33.4874L53.5153 33.8256L53.477 33.898C53.436 33.9757 53.4404 34.0693 53.4884 34.1429L54.0679 35.0308L52.7086 34.4536ZM53.7426 33.3951L52.8305 33.0079L53.036 32.1246L54.1612 32.6023L53.7426 33.3951ZM54.3883 32.1718L53.1476 31.645L53.3532 30.7617L54.8068 31.379L54.3883 32.1718ZM55.0341 30.9485L53.4648 30.2822L53.6704 29.399L55.4526 30.1557L55.0341 30.9485ZM55.6799 29.7252L53.782 28.9194L53.9084 28.3763L55.8958 29.316L55.6799 29.7252ZM46.7668 24.3509L45.7205 23.9067L46.4463 23.2443L47.0129 23.4849L46.7668 24.3509ZM47.1467 23.0147L46.8404 22.8847L47.3039 22.4617L47.1467 23.0147ZM45.1273 24.4224C45.1578 24.4116 45.1859 24.3947 45.2098 24.3729L45.3265 24.2663L46.4053 24.7244L45.5354 25.3256L44.1922 24.7552L45.1273 24.4224ZM43.434 27.4283L41.9278 26.7888L42.6145 26.1098L43.9054 26.6579L43.434 27.4283ZM44.1932 26.2531L42.9873 25.7412L43.674 25.0622L45.0631 25.652L44.1932 26.2531ZM41.555 27.1574L43.178 27.8465L42.7067 28.6169L40.8552 27.8308C40.878 27.8194 40.8995 27.8054 40.9179 27.7872L41.555 27.1574ZM39.221 27.8576H39.6771L42.4507 29.0352L42.0489 29.6918L41.8652 29.7572L38.6686 28.3999L39.221 27.8576ZM38.5431 34.3366L38.1071 34.1515L37.1195 32.7616L38.8153 33.4817L38.5431 34.3366ZM38.9631 33.0174L36.5833 32.0069L35.9305 31.0882L36.1644 30.8585L39.2352 32.1624L38.9631 33.0174ZM39.383 31.6982L36.5391 30.4907L37.2292 29.8131L39.6552 30.8432L39.383 31.6982ZM39.9461 30.4398L37.6039 29.4453L38.2941 28.7678L41.1901 29.9974L39.9461 30.4398ZM29.2541 24.4281L30.8998 24.8719L39.0779 36.3568L39.0801 36.3598C39.1578 36.4689 39.3097 36.4946 39.4193 36.4174C39.5289 36.34 39.5549 36.1888 39.4773 36.0796L38.8016 35.1286L40.154 30.8805L42.2938 30.1194C42.3463 30.1007 42.3907 30.0647 42.4197 30.0172L44.4854 26.641L47.0722 24.8534C47.1186 24.8214 47.1523 24.7743 47.1676 24.7203L47.9265 22.0505L50.0719 23.0885L53.4972 27.9966L52.0885 34.0487C52.078 34.0938 52.0807 34.1409 52.0962 34.1846L54.0037 39.5331C54.0054 39.5589 54.0072 39.5848 54.0084 39.6107C54.013 39.7123 54.0105 39.8131 54.0025 39.913L52.2131 43.5886C52.1845 43.6296 52.1559 43.6708 52.1284 43.7127C52.1282 43.7147 52.128 43.7167 52.1278 43.7187L52.146 43.7264L50.1495 47.8276C50.1026 47.9239 50.1247 48.0395 50.2039 48.1119C50.25 48.154 50.309 48.1757 50.3685 48.1757C50.4113 48.1757 50.4544 48.1644 50.493 48.1415L52.8384 46.7492C52.87 46.7305 52.8967 46.705 52.917 46.6746L57.5302 39.7132C57.5835 39.6327 57.5839 39.5285 57.5312 39.4476L53.9743 33.9976L56.2578 29.6718L63.9276 42.0153L61.726 53.6503C61.6483 54.0606 61.2747 54.3549 60.8553 54.3332C56.7545 54.128 43.2291 53.8648 36.2095 58.6805C38.245 56.5287 42.0384 54.8897 47.5058 53.8044C52.3123 52.8502 57.0755 52.6151 58.9002 52.5583C59.5661 52.5376 60.1206 52.068 60.2486 51.4162L61.9927 42.5345C62.0185 42.4032 61.9325 42.2759 61.8006 42.2502C61.6688 42.2244 61.5408 42.3102 61.5151 42.4415L59.7709 51.3232C59.6869 51.7516 59.3225 52.0603 58.885 52.0738C54.5216 52.2097 39.9495 53.1032 35.3812 58.8941C30.7312 53.1863 16.2917 52.3018 11.9516 52.1667C11.5141 52.153 11.1498 51.8444 11.0656 51.4157L9.44314 43.2006C9.41723 43.0692 9.28953 42.9837 9.15739 43.0095C9.02556 43.0353 8.93965 43.1627 8.96557 43.2941L10.588 51.509C10.716 52.1608 11.2705 52.6304 11.9364 52.6511C13.7611 52.708 18.524 52.9431 23.3307 53.8972C28.5154 54.9264 32.1957 56.4531 34.2983 58.4431C27.2909 54.8422 17.8753 54.2957 12.823 54.2957C11.7966 54.2957 10.9493 54.3183 10.34 54.3423C9.92454 54.3584 9.55545 54.0649 9.47861 53.659L7.29482 42.1188L19.4589 37.2766C19.4953 37.2621 19.5276 37.2391 19.5532 37.2095L22.92 33.3086C22.9571 33.2656 22.9779 33.211 22.9787 33.1543L23.0849 26.1739L26.7962 20.7936L29.1139 24.3266C29.1466 24.3766 29.1965 24.4126 29.2541 24.4281ZM18.2131 37.2507L11.834 34.5422L12.3043 33.7713L19.3113 36.7465L19.2231 36.8488L18.2131 37.2507ZM17.5725 37.5057L16.3928 37.9754L11.1083 35.7315L11.5786 34.9607L17.5725 37.5057ZM15.7522 38.2303L14.5725 38.6999L10.3826 36.9209L10.853 36.1501L15.7522 38.2303ZM13.932 38.9549L12.7523 39.4245L9.65704 38.1103L10.1274 37.3395L13.932 38.9549ZM12.1117 39.6795L10.932 40.1491L8.93138 39.2997L9.40171 38.5288L12.1117 39.6795ZM10.2914 40.4041L9.11171 40.8737L8.20567 40.489L8.67599 39.7182L10.2914 40.4041ZM7.95034 40.9076L8.47116 41.1287L7.60503 41.4735L7.95034 40.9076ZM25.2024 22.2485L23.6479 21.5885L24.4193 20.9455L25.7201 21.4979L25.2024 22.2485ZM24.9212 22.6561L24.4034 23.4068L22.4577 22.5806L23.2291 21.9376L24.9212 22.6561ZM24.1223 23.8143L23.6044 24.5651L21.2674 23.5728L22.0388 22.9298L24.1223 23.8143ZM23.3217 24.9749L22.8045 25.7246L20.0641 24.5757L20.8269 23.9398L23.3217 24.9749ZM22.5611 28.6145L18.4655 26.8755L18.9588 26.1145L22.5757 27.6502L22.5611 28.6145ZM22.5531 29.1381L22.5385 30.1023L17.7043 28.0497L18.1977 27.2887L22.5531 29.1381ZM22.5305 30.626L22.5158 31.5902L16.9431 29.2241L17.4364 28.463L22.5305 30.626ZM22.5079 32.1139L22.4935 33.0595L22.4816 33.0732L16.182 30.3984L16.6753 29.6373L22.5079 32.1139ZM22.1488 33.4588L21.5358 34.1691L14.8257 31.3199L15.7358 30.7359L22.1488 33.4588ZM21.2029 34.5547L20.5899 35.2649L13.4213 32.2212L14.3315 31.6371L21.2029 34.5547ZM25.527 20.0223L26.4393 20.4553L26.0013 21.0903L24.8382 20.5964L25.527 20.0223ZM19.7119 24.9528L22.5984 26.1641L22.5838 27.1266L19.2268 25.7012L19.7119 24.9528ZM13.03 32.582L20.2571 35.6506L19.644 36.3608L12.5597 33.3528L13.03 32.582ZM67.7576 40.933L64.0547 58.3088C63.9683 58.7142 63.6035 59.0094 63.1873 59.0108L38.5917 59.088C38.5406 59.088 38.4883 59.1048 38.4469 59.1346C38.4442 59.1365 38.4416 59.1385 38.439 59.1405C36.7748 60.4396 34.4502 60.4397 32.786 59.1405C32.7833 59.1385 32.7807 59.1365 32.7781 59.1346C32.7369 59.1051 32.6848 59.0882 32.634 59.088L8.0377 59.0108C7.62146 59.0095 7.25668 58.7142 7.17029 58.3088L3.46737 40.933C3.41092 40.6683 3.47668 40.3959 3.64775 40.1855C3.81882 39.9752 4.07275 39.8547 4.34445 39.8547H8.02328L6.8107 41.8421C6.80747 41.8474 6.8054 41.8532 6.8026 41.8586C6.79944 41.8648 6.79603 41.8709 6.79341 41.8773C6.79025 41.8852 6.78806 41.8932 6.78569 41.9013C6.7838 41.9078 6.78162 41.9142 6.78028 41.9208C6.77863 41.9292 6.77808 41.9377 6.77729 41.9462C6.77668 41.9529 6.77553 41.9594 6.77546 41.9663C6.7754 41.9758 6.77668 41.9853 6.77771 41.9949C6.77838 42.0006 6.77827 42.0064 6.77936 42.0121C6.77942 42.0124 6.77936 42.0127 6.77942 42.013L9.00025 53.7491C9.12138 54.3894 9.70614 54.8522 10.3592 54.827C13.9614 54.6848 25.914 54.5939 34.2433 58.9608C23.9085 56.1002 12.6564 56.5503 9.34105 56.7671C8.94227 56.7925 8.57987 56.5193 8.49702 56.1301L5.84686 43.6873C5.81894 43.5563 5.6899 43.4727 5.55832 43.5005C5.42685 43.5282 5.34283 43.6569 5.37076 43.7878L8.02091 56.2307C8.15365 56.8539 8.73531 57.2924 9.37293 57.2507C12.8029 57.0264 24.7791 56.5506 35.3637 59.7922C35.4061 59.8253 35.4586 59.8445 35.5137 59.8445C35.5234 59.8445 35.5332 59.8435 35.543 59.8423C35.5528 59.8436 35.5626 59.8445 35.5723 59.8445C35.6273 59.8445 35.6799 59.8253 35.7223 59.7922C46.3069 56.5506 58.2831 57.0265 61.7131 57.2507C62.3517 57.2936 62.9323 56.8539 63.0651 56.2307L65.7152 43.7878C65.7431 43.6569 65.6591 43.5282 65.5277 43.5005C65.3962 43.4727 65.2671 43.5563 65.2391 43.6873L62.589 56.1301C62.5061 56.5193 62.1437 56.7929 61.7449 56.7671C58.3965 56.5481 46.9525 56.0911 36.5341 59.0472C39.3981 57.0988 43.694 55.7893 49.3269 55.1509C54.3496 54.5818 59.0451 54.7283 60.8308 54.8177C61.4911 54.8498 62.0817 54.3876 62.2041 53.7404L64.4233 42.013C64.4346 41.9536 64.4231 41.892 64.3911 41.8406L63.1573 39.8548H66.8804C67.1522 39.8548 67.4061 39.9754 67.5772 40.1857C67.7483 40.3958 67.814 40.6683 67.7576 40.933Z" fill="#000D38"/>
<path d="M5.5324 42.2201L5.30567 41.1555C5.2778 41.0246 5.14858 40.9409 5.01712 40.9687C4.88565 40.9964 4.80169 41.1251 4.82956 41.2561L5.0563 42.3206C5.08057 42.4346 5.18162 42.5128 5.2941 42.5128C5.31083 42.5128 5.3278 42.511 5.34484 42.5074C5.47631 42.4797 5.56026 42.351 5.5324 42.2201Z" fill="#000D38"/>
<path d="M66.0695 40.9687C65.938 40.941 65.8088 41.0245 65.7809 41.1555L65.5542 42.22C65.5263 42.351 65.6103 42.4797 65.7417 42.5074C65.7588 42.511 65.7757 42.5127 65.7925 42.5127C65.9049 42.5127 66.006 42.4346 66.0303 42.3206L66.257 41.2561C66.2849 41.1251 66.2009 40.9965 66.0695 40.9687Z" fill="#000D38"/>
<path d="M26.3435 29.2627C26.2764 29.3274 26.2525 29.4247 26.2819 29.513L27.1965 32.2583L26.727 35.9785C26.7184 36.047 26.7395 36.116 26.7851 36.168L28.8699 38.5498L31.4641 45.101C31.5011 45.1946 31.5917 45.2545 31.6903 45.2545C31.7024 45.2545 31.7145 45.2536 31.7268 45.2517C31.8389 45.2349 31.9245 45.1432 31.9331 45.0306L32.4457 38.3503C32.4499 38.295 32.435 38.24 32.4034 38.1944L30.4831 35.4167L30.2554 32.6501C30.2521 32.6093 30.2384 32.5701 30.2158 32.536L28.4968 29.9526C28.4682 29.9095 28.4264 29.8767 28.3777 29.8589L26.5967 29.2092C26.5089 29.1771 26.4106 29.1979 26.3435 29.2627ZM27.4395 30.0328L28.1739 30.3446L29.0739 31.6972L27.2668 30.9299L26.9027 29.8369L27.4395 30.0328ZM29.7755 32.7517L29.8387 33.5195L27.6454 32.5882L27.6863 32.2643C27.6908 32.2284 27.6873 32.192 27.6758 32.1577L27.4713 31.5437L29.5627 32.4317L29.7755 32.7517ZM30.0455 35.6382L30.9889 37.0028L27.2867 35.4309L27.4029 34.5097L30.0403 35.6295C30.0421 35.6324 30.0435 35.6354 30.0455 35.6382ZM27.466 34.0096L27.5823 33.0884L29.8836 34.0655L29.9663 35.0712L27.466 34.0096ZM27.2235 35.9311L31.5045 37.7487L31.9538 38.3987L31.9158 38.8939L28.5753 37.4755L27.2235 35.9312L27.2235 35.9311ZM31.6933 41.7944L30.4727 41.2762L30.0107 40.1095L31.7654 40.8545L31.6933 41.7944ZM31.6541 42.3047L31.582 43.2446L31.1856 43.0763L30.7236 41.9096L31.6541 42.3047ZM29.2948 38.308L31.8767 39.4042L31.8046 40.3442L29.7599 39.476L29.3074 38.3331C29.3039 38.3243 29.2992 38.3162 29.2948 38.308ZM31.4364 43.7098L31.5428 43.755L31.5285 43.9424L31.4364 43.7098Z" fill="#000D38"/>
<path d="M37.6687 47.3962L35.4456 53.6695C35.4046 53.785 35.4566 53.9127 35.5668 53.9672C35.6014 53.9843 35.6384 53.9925 35.6749 53.9925C35.7544 53.9925 35.8318 53.9536 35.8782 53.8836L39.7042 48.1064L44.2629 44.9773C44.3242 44.9352 44.3628 44.8676 44.3676 44.7937L44.7374 39.2093L46.7675 34.9817C46.8188 34.8749 46.7851 34.7467 46.6877 34.6787C46.5902 34.6106 46.4577 34.6228 46.3744 34.7073L42.8951 38.2344C42.8639 38.266 42.8419 38.3056 42.8318 38.3489L41.67 43.2817L38.1295 46.2C38.0955 46.228 38.0699 46.2646 38.0551 46.306L37.6917 47.3316C37.6783 47.3507 37.6644 47.3696 37.6511 47.3887L37.6687 47.3962ZM38.7177 46.3441L40.3835 47.0514L39.5099 47.651L38.2796 47.1286L38.4915 46.5305L38.7177 46.3441ZM41.7314 46.1262L40.8579 46.7258L39.1397 45.9963L39.9169 45.3557L41.7314 46.1262ZM40.3388 45.008L41.1159 44.3674L43.0792 45.2011L42.2057 45.8007L40.3388 45.008ZM39.1695 48.0334L38.6679 48.7909L37.8184 48.4302L38.1173 47.5866L39.1695 48.0334ZM36.7335 51.4916L36.8473 51.5399L36.5656 51.9652L36.7335 51.4916ZM36.8958 51.0335L37.1947 50.1899L37.6213 50.3711L37.1197 51.1286L36.8958 51.0335ZM37.3571 49.7319L37.656 48.8883L38.3955 49.2023L37.8938 49.9598L37.3571 49.7319ZM44.1211 41.1509L44.0586 42.0949L42.5956 41.4737L42.8034 40.5914L44.1211 41.1509ZM42.9162 40.1124L43.124 39.2301L44.2175 39.6944L44.155 40.6384L42.9162 40.1124ZM42.4827 41.9528L44.0246 42.6075L43.9622 43.5515L42.275 42.8351L42.4827 41.9528ZM44.8152 37.9237L44.1587 37.6449L44.8335 36.961L45.2024 37.1176L44.8152 37.9237ZM45.4125 36.6799L45.1998 36.5896L45.6987 36.0839L45.4125 36.6799ZM43.7923 38.0164L44.6049 38.3614L44.278 39.0422C44.2646 39.07 44.2567 39.1001 44.2547 39.1309L44.2514 39.1819L43.2368 38.7511L43.2899 38.5257L43.7923 38.0164ZM42.0433 43.6031C42.0841 43.5693 42.1129 43.5232 42.125 43.4717L42.1621 43.3141L43.9282 44.064L43.8898 44.6447L43.5536 44.8755L41.5379 44.0196L42.0433 43.6031Z" fill="#000D38"/>
<path d="M51.5678 27.704C51.6151 27.7715 51.6908 27.8077 51.7676 27.8077C51.8157 27.8077 51.8642 27.7936 51.9066 27.7641C52.0169 27.6875 52.0439 27.5364 51.967 27.4266L50.1031 24.7659C50.0263 24.6561 49.8745 24.6291 49.7643 24.7057C49.6541 24.7823 49.6271 24.9334 49.7039 25.0432L51.5678 27.704Z" fill="#000D38"/>
<path d="M26.5457 22.6075C26.4332 22.6808 26.4017 22.831 26.4753 22.943L27.5937 24.6446C27.6404 24.7157 27.7181 24.7543 27.7975 24.7543C27.8432 24.7543 27.8895 24.7415 27.9306 24.7147C28.0431 24.6414 28.0745 24.4912 28.0009 24.3792L26.8826 22.6775C26.809 22.5656 26.6581 22.5341 26.5457 22.6075Z" fill="#000D38"/>
<path d="M35.6153 34.286C35.6628 34.3527 35.7379 34.3882 35.8141 34.3882C35.8628 34.3882 35.9119 34.3738 35.9546 34.3436C36.0643 34.2661 36.0902 34.1149 36.0124 34.0057L35.4517 33.2179C35.3739 33.1088 35.2221 33.083 35.1124 33.1604C35.0028 33.2378 34.9769 33.3891 35.0546 33.4983L35.6153 34.286Z" fill="#000D38"/>
<path d="M34.3995 32.5763C34.447 32.6429 34.522 32.6785 34.5983 32.6785C34.6469 32.6785 34.6961 32.6639 34.7388 32.6338C34.8484 32.5564 34.8743 32.4052 34.7966 32.2959L30.981 26.9357C30.9033 26.8265 30.7513 26.8007 30.6417 26.8782C30.5321 26.9556 30.5062 27.1068 30.5839 27.2161L34.3995 32.5763Z" fill="#000D38"/>
<path d="M60.8161 39.9869C60.8622 40.0608 60.9416 40.1014 61.023 40.1014C61.0669 40.1014 61.1112 40.0896 61.1512 40.0648C61.2653 39.9942 61.3003 39.8448 61.2294 39.731L60.7177 38.9108C60.6467 38.7972 60.4966 38.7623 60.3825 38.8329C60.2684 38.9036 60.2333 39.053 60.3043 39.1667L60.8161 39.9869Z" fill="#000D38"/>
<path d="M59.9093 38.3215C59.9532 38.3215 59.9975 38.3097 60.0375 38.2849C60.1516 38.2143 60.1867 38.0649 60.1158 37.9511L56.6337 32.3703C56.5627 32.2566 56.4128 32.2218 56.2985 32.2924C56.1844 32.363 56.1493 32.5124 56.2203 32.6262L59.7024 38.207C59.7485 38.2809 59.8279 38.3215 59.9093 38.3215Z" fill="#000D38"/>
<path d="M4.75761 36.6851L4.45775 35.9385C4.34173 35.6495 4.10727 35.4236 3.81343 35.3177L3.0542 35.044C2.9832 35.0185 2.98155 34.919 3.05164 34.8911L3.80132 34.5925C4.09145 34.4769 4.31825 34.2434 4.4246 33.9508L4.69939 33.1946C4.72506 33.1239 4.82489 33.1223 4.85294 33.1921L5.1528 33.9387C5.26882 34.2277 5.50328 34.4535 5.79712 34.5594L6.55635 34.8331C6.62735 34.8587 6.62899 34.9581 6.55891 34.9861L5.80922 35.2847C5.51909 35.4003 5.2923 35.6338 5.18596 35.9264L4.91116 36.6826C4.88543 36.7533 4.78566 36.7549 4.75761 36.6851Z" fill="#EF4141"/>
<path d="M66.3631 36.6851L66.0632 35.9385C65.9471 35.6495 65.7127 35.4236 65.4189 35.3177L64.6597 35.044C64.5887 35.0185 64.587 34.919 64.6571 34.8911L65.4068 34.5925C65.6969 34.4769 65.9237 34.2434 66.0301 33.9508L66.3049 33.1946C66.3305 33.1239 66.4304 33.1223 66.4584 33.1921L66.7583 33.9387C66.8743 34.2277 67.1087 34.4535 67.4026 34.5594L68.1618 34.8331C68.2328 34.8587 68.2345 34.9581 68.1644 34.9861L67.4147 35.2847C67.1246 35.4003 66.8978 35.6338 66.7914 35.9264L66.5166 36.6826C66.4909 36.7533 66.3911 36.7549 66.3631 36.6851Z" fill="#EF4141"/>
<path d="M2.24037 26.8255C2.29379 26.6462 2.37835 26.4877 2.49394 26.3501C2.60952 26.2125 2.74397 26.1024 2.89728 26.0196C3.05065 25.9369 3.21673 25.8848 3.39559 25.8634C3.57451 25.842 3.75392 25.858 3.93393 25.9113L6.38417 26.6361L7.4078 26.9389C7.58782 26.9922 7.74697 27.0764 7.88513 27.1914C8.02329 27.3066 8.13388 27.4405 8.21699 27.5931C8.30015 27.7459 8.35235 27.9113 8.37376 28.0894C8.39524 28.2676 8.37912 28.4463 8.32564 28.6255L8.11862 29.3199C8.06514 29.4992 7.98064 29.6577 7.86505 29.7952C7.7494 29.9329 7.61507 30.043 7.4617 30.1257C7.30839 30.2086 7.14232 30.2606 6.9634 30.2819C6.7846 30.3033 6.60513 30.2873 6.42512 30.2341L5.40155 29.9312C5.22159 29.878 5.06244 29.7938 4.92428 29.6787C4.78612 29.5636 4.67613 29.4299 4.59437 29.2775C4.5126 29.1253 4.46102 28.96 4.4396 28.7818C4.41819 28.6037 4.43418 28.425 4.48772 28.2458L4.69475 27.5514C4.71069 27.4979 4.73326 27.4442 4.76258 27.3902C4.79184 27.3362 4.825 27.2864 4.86199 27.2406C4.8991 27.1948 4.93968 27.1543 4.98366 27.1193C5.02771 27.0843 5.07254 27.059 5.11811 27.0434L3.66327 26.613C3.58272 26.5891 3.50151 26.5818 3.4198 26.5912C3.3381 26.6005 3.26327 26.6235 3.19532 26.6602C3.1273 26.6968 3.06737 26.7462 3.0153 26.8079C2.96334 26.8697 2.92527 26.9407 2.9013 27.021L2.71818 27.6351C2.69421 27.7154 2.68715 27.7955 2.69682 27.8755C2.70662 27.9556 2.72986 28.0294 2.76673 28.0971C2.80353 28.1648 2.85366 28.2247 2.91699 28.277C2.98038 28.3292 3.05235 28.3672 3.13296 28.391L3.536 28.5103L3.32289 29.2248L2.9763 29.1222C2.79635 29.069 2.63726 28.9848 2.49904 28.8697C2.36095 28.7546 2.2501 28.6213 2.16658 28.4699C2.08311 28.3186 2.0306 28.1538 2.00919 27.9756C1.98778 27.7976 2.00378 27.6188 2.05725 27.4395L2.24037 26.8255ZM6.11345 27.3378C6.03284 27.3139 5.95169 27.3067 5.86998 27.3161C5.78828 27.3254 5.71345 27.3484 5.6455 27.385C5.57754 27.4217 5.51756 27.4709 5.46554 27.5327C5.41353 27.5945 5.37551 27.6655 5.35154 27.7458L5.14445 28.4402C5.12054 28.5204 5.11324 28.6013 5.12261 28.6827C5.13192 28.764 5.15504 28.8386 5.19184 28.9062C5.22865 28.9739 5.27872 29.0338 5.34211 29.0861C5.40544 29.1384 5.47747 29.1764 5.55808 29.2002L6.69456 29.5364C6.7751 29.5602 6.85565 29.5673 6.93602 29.5576C7.01638 29.5479 7.09121 29.5249 7.16051 29.4886C7.22986 29.4523 7.29075 29.4026 7.34313 29.3395C7.39557 29.2764 7.43372 29.2047 7.45775 29.1244L7.66477 28.4301C7.68874 28.3498 7.6958 28.2697 7.68607 28.1896C7.67627 28.1096 7.65237 28.0356 7.61422 27.9675C7.57608 27.8994 7.52595 27.8394 7.46389 27.7876C7.4019 27.7358 7.33054 27.6979 7.24993 27.674L6.11345 27.3378Z" fill="#000D38" stroke="#000D38" stroke-width="0.122034" stroke-miterlimit="10"/>
<path d="M5.7072 19.0991C5.79858 18.9358 5.91569 18.7994 6.05865 18.6901C6.20156 18.5809 6.3565 18.5031 6.52362 18.4568C6.69074 18.4105 6.86382 18.3963 7.04305 18.4143C7.22233 18.4322 7.39395 18.4867 7.55796 18.5777L11.844 20.9553L11.48 21.6064L7.14245 19.2002C7.06902 19.1595 6.99139 19.1349 6.90963 19.1262C6.8278 19.1175 6.74975 19.1237 6.67541 19.1448C6.60107 19.1659 6.53178 19.201 6.46747 19.2499C6.40323 19.2989 6.35061 19.36 6.30966 19.4331L6.13373 19.7477C6.09278 19.8209 6.06808 19.8982 6.05938 19.9796C6.05068 20.061 6.05695 20.1388 6.07812 20.2129C6.09929 20.2869 6.13506 20.3563 6.18549 20.421C6.23587 20.4857 6.29786 20.5384 6.37129 20.5792L6.42276 20.6077L9.58861 22.3639C9.75275 22.4549 9.88957 22.5716 9.99926 22.7139C10.1089 22.8562 10.188 23.0103 10.2364 23.1761C10.2848 23.342 10.3 23.5142 10.282 23.6926C10.264 23.8712 10.2092 24.0421 10.1179 24.2055L9.93994 24.5237C9.84851 24.6871 9.7314 24.8235 9.58855 24.9326C9.44559 25.0419 9.29039 25.1203 9.12255 25.1678C8.95488 25.2154 8.78138 25.2301 8.6021 25.2122C8.42293 25.1943 8.25131 25.1398 8.08718 25.0487L4.92131 23.2925C4.7573 23.2015 4.62049 23.0849 4.51074 22.9426C4.40105 22.8002 4.32232 22.6457 4.27462 22.4784C4.22687 22.3115 4.21203 22.1387 4.2301 21.9601C4.2481 21.7817 4.3028 21.6107 4.39417 21.4473L4.57211 21.1291C4.66623 20.9609 4.78729 20.8219 4.93519 20.7123C5.08314 20.6026 5.24533 20.5249 5.42182 20.4789C5.3681 20.3054 5.34906 20.1271 5.36481 19.9441C5.38051 19.7611 5.43611 19.5843 5.53156 19.4136L5.7072 19.0991ZM6.05847 21.259L6.00706 21.2304C5.93363 21.1896 5.85595 21.165 5.77418 21.1564C5.69236 21.1477 5.61437 21.1539 5.53996 21.175C5.46562 21.1961 5.39633 21.2312 5.33203 21.2801C5.26772 21.3292 5.21509 21.3902 5.17421 21.4633L4.99621 21.7816C4.95533 21.8547 4.93087 21.9315 4.9229 22.0117C4.91493 22.0919 4.9215 22.169 4.94267 22.2431C4.96384 22.3172 4.99956 22.3865 5.05005 22.4512C5.10048 22.516 5.16241 22.5687 5.23584 22.6094L8.50451 24.4227C8.57794 24.4634 8.65502 24.4878 8.73557 24.4957C8.81612 24.5037 8.89417 24.4975 8.96973 24.4771C9.04541 24.4567 9.11531 24.422 9.17955 24.373C9.24385 24.324 9.29642 24.2629 9.33736 24.1897L9.51531 23.8715C9.55625 23.7983 9.58071 23.7217 9.58868 23.6414C9.59671 23.5612 9.58953 23.4837 9.56714 23.409C9.54476 23.3343 9.50892 23.2649 9.45971 23.2008C9.41055 23.1368 9.34922 23.0844 9.2758 23.0436L6.05847 21.259Z" fill="#000D38" stroke="#000D38" stroke-width="0.122034" stroke-miterlimit="10"/>
<path d="M10.0852 13.5749C10.2485 13.4992 10.4167 13.4568 10.5899 13.4477C10.7631 13.4387 10.9352 13.4622 11.1063 13.5184C11.2773 13.5748 11.433 13.665 11.5733 13.7893L15.239 17.0368L14.7416 17.5936L11.0319 14.3072C10.9691 14.2516 10.8987 14.2107 10.8207 14.1846C10.7428 14.1585 10.6652 14.1477 10.5881 14.1522C10.5109 14.1566 10.4356 14.1759 10.3622 14.2098C10.2887 14.2438 10.224 14.2919 10.1682 14.3545L9.68203 14.8989C9.62612 14.9614 9.58554 15.0311 9.5603 15.1076C9.53499 15.1842 9.52465 15.2609 9.52915 15.3378C9.53365 15.4146 9.55342 15.4902 9.58858 15.5641C9.62369 15.6382 9.67266 15.7031 9.73556 15.7588L13.4452 19.0452L12.9479 19.602L9.28221 16.3545C9.14192 16.2303 9.03376 16.0868 8.95771 15.9241C8.88167 15.7615 8.8381 15.594 8.82697 15.4216C8.81584 15.2493 8.83847 15.078 8.89505 14.9076C8.95156 14.7372 9.04222 14.5822 9.16699 14.4424L9.65313 13.8981C9.77779 13.7584 9.92184 13.6507 10.0852 13.5749Z" fill="#000D38" stroke="#000D38" stroke-width="0.122034" stroke-miterlimit="10"/>
<path d="M14.8334 9.37213C15.0079 9.32754 15.1817 9.31609 15.3547 9.33784C15.5277 9.35971 15.6931 9.41382 15.8509 9.5004C16.0087 9.58698 16.1451 9.7041 16.2602 9.85188L18.4806 12.7042C18.5957 12.852 18.6756 13.0128 18.7204 13.1866C18.7652 13.3604 18.7767 13.5334 18.7548 13.7056C18.7329 13.8781 18.6785 14.0427 18.5916 14.1999C18.5047 14.3571 18.387 14.4929 18.2387 14.6075L17.6639 15.0513C17.5155 15.1659 17.354 15.2456 17.1797 15.2902C17.0051 15.3348 16.8314 15.3463 16.6584 15.3244C16.4854 15.3026 16.32 15.2484 16.1622 15.1618C16.0044 15.0753 15.868 14.9581 15.7529 14.8104L15.3201 14.2544L15.9115 13.7978L16.3803 14.4C16.4318 14.4662 16.4931 14.5187 16.5641 14.5575C16.6351 14.5964 16.7093 14.6211 16.7869 14.6319C16.8644 14.6426 16.9429 14.6376 17.0225 14.6168C17.1021 14.596 17.175 14.5599 17.2415 14.5086L17.8162 14.0648C17.8827 14.0135 17.9354 13.9525 17.9744 13.8818C18.0134 13.8111 18.0378 13.7366 18.0477 13.6582C18.0577 13.5799 18.0527 13.5017 18.0326 13.4235C18.0125 13.3454 17.9768 13.2733 17.9253 13.207L15.6327 10.2621C15.5812 10.1959 15.5194 10.1429 15.4477 10.103C15.3758 10.0631 15.301 10.0387 15.2232 10.0299C15.1454 10.0211 15.0673 10.0267 14.9888 10.0466C14.9104 10.0666 14.838 10.1022 14.7715 10.1535L14.2632 10.5461C14.1968 10.5974 14.1441 10.6584 14.1051 10.7291C14.0662 10.7998 14.0419 10.8733 14.0321 10.9497C14.0224 11.026 14.028 11.1039 14.0489 11.1831C14.0697 11.2623 14.106 11.3351 14.1575 11.4012L14.6211 11.9969L14.0297 12.4535L13.6022 11.9042C13.4871 11.7565 13.4071 11.5957 13.3624 11.4219C13.3175 11.2482 13.3055 11.0756 13.3263 10.9041C13.347 10.7326 13.4009 10.5684 13.4878 10.4112C13.5746 10.254 13.6923 10.1182 13.8407 10.0035L14.3491 9.61098C14.4975 9.49646 14.6589 9.41679 14.8334 9.37213Z" fill="#000D38" stroke="#000D38" stroke-width="0.122034" stroke-miterlimit="10"/>
<path d="M23.9591 4.49319C24.1392 4.49222 24.3099 4.5236 24.4711 4.58728C24.6323 4.65096 24.7789 4.74391 24.9107 4.86612C25.0426 4.98839 25.1463 5.13513 25.2217 5.30636L26.3938 7.96734L25.7084 8.26671L24.5128 5.55205C24.479 5.47535 24.4321 5.409 24.3722 5.35283C24.3123 5.29679 24.2463 5.25468 24.1743 5.22669C24.1024 5.19869 24.0258 5.18488 23.9449 5.18518C23.8639 5.18555 23.7849 5.20245 23.708 5.23608L23.5462 5.30672C23.4692 5.34035 23.4032 5.38676 23.3482 5.44584C23.2931 5.50503 23.2516 5.57041 23.2235 5.64209C23.1953 5.71383 23.1817 5.79059 23.1827 5.87251C23.1835 5.95443 23.2008 6.03374 23.2347 6.11038L24.0452 7.95086L23.3562 8.25193L22.5454 6.41152C22.5117 6.33481 22.4648 6.26846 22.4049 6.21236C22.3449 6.15619 22.279 6.11414 22.207 6.08615C22.135 6.05816 22.0585 6.0444 21.9775 6.04465C21.8966 6.04501 21.8177 6.06197 21.7406 6.0956L21.5827 6.16461C21.5058 6.19824 21.4396 6.24471 21.3846 6.30373C21.3296 6.36286 21.288 6.42824 21.2599 6.49991C21.2319 6.57165 21.2181 6.64848 21.219 6.7304C21.2199 6.81232 21.2374 6.89163 21.2711 6.96827L22.0817 8.80868L21.3926 9.10975L20.5819 7.26934C20.5481 7.19264 20.5012 7.12629 20.4413 7.07012C20.3814 7.01402 20.3154 6.97191 20.2435 6.94398C20.1714 6.91598 20.095 6.90223 20.014 6.90247C19.933 6.90284 19.854 6.91974 19.777 6.95343L19.6231 7.02068C19.5461 7.05437 19.4808 7.10048 19.4269 7.15895C19.3731 7.21754 19.3315 7.28292 19.3021 7.3552C19.2728 7.42748 19.2585 7.50461 19.2594 7.58647C19.2603 7.66839 19.2776 7.7477 19.3114 7.82441L20.3822 10.2553C20.4373 10.3806 20.5046 10.4914 20.5838 10.5879C20.663 10.6844 20.7515 10.76 20.849 10.8149C20.9467 10.8698 21.052 10.9007 21.1653 10.9076C21.2785 10.9146 21.398 10.8905 21.5238 10.8357L24.8424 9.38574C24.9886 9.32182 25.1397 9.28946 25.2953 9.28843C25.451 9.28752 25.5981 9.31388 25.7365 9.36774C25.875 9.42155 26.0011 9.50128 26.1151 9.60701C26.229 9.71274 26.318 9.83841 26.3822 9.98412L26.4379 10.1106L25.7527 10.41L25.6766 10.2375C25.653 10.1838 25.6205 10.1378 25.5791 10.0995C25.5377 10.0613 25.4909 10.0314 25.4387 10.0099C25.3864 9.98867 25.3321 9.97812 25.2755 9.97837C25.219 9.97873 25.1638 9.99061 25.1099 10.0142L21.7991 11.4607C21.5758 11.5582 21.3576 11.6033 21.1447 11.5957C20.9316 11.5882 20.7319 11.5392 20.545 11.4486C20.3583 11.3579 20.1893 11.2298 20.0383 11.0641C19.8873 10.8985 19.7628 10.7044 19.6648 10.4821L18.6499 8.1777C18.5744 8.00642 18.5362 7.83113 18.5352 7.65166C18.5341 7.47226 18.5654 7.3017 18.6288 7.1398C18.6921 6.97803 18.7846 6.8317 18.906 6.70089C19.0275 6.57014 19.1742 6.4672 19.3461 6.39201L19.5001 6.32475C19.6771 6.24738 19.8586 6.20927 20.0442 6.21042C20.2299 6.21163 20.407 6.24708 20.5754 6.31669C20.6379 6.14613 20.7311 5.99266 20.8546 5.85633C20.9781 5.72001 21.1285 5.61319 21.3056 5.53581L21.4634 5.4668C21.6406 5.38943 21.8213 5.35162 22.0057 5.35338C22.1901 5.35508 22.3665 5.39082 22.5349 5.46044C22.5975 5.28988 22.6912 5.13616 22.8162 4.99929C22.941 4.86248 23.092 4.7553 23.2691 4.67799L23.4308 4.60734C23.6028 4.53221 23.779 4.49416 23.9591 4.49319Z" fill="#000D38" stroke="#000D38" stroke-width="0.122034" stroke-miterlimit="10"/>
<path d="M30.4296 3.04605C30.6044 3.08919 30.7621 3.16136 30.9026 3.26254C31.0432 3.36379 31.1623 3.48975 31.26 3.64044C31.3576 3.79125 31.4219 3.95884 31.4528 4.14327L32.2594 8.96294L31.5213 9.08545L30.705 4.20798C30.6912 4.1254 30.6621 4.04954 30.618 3.98053C30.5737 3.91146 30.5202 3.8545 30.4572 3.80985C30.3943 3.76507 30.3236 3.73296 30.2451 3.71345C30.1665 3.694 30.0858 3.69109 30.0029 3.70485L29.2813 3.82469C29.1984 3.83845 29.1229 3.86729 29.055 3.91109C28.987 3.9549 28.9306 4.00816 28.8857 4.07081C28.8408 4.1334 28.8085 4.20459 28.7893 4.28414C28.7699 4.36376 28.7671 4.44489 28.781 4.52753L29.5973 9.405L28.8591 9.52757L28.0524 4.70785C28.0216 4.52347 28.0279 4.34413 28.0711 4.16993C28.1144 3.9958 28.186 3.8382 28.2861 3.69703C28.3861 3.55592 28.5116 3.43674 28.6631 3.33943C28.8144 3.24218 28.9826 3.17808 29.1679 3.14742L29.8895 3.02757C30.0746 2.99673 30.2546 3.00291 30.4296 3.04605Z" fill="#000D38" stroke="#000D38" stroke-width="0.122034" stroke-miterlimit="10"/>
<path d="M38.8933 4.13738C38.9238 3.95288 38.9877 3.78517 39.085 3.63412C39.1824 3.48319 39.3017 3.35704 39.4435 3.25574C39.5851 3.15449 39.7433 3.08203 39.9181 3.03852C40.0928 2.99496 40.2729 2.98836 40.4582 3.01865C40.649 3.04985 40.8213 3.11626 40.9749 3.21775C41.1286 3.3193 41.257 3.44496 41.3601 3.5948C41.5059 3.48567 41.668 3.40751 41.8461 3.36031C42.0243 3.31305 42.2102 3.3053 42.4038 3.33699L42.8767 3.4143L42.765 4.09194L42.2921 4.01456C42.2091 4.00093 42.1283 4.00408 42.0499 4.02371C41.9713 4.0434 41.9 4.07552 41.8358 4.12023C41.7716 4.16489 41.7175 4.22178 41.6734 4.29097C41.6293 4.36017 41.6005 4.43602 41.5869 4.51867L41.5229 4.93249L40.7844 4.81168L40.8485 4.39785C40.8622 4.31515 40.8591 4.23408 40.8397 4.15452C40.8201 4.07497 40.7878 4.0039 40.7428 3.94131C40.6977 3.87878 40.6411 3.8257 40.573 3.78202C40.5049 3.7384 40.4294 3.7098 40.3465 3.69616C40.2635 3.68259 40.1828 3.68568 40.1043 3.70531C40.0257 3.725 39.9544 3.75712 39.8902 3.80183C39.826 3.84649 39.7719 3.90338 39.7278 3.97257C39.6837 4.04171 39.6549 4.11762 39.6413 4.20027L39.398 5.6752C39.4867 5.60207 39.5887 5.55584 39.7042 5.53651C39.8195 5.51719 39.9325 5.51658 40.0431 5.53469L40.7608 5.65212C40.9461 5.68241 41.1145 5.74603 41.2661 5.84298C41.4177 5.93992 41.5445 6.05825 41.6464 6.19797C41.7482 6.33769 41.8211 6.49456 41.8648 6.66857C41.9085 6.84271 41.9151 7.02199 41.8847 7.20649L41.7116 8.2559C41.6812 8.44045 41.6173 8.60823 41.52 8.75916C41.4226 8.91015 41.3031 9.03629 41.1615 9.13754C41.0198 9.23884 40.8616 9.31125 40.6868 9.35475C40.5121 9.39832 40.3321 9.40492 40.1468 9.37456L39.4291 9.25714C39.2438 9.22685 39.0754 9.16323 38.9238 9.06635C38.7721 8.9694 38.6455 8.85046 38.5439 8.70923C38.4422 8.56812 38.3695 8.41064 38.3257 8.23651C38.2821 8.0625 38.2754 7.88315 38.3058 7.69866L38.8933 4.13738ZM39.0341 7.88164C39.0204 7.96428 39.0236 8.04402 39.0437 8.12078C39.0636 8.19767 39.0967 8.26814 39.143 8.33224C39.1892 8.39647 39.2463 8.45033 39.3144 8.49395C39.3825 8.53764 39.458 8.56624 39.541 8.57981L40.2586 8.69723C40.3416 8.71087 40.4223 8.70771 40.5008 8.68808C40.5793 8.66839 40.6501 8.63549 40.7131 8.58914C40.7761 8.54291 40.8294 8.48662 40.8731 8.42016C40.9166 8.35375 40.9453 8.27923 40.9589 8.19658L41.1518 7.02738C41.1655 6.94474 41.1623 6.86434 41.1426 6.78618C41.1228 6.70795 41.0904 6.63761 41.0453 6.57508C41.0002 6.51255 40.9436 6.45948 40.8756 6.41579C40.8075 6.37217 40.732 6.34351 40.6491 6.32993L39.9314 6.21251C39.8485 6.19894 39.7677 6.20203 39.6893 6.22166C39.6107 6.24135 39.5394 6.27353 39.4752 6.31818C39.411 6.36283 39.357 6.41912 39.3132 6.48686C39.2693 6.55466 39.2406 6.62985 39.227 6.7125L39.0341 7.88164Z" fill="#000D38" stroke="#000D38" stroke-width="0.122034" stroke-miterlimit="10"/>
<path d="M47.797 5.0872C47.9281 5.21019 48.03 5.35016 48.1026 5.50696C48.1752 5.66383 48.2171 5.83172 48.2279 6.01083C48.2387 6.18993 48.2122 6.36739 48.1482 6.54323L46.4775 11.1373L45.7739 10.8835L47.4648 6.23428C47.4933 6.15557 47.5053 6.07523 47.5009 5.9935C47.4963 5.9117 47.4777 5.83596 47.4449 5.76622C47.4121 5.69655 47.3663 5.63396 47.3074 5.57858C47.2486 5.52326 47.1797 5.48127 47.1006 5.45273L46.4128 5.20468C46.3337 5.17614 46.2538 5.16445 46.1731 5.16936C46.0922 5.17439 46.0168 5.19317 45.9468 5.22583C45.8767 5.25848 45.8137 5.30471 45.7577 5.3647C45.7016 5.42456 45.6593 5.49393 45.6307 5.5727L43.9399 10.2219L43.2363 9.96812L44.907 5.37403C44.9709 5.19826 45.0648 5.04503 45.1883 4.91439C45.3118 4.78382 45.4519 4.68143 45.6085 4.60733C45.765 4.53323 45.9333 4.49075 46.113 4.47991C46.2929 4.46906 46.4711 4.49548 46.6477 4.55916L47.3355 4.80727C47.512 4.87083 47.6658 4.9642 47.797 5.0872Z" fill="#000D38" stroke="#000D38" stroke-width="0.122034" stroke-miterlimit="10"/>
<path d="M52.248 10.2219C52.3136 10.3254 52.3629 10.4354 52.3962 10.5523C52.4294 10.6691 52.4473 10.7883 52.4501 10.9099C52.4527 11.0315 52.4385 11.1528 52.4074 11.2738C52.3762 11.3949 52.3271 11.5119 52.2601 11.6249L51.7167 12.5403C51.6211 12.7014 51.5005 12.8346 51.3548 12.9402C51.2091 13.0457 51.0519 13.1201 50.883 13.1633C50.714 13.2065 50.5402 13.2169 50.3616 13.1943C50.1828 13.1718 50.0126 13.113 49.851 13.0178L49.225 12.6492C49.0633 12.554 48.9295 12.4338 48.8235 12.2888C48.7175 12.1437 48.6427 11.9871 48.5994 11.8188C48.556 11.6506 48.5457 11.4776 48.5683 11.2995C48.5909 11.1216 48.65 10.9521 48.7456 10.791L49.289 9.87554C49.3845 9.71455 49.5051 9.58138 49.6509 9.47571C49.7965 9.37022 49.9534 9.29636 50.1216 9.25437C50.2899 9.21233 50.4633 9.20263 50.642 9.22517C50.8208 9.24771 50.991 9.30654 51.1526 9.40173L51.5073 9.61052C51.6094 9.65772 51.7138 9.66572 51.8203 9.63433C51.9268 9.60301 52.0092 9.53812 52.0677 9.4396L52.5812 8.57462C52.6112 8.52415 52.63 8.4704 52.6378 8.41339C52.6455 8.35644 52.6426 8.30112 52.6288 8.24756C52.6149 8.19406 52.5914 8.14455 52.5583 8.09899C52.5251 8.05349 52.4832 8.0158 52.4325 7.98599L52.2624 7.8859C52.2117 7.85609 52.1577 7.83724 52.1004 7.82949C52.0431 7.82173 51.9883 7.82506 51.9358 7.83954C51.8833 7.85403 51.8337 7.87838 51.7874 7.91262C51.741 7.94691 51.7028 7.98932 51.6729 8.03979L51.3648 8.5588L50.7243 8.18163L51.0067 7.70588C51.088 7.56895 51.1915 7.45474 51.3174 7.36343C51.4432 7.27218 51.5786 7.20844 51.7239 7.17233C51.869 7.13616 52.0182 7.12756 52.1714 7.14646C52.3245 7.16536 52.4711 7.2159 52.611 7.29836L52.7812 7.39851C52.9211 7.48085 53.0362 7.5844 53.1268 7.70903C53.2172 7.83361 53.281 7.96763 53.318 8.11099C53.355 8.2544 53.3636 8.40297 53.344 8.55674C53.3243 8.71052 53.2738 8.85594 53.1925 8.99281L52.7305 9.77139C52.6705 9.87233 52.5991 9.96085 52.5166 10.037C52.4338 10.1131 52.3444 10.1748 52.248 10.2219ZM51.6459 11.1951C51.6886 11.1231 51.7153 11.0464 51.7262 10.9652C51.7369 10.884 51.7327 10.8061 51.7135 10.7316C51.6942 10.657 51.6602 10.5867 51.6115 10.5208C51.5627 10.4548 51.5022 10.4005 51.4298 10.3579L50.8038 9.98927C50.7314 9.94667 50.655 9.92038 50.5747 9.91032C50.4944 9.90032 50.4168 9.90487 50.3419 9.92401C50.2671 9.94322 50.1965 9.97703 50.1303 10.0256C50.0641 10.0741 50.0096 10.1344 49.9667 10.2065L49.3635 11.2229C49.3206 11.2949 49.2941 11.371 49.2842 11.451C49.274 11.531 49.2784 11.6089 49.2969 11.6847C49.3155 11.7605 49.3484 11.8309 49.396 11.8962C49.4434 11.9615 49.5035 12.0154 49.5759 12.058L50.2019 12.4266C50.2743 12.4693 50.3512 12.496 50.4328 12.5066C50.5143 12.5174 50.5929 12.5126 50.6685 12.4922C50.744 12.4719 50.8146 12.438 50.8802 12.3906C50.9456 12.3433 50.9998 12.2836 51.0426 12.2115L51.6459 11.1951Z" fill="#000D38" stroke="#000D38" stroke-width="0.122034" stroke-miterlimit="10"/>
<path d="M56.5267 13.2785C56.6679 13.4018 56.7772 13.5445 56.8545 13.7065C56.9318 13.8686 56.9766 14.0357 56.9889 14.208C57.0014 14.3803 56.9799 14.5518 56.9247 14.7226C56.8695 14.8934 56.78 15.0492 56.6562 15.1897L55.9525 15.9896C55.8288 16.1303 55.6855 16.2391 55.5229 16.316C55.3601 16.393 55.1917 16.4372 55.0177 16.4486C54.8437 16.46 54.6709 16.4382 54.4994 16.3832C54.328 16.3282 54.1716 16.2391 54.0304 16.1158L53.4834 15.6385C53.3422 15.5152 53.233 15.3725 53.1557 15.2105C53.0783 15.0484 53.034 14.8808 53.0225 14.7074C53.011 14.5341 53.0328 14.3621 53.0881 14.1913C53.1434 14.0205 53.2329 13.8649 53.3566 13.7242L54.0604 12.9243L55.7448 11.0097C55.8686 10.8691 56.0118 10.7603 56.1745 10.6832C56.3373 10.6063 56.5051 10.5617 56.6781 10.5493C56.851 10.537 57.0232 10.5582 57.1947 10.6133C57.3661 10.6682 57.5236 10.7583 57.6669 10.8834C57.7701 10.9735 57.8472 11.0501 57.8981 11.113C57.9489 11.176 57.9921 11.235 58.0275 11.2899C58.063 11.345 58.1013 11.3998 58.1427 11.4544C58.184 11.5091 58.248 11.5741 58.3343 11.6496C58.4207 11.725 58.5128 11.7961 58.6107 11.8629C58.7084 11.9296 58.7986 11.988 58.8814 12.038C58.9786 12.0969 59.0755 12.1498 59.1721 12.1969L58.7176 12.7133C58.6253 12.6699 58.5305 12.6188 58.4334 12.5599C58.3506 12.51 58.2604 12.4516 58.1625 12.3848C58.0648 12.3181 57.9706 12.2451 57.88 12.1661C57.7894 12.0869 57.7148 12.0127 57.6567 11.9433C57.5984 11.874 57.5469 11.8077 57.502 11.7443C57.4571 11.681 57.4129 11.6211 57.3695 11.5646C57.326 11.5081 57.2737 11.4532 57.2125 11.3999C57.1493 11.3447 57.0792 11.3048 57.002 11.2802C56.9249 11.2556 56.8473 11.2454 56.7692 11.2495C56.6909 11.2536 56.6148 11.2735 56.5407 11.309C56.4665 11.3445 56.4018 11.3938 56.3464 11.4567L55.3574 12.581C55.4736 12.5674 55.5853 12.5822 55.6925 12.6257C55.7996 12.6691 55.8953 12.7276 55.9797 12.8012L56.5267 13.2785ZM56.1323 14.6545C56.1877 14.5915 56.2282 14.5211 56.2539 14.4433C56.2794 14.3654 56.2893 14.2877 56.2831 14.2099C56.2769 14.1321 56.2565 14.0569 56.2219 13.984C56.1872 13.9111 56.1384 13.8471 56.0751 13.7919L55.5281 13.3145C55.4648 13.2593 55.3941 13.219 55.3161 13.1934C55.2378 13.168 55.1602 13.1577 55.0831 13.1628C55.0059 13.1678 54.9303 13.188 54.8562 13.2236C54.782 13.2592 54.7173 13.3084 54.662 13.3714L53.8806 14.2594C53.8253 14.3224 53.7851 14.3923 53.7605 14.4691C53.7357 14.5458 53.7255 14.6232 53.7296 14.7011C53.7338 14.779 53.7537 14.8548 53.7894 14.9286C53.825 15.0024 53.8746 15.0669 53.9377 15.122L54.4847 15.5994C54.548 15.6546 54.6181 15.6945 54.6952 15.7191C54.7723 15.7437 54.8504 15.7534 54.9296 15.7482C55.0086 15.743 55.0848 15.7232 55.158 15.6887C55.2311 15.6542 55.2954 15.6054 55.3508 15.5424L56.1323 14.6545Z" fill="#000D38" stroke="#000D38" stroke-width="0.122034" stroke-miterlimit="10"/>
<path d="M62.7968 16.4913C62.8428 16.6648 62.8556 16.8377 62.8349 17.0102C62.8144 17.1827 62.7612 17.3478 62.6755 17.5056C62.5897 17.6634 62.473 17.8002 62.3256 17.9159L59.4782 20.1484C59.3306 20.264 59.1697 20.3448 58.9956 20.3908C58.8214 20.4368 58.6478 20.4494 58.4747 20.4289C58.3014 20.4083 58.1357 20.3554 57.9772 20.27C57.8188 20.1846 57.6815 20.0684 57.5654 19.9216L57.1155 19.3524C56.9993 19.2054 56.9182 19.0453 56.8721 18.8719C56.826 18.6984 56.8131 18.5255 56.8338 18.353C56.8544 18.1805 56.9076 18.0154 56.9933 17.8576C57.079 17.6998 57.1957 17.5631 57.3432 17.4474L57.8982 17.0123L58.3611 17.5979L57.7599 18.0693C57.6938 18.1211 57.6415 18.1825 57.6031 18.2535C57.5646 18.3244 57.5403 18.3986 57.5301 18.4758C57.5198 18.5531 57.5254 18.6314 57.547 18.7104C57.5685 18.7895 57.6053 18.8619 57.6572 18.9277L58.1071 19.4969C58.1591 19.5626 58.2207 19.6147 58.2919 19.653C58.3632 19.6912 58.4382 19.715 58.517 19.7243C58.5956 19.7337 58.6742 19.7281 58.7525 19.7076C58.8307 19.687 58.9029 19.6509 58.969 19.5991L61.9089 17.2941C61.975 17.2424 62.0278 17.1805 62.0673 17.1086C62.1068 17.0367 62.1307 16.9621 62.139 16.8846C62.1472 16.807 62.1411 16.7293 62.1205 16.6513C62.0998 16.5733 62.0635 16.5014 62.0115 16.4356L61.6136 15.9323C61.5616 15.8665 61.4999 15.8144 61.4287 15.7761C61.3575 15.7379 61.2834 15.7142 61.2067 15.7051C61.1299 15.696 61.0519 15.7021 60.9725 15.7236C60.8931 15.7449 60.8203 15.7815 60.7543 15.8333L60.1597 16.2995L59.6969 15.7139L60.2453 15.284C60.3927 15.1683 60.5536 15.0875 60.7277 15.0416C60.9019 14.9956 61.0751 14.9824 61.2474 15.0018C61.4198 15.0213 61.5851 15.0736 61.7436 15.159C61.902 15.2444 62.0393 15.3605 62.1554 15.5075L62.5533 16.0108C62.6694 16.1577 62.7506 16.3179 62.7968 16.4913Z" fill="#000D38" stroke="#000D38" stroke-width="0.122034" stroke-miterlimit="10"/>
<path d="M63.7362 22.6461C63.8058 22.8083 63.8434 22.9746 63.8492 23.1449C63.855 23.3152 63.8302 23.4786 63.7749 23.6351C63.7196 23.7916 63.6365 23.9358 63.5256 24.0677C63.4147 24.1996 63.2797 24.3071 63.1209 24.3901L62.1751 24.8838C62.0088 24.9706 61.8358 25.0207 61.6562 25.0341C61.4765 25.0475 61.3035 25.0283 61.137 24.9765C60.9706 24.9247 60.8176 24.8431 60.6782 24.7315C60.5388 24.6199 60.4255 24.4813 60.3383 24.3156L59.9988 23.6704C59.9116 23.5047 59.8613 23.3324 59.8479 23.1535C59.8344 22.9746 59.854 22.8029 59.9066 22.6384C59.9592 22.4738 60.0422 22.3218 60.1555 22.1823C60.2688 22.0428 60.4086 21.9296 60.5749 21.8428L61.5207 21.3492C61.687 21.2624 61.86 21.2123 62.0396 21.1989C62.2192 21.1855 62.3914 21.2044 62.556 21.2556C62.7206 21.3067 62.8728 21.3888 63.013 21.5016C63.153 21.6144 63.2666 21.7536 63.3538 21.9193L63.3889 21.9861L64.2788 21.5216L64.1949 21.3621C64.1194 21.2187 64.0761 21.0703 64.0651 20.9169C64.054 20.7636 64.0707 20.6163 64.1149 20.4749C64.1592 20.3336 64.2297 20.203 64.3265 20.0832C64.4232 19.9634 64.5436 19.866 64.6876 19.7908L64.9594 19.6489L65.3009 20.2979L64.9807 20.4651C64.9286 20.4923 64.8846 20.5277 64.8492 20.5715C64.8137 20.6153 64.788 20.6641 64.7721 20.7181C64.7562 20.7721 64.7504 20.8271 64.7546 20.8833C64.7588 20.9394 64.7746 20.9934 64.8018 21.0453L65.1843 21.7722C65.1987 21.7994 65.2011 21.8265 65.1916 21.8535C65.182 21.8805 65.1649 21.9005 65.14 21.9135L63.7362 22.6461ZM62.8256 23.7028C62.9002 23.664 62.9634 23.6128 63.0155 23.5494C63.0675 23.4859 63.1048 23.4169 63.1272 23.3422C63.1495 23.2675 63.158 23.1905 63.1528 23.1114C63.1474 23.0321 63.1254 22.9555 63.0863 22.8813L62.7468 22.236C62.7077 22.1618 62.6567 22.0995 62.5937 22.0489C62.5306 21.9983 62.4623 21.9615 62.3885 21.9385C62.3147 21.9156 62.2367 21.9073 62.1549 21.9139C62.0729 21.9205 61.9947 21.9432 61.9202 21.9821L60.8702 22.5302C60.7957 22.569 60.7329 22.6199 60.6822 22.6826C60.6313 22.7454 60.5937 22.8139 60.5695 22.888C60.5452 22.9622 60.536 23.0394 60.542 23.1199C60.5479 23.2003 60.5704 23.2776 60.6094 23.3517L60.9489 23.997C60.988 24.0712 61.0386 24.1329 61.101 24.1824C61.1633 24.2317 61.2323 24.2682 61.308 24.2917C61.3837 24.3152 61.4619 24.324 61.5427 24.3181C61.6234 24.3122 61.701 24.2898 61.7755 24.251L62.8256 23.7028Z" fill="#000D38" stroke="#000D38" stroke-width="0.122034" stroke-miterlimit="10"/>
<path d="M68.3769 27.8192C68.3569 27.9974 68.3059 28.1627 68.2237 28.3148C68.1415 28.4669 68.0319 28.6011 67.8947 28.7174C67.7575 28.8338 67.5992 28.9193 67.4197 28.9741L62.729 30.406L62.5097 29.6935L67.2566 28.2443C67.337 28.2198 67.4086 28.1812 67.4716 28.1284C67.5345 28.0756 67.584 28.0152 67.6202 27.9472C67.6565 27.8792 67.6791 27.8051 67.6881 27.725C67.6971 27.6449 67.6894 27.5648 67.6648 27.4847L67.4504 26.7882C67.4258 26.7082 67.387 26.6374 67.3345 26.5761C67.2819 26.5148 67.2216 26.4661 67.1533 26.43C67.0851 26.3939 67.01 26.3715 66.9282 26.363C66.8463 26.3544 66.7653 26.3623 66.6849 26.3869L61.938 27.836L61.7188 27.1234L66.4094 25.6915C66.5889 25.6367 66.7681 25.6192 66.9472 25.639C67.1262 25.6588 67.2926 25.7087 67.4462 25.7888C67.5999 25.8689 67.7351 25.9773 67.8519 26.1139C67.9686 26.2504 68.0546 26.4081 68.1097 26.587L68.3239 27.2836C68.379 27.4623 68.3966 27.6408 68.3769 27.8192Z" fill="#000D38" stroke="#000D38" stroke-width="0.122034" stroke-miterlimit="10"/>
</svg>
