<svg width="70" height="64" viewBox="0 0 70 64" fill="none" xmlns="http://www.w3.org/2000/svg">
<path d="M38.2688 34.1659C42.6953 34.1659 46.2837 30.5921 46.2837 26.1836C46.2837 21.775 42.6953 18.2012 38.2688 18.2012C33.8423 18.2012 30.254 21.775 30.254 26.1836C30.254 30.5921 33.8423 34.1659 38.2688 34.1659Z" fill="#EF4141"/>
<path d="M8.67441 39.7193L3.63431 39.6738L3.2149 40.8341L7.03598 58.8408L8.57367 59.212L32.3853 59.4441L34.5754 60.4651L36.5791 60.4187L38.6719 59.5736L63.1865 59.3513L64.3515 58.7015L68.0793 40.7412L67.1008 39.6738L8.67441 39.7193Z" fill="#EF4141"/>
<path d="M29.2504 24.4294L30.8961 24.8731L39.0742 36.358L39.0764 36.3611C39.1541 36.4702 39.3059 36.4959 39.4156 36.4186C39.5252 36.3413 39.5512 36.1901 39.4735 36.0808L38.7978 35.1299L40.1502 30.8818L42.29 30.1206C42.3425 30.102 42.387 30.0659 42.4159 30.0185L44.4817 26.6423L47.0685 24.8547C47.1148 24.8227 47.1485 24.7756 47.1638 24.7216L47.9227 22.0517L50.0682 23.0898L53.4934 27.9979L52.0848 34.05C52.0743 34.0951 52.077 34.1422 52.0925 34.1858L54 39.5343C54.0017 39.5602 54.0035 39.5861 54.0046 39.6119C54.0092 39.7136 54.0067 39.8144 53.9987 39.9142L52.2094 43.5898C52.1807 43.6309 52.1522 43.6721 52.1247 43.714C52.1245 43.716 52.1243 43.718 52.1241 43.72L52.1423 43.7277L50.1457 47.8289C50.0988 47.9252 50.121 48.0408 50.2002 48.1132C50.2462 48.1553 50.3053 48.177 50.3648 48.177C50.4076 48.177 50.4507 48.1657 50.4893 48.1428L52.8347 46.7505C52.8662 46.7318 52.893 46.7063 52.9132 46.6758L57.5265 39.7145C57.5798 39.634 57.5801 39.5297 57.5274 39.4488L53.9705 33.9989L56.2541 29.6731L63.9239 42.0166L61.7222 53.6516C61.6445 54.0619 61.271 54.3562 60.8515 54.3345C56.7508 54.1292 43.2254 53.866 36.2058 58.6818C38.2412 56.53 42.0346 54.891 47.5021 53.8057C52.3086 52.8515 57.0717 52.6164 58.8964 52.5596C59.5623 52.5389 60.1168 52.0692 60.2448 51.4175L61.989 42.5358C62.0148 42.4045 61.9288 42.2772 61.7969 42.2515C61.665 42.2257 61.5371 42.3115 61.5114 42.4428L59.7672 51.3245C59.6831 51.7528 59.3188 52.0615 58.8813 52.0751C54.5179 52.211 39.9457 53.1045 35.3775 58.8953C30.7275 53.1875 16.2879 52.3031 11.9479 52.1679C11.5104 52.1543 11.146 51.8457 11.0619 51.417L9.4394 43.2018C9.41348 43.0705 9.28578 42.985 9.15365 43.0108C9.02181 43.0366 8.93591 43.164 8.96182 43.2954L10.5843 51.5103C10.7123 52.1621 11.2667 52.6317 11.9326 52.6524C13.7574 52.7092 18.5203 52.9443 23.327 53.8985C28.5116 54.9277 32.192 56.4544 34.2945 58.4444C27.2871 54.8435 17.8715 54.297 12.8193 54.297C11.7928 54.297 10.9456 54.3196 10.3362 54.3436C9.92079 54.3596 9.5517 54.0662 9.47486 53.6603L7.29108 42.1201L19.4552 37.2779C19.4916 37.2634 19.5239 37.2403 19.5494 37.2108L22.9162 33.3099C22.9533 33.2669 22.9741 33.2123 22.975 33.1556L23.0812 26.1752L26.7925 20.7949L29.1102 24.3278C29.1429 24.3778 29.1927 24.4139 29.2504 24.4294Z" fill="white"/>
<path d="M25.5167 19.9116L19.3464 25.0371L15.9404 30.4794L12.9521 32.3973L7.00983 42.1368L19.5074 37.2072L22.7669 33.1194L22.834 26.2661L26.7924 20.5274L25.5167 19.9116Z" fill="white"/>
<path d="M45.1004 24.3827L43.8395 24.8236L40.7275 27.8695L39.2521 27.7893L35.6036 31.2293L38.635 35.3773L39.9227 30.942L42.203 30.0603L44.4028 26.6404L47.0051 24.7167L47.8099 22.1785L47.5595 22.2174L45.1004 24.3827Z" fill="white"/>
<path d="M30.0012 32.839L28.51 30.3329L26.2422 29.4512L27.3296 32.3414L26.9568 36.1779L29.0692 38.5912L31.6787 45.1813L32.2379 38.6402L30.2341 35.67L30.0012 32.839Z" fill="white"/>
<path d="M53.6834 34.18L56.2204 29.3741L53.7352 28.1777L52.3165 34.2728L54.3358 39.9347L50.3594 48.1027L52.7049 46.7104L57.3181 39.749L53.6834 34.18Z" fill="white"/>
<path d="M41.8792 43.585L38.2756 46.5551L35.6661 53.9187L39.5182 48.1021L44.1159 44.9463L44.4886 39.3153L46.5389 35.0457L43.0596 38.5728L41.8792 43.585Z" fill="white"/>
<path d="M67.9555 39.8804C67.6916 39.556 67.2998 39.3699 66.8806 39.3699H62.8562L56.4714 29.0946C56.4468 29.0549 56.4112 29.0232 56.3688 29.0032L56.3404 28.9897C56.3387 28.9888 56.3373 28.9875 56.3355 28.9867L53.9943 27.8597L50.4354 22.7601C50.4116 22.726 50.3794 22.6985 50.3419 22.6804L47.8779 21.4882C47.8656 21.4822 47.8529 21.4776 47.84 21.4739C47.8392 21.4736 47.8386 21.4733 47.8379 21.473C47.8356 21.4724 47.8334 21.4724 47.8311 21.4718C47.8196 21.4689 47.808 21.4669 47.7963 21.4656C47.7917 21.4652 47.7871 21.4648 47.7824 21.4646C47.7715 21.4641 47.7607 21.4644 47.75 21.4654C47.7463 21.4657 47.7426 21.4657 47.739 21.4662C47.7252 21.4681 47.7117 21.4712 47.6984 21.4753C47.6949 21.4764 47.6916 21.4779 47.6882 21.4792C47.6782 21.4829 47.6685 21.487 47.659 21.492C47.6548 21.4941 47.6509 21.4964 47.6469 21.4988C47.6383 21.5039 47.6301 21.5096 47.6222 21.5159C47.6186 21.5186 47.615 21.5211 47.6116 21.5241C47.6102 21.5253 47.6086 21.5262 47.6073 21.5275L44.9174 23.9825L43.653 24.4325C43.6194 24.4444 43.5888 24.4636 43.5635 24.4887L40.6464 27.3729H39.1215C39.0576 27.3729 38.9962 27.398 38.9507 27.4426L35.6411 30.692L31.2465 24.5205C31.2138 24.4747 31.1661 24.4415 31.1116 24.4268L29.471 23.9844L27.0068 20.2283C27.0066 20.228 27.0065 20.2277 27.0063 20.2274L27.0053 20.2259C26.9979 20.2146 26.9892 20.2042 26.98 20.1944C26.9774 20.1915 26.9746 20.1888 26.9718 20.1861C26.963 20.1775 26.9536 20.1695 26.9436 20.1623C26.9421 20.1612 26.9409 20.1598 26.9394 20.1587C26.9388 20.1584 26.9382 20.1581 26.9376 20.1578C26.9277 20.151 26.9172 20.1449 26.9063 20.1397L25.5956 19.5177C25.5097 19.477 25.4078 19.4898 25.3347 19.5506L19.4893 24.423C19.4705 24.4386 19.4543 24.457 19.441 24.4774L15.7735 30.1351L12.8294 32.0246C12.7984 32.0445 12.7723 32.0711 12.7532 32.1025L8.31925 39.3698H4.34463C3.92541 39.3698 3.53362 39.5558 3.26978 39.8803C3.00587 40.2048 2.90446 40.6251 2.99145 41.0336L6.69437 58.4092C6.82803 59.0366 7.39241 59.4934 8.0363 59.4953L32.5516 59.5724C33.4587 60.2573 34.5357 60.5997 35.6127 60.5997C36.6896 60.5997 37.7666 60.2573 38.6737 59.5724L63.189 59.4953C63.8329 59.4934 64.3973 59.0366 64.531 58.4092L68.2339 41.0336C68.3208 40.6252 68.2194 40.2049 67.9555 39.8804ZM51.0698 47.2351L50.9945 47.2032L51.386 46.3989L52.0229 46.6693L51.0698 47.2351ZM52.5416 46.3614L52.5405 46.3621L51.5986 45.9622L51.9901 45.1579L53.0429 45.6049L52.5416 46.3614ZM53.3155 45.1936L52.2028 44.7212L52.5944 43.917L53.8174 44.4363L53.3155 45.1936ZM54.0899 44.025L52.8069 43.4802L53.1985 42.676L54.5919 43.2676L54.0899 44.025ZM54.8644 42.8563L53.411 42.2393L53.8026 41.435L55.3663 42.099L54.8644 42.8563ZM55.6388 41.6877L54.0152 40.9983L54.4067 40.194L56.1408 40.9303L55.6388 41.6877ZM56.4133 40.519L54.5863 39.7433C54.5845 39.7234 54.581 39.7036 54.5742 39.6844L54.189 38.604L56.9152 39.7616L56.4133 40.519ZM53.9674 37.9831L53.5595 36.8394L55.8957 37.8313L56.7719 39.1739L53.9674 37.9831ZM53.3381 36.2183L52.9302 35.0746L54.5438 35.7597L55.42 37.1023L53.3381 36.2183ZM52.7087 34.4536L52.5787 34.0893L52.7188 33.4874L53.5154 33.8256L53.4771 33.898C53.4361 33.9757 53.4404 34.0693 53.4885 34.1429L54.068 35.0308L52.7087 34.4536ZM53.7427 33.3951L52.8305 33.0079L53.0361 32.1246L54.1612 32.6023L53.7427 33.3951ZM54.3884 32.1718L53.1477 31.645L53.3532 30.7617L54.8069 31.379L54.3884 32.1718ZM55.0342 30.9485L53.4649 30.2822L53.6704 29.399L55.4526 30.1557L55.0342 30.9485ZM55.6799 29.7252L53.7821 28.9194L53.9085 28.3763L55.8959 29.316L55.6799 29.7252ZM46.7669 24.3509L45.7206 23.9067L46.4464 23.2443L47.013 23.4849L46.7669 24.3509ZM47.1467 23.0147L46.8405 22.8847L47.3039 22.4617L47.1467 23.0147ZM45.1273 24.4224C45.1579 24.4116 45.1859 24.3947 45.2098 24.3729L45.3266 24.2663L46.4054 24.7244L45.5355 25.3256L44.1922 24.7552L45.1273 24.4224ZM43.434 27.4283L41.9279 26.7888L42.6146 26.1098L43.9054 26.6579L43.434 27.4283ZM44.1932 26.2531L42.9874 25.7412L43.6741 25.0622L45.0632 25.652L44.1932 26.2531ZM41.555 27.1574L43.1781 27.8465L42.7067 28.6169L40.8553 27.8308C40.878 27.8194 40.8996 27.8054 40.918 27.7872L41.555 27.1574ZM39.2211 27.8576H39.6772L42.4507 29.0352L42.049 29.6918L41.8653 29.7572L38.6687 28.3999L39.2211 27.8576ZM38.5432 34.3366L38.1072 34.1515L37.1196 32.7616L38.8153 33.4817L38.5432 34.3366ZM38.9632 33.0174L36.5834 32.0069L35.9305 31.0882L36.1644 30.8585L39.2353 32.1624L38.9632 33.0174ZM39.3831 31.6982L36.5391 30.4907L37.2293 29.8131L39.6553 30.8432L39.3831 31.6982ZM39.9462 30.4398L37.604 29.4453L38.2941 28.7678L41.1901 29.9974L39.9462 30.4398ZM29.2542 24.4281L30.8999 24.8719L39.078 36.3568L39.0802 36.3598C39.1579 36.4689 39.3097 36.4946 39.4194 36.4174C39.529 36.34 39.555 36.1888 39.4773 36.0796L38.8016 35.1286L40.154 30.8805L42.2938 30.1194C42.3463 30.1007 42.3908 30.0647 42.4198 30.0172L44.4855 26.641L47.0723 24.8534C47.1186 24.8214 47.1523 24.7743 47.1677 24.7203L47.9265 22.0505L50.072 23.0885L53.4972 27.9966L52.0886 34.0487C52.0781 34.0938 52.0808 34.1409 52.0963 34.1846L54.0038 39.5331C54.0055 39.5589 54.0073 39.5848 54.0085 39.6107C54.013 39.7123 54.0105 39.8131 54.0026 39.913L52.2132 43.5886C52.1845 43.6296 52.156 43.6708 52.1285 43.7127C52.1283 43.7147 52.1281 43.7167 52.1279 43.7187L52.1461 43.7264L50.1495 47.8276C50.1026 47.9239 50.1248 48.0395 50.204 48.1119C50.25 48.154 50.3091 48.1757 50.3686 48.1757C50.4114 48.1757 50.4545 48.1644 50.4931 48.1415L52.8385 46.7492C52.87 46.7305 52.8968 46.705 52.9171 46.6746L57.5303 39.7132C57.5836 39.6327 57.5839 39.5285 57.5312 39.4476L53.9743 33.9976L56.2579 29.6718L63.9277 42.0153L61.726 53.6503C61.6483 54.0606 61.2748 54.3549 60.8553 54.3332C56.7546 54.128 43.2292 53.8648 36.2096 58.6805C38.245 56.5287 42.0384 54.8897 47.5059 53.8044C52.3124 52.8502 57.0755 52.6151 58.9002 52.5583C59.5662 52.5376 60.1206 52.068 60.2486 51.4162L61.9928 42.5345C62.0186 42.4032 61.9326 42.2759 61.8007 42.2502C61.6688 42.2244 61.5409 42.3102 61.5152 42.4415L59.771 51.3232C59.6869 51.7516 59.3226 52.0603 58.8851 52.0738C54.5217 52.2097 39.9496 53.1032 35.3813 58.8941C30.7313 53.1863 16.2917 52.3018 11.9517 52.1667C11.5142 52.153 11.1498 51.8444 11.0657 51.4157L9.4432 43.2006C9.41729 43.0692 9.28959 42.9837 9.15745 43.0095C9.02562 43.0353 8.93972 43.1627 8.96563 43.2941L10.5881 51.509C10.7161 52.1608 11.2705 52.6304 11.9365 52.6511C13.7612 52.708 18.5241 52.9431 23.3308 53.8972C28.5154 54.9264 32.1958 56.4531 34.2984 58.4431C27.2909 54.8422 17.8754 54.2957 12.8231 54.2957C11.7967 54.2957 10.9494 54.3183 10.34 54.3423C9.9246 54.3584 9.55551 54.0649 9.47867 53.659L7.29488 42.1188L19.459 37.2766C19.4954 37.2621 19.5277 37.2391 19.5532 37.2095L22.92 33.3086C22.9571 33.2656 22.9779 33.211 22.9788 33.1543L23.085 26.1739L26.7963 20.7936L29.114 24.3266C29.1467 24.3766 29.1966 24.4126 29.2542 24.4281ZM18.2131 37.2507L11.8341 34.5422L12.3044 33.7713L19.3113 36.7465L19.2231 36.8488L18.2131 37.2507ZM17.5726 37.5057L16.3928 37.9754L11.1084 35.7315L11.5787 34.9607L17.5726 37.5057ZM15.7523 38.2303L14.5726 38.6999L10.3827 36.9209L10.853 36.1501L15.7523 38.2303ZM13.9321 38.9549L12.7523 39.4245L9.6571 38.1103L10.1274 37.3395L13.9321 38.9549ZM12.1118 39.6795L10.932 40.1491L8.93144 39.2997L9.40177 38.5288L12.1118 39.6795ZM10.2915 40.4041L9.11177 40.8737L8.20573 40.489L8.67605 39.7182L10.2915 40.4041ZM7.9504 40.9076L8.47122 41.1287L7.60509 41.4735L7.9504 40.9076ZM25.2024 22.2485L23.648 21.5885L24.4194 20.9455L25.7202 21.4979L25.2024 22.2485ZM24.9212 22.6561L24.4034 23.4068L22.4577 22.5806L23.2291 21.9376L24.9212 22.6561ZM24.1223 23.8143L23.6045 24.5651L21.2675 23.5728L22.0389 22.9298L24.1223 23.8143ZM23.3217 24.9749L22.8046 25.7246L20.0641 24.5757L20.827 23.9398L23.3217 24.9749ZM22.5611 28.6145L18.4656 26.8755L18.9589 26.1145L22.5758 27.6502L22.5611 28.6145ZM22.5532 29.1381L22.5385 30.1023L17.7044 28.0497L18.1977 27.2887L22.5532 29.1381ZM22.5305 30.626L22.5159 31.5902L16.9432 29.2241L17.4365 28.463L22.5305 30.626ZM22.5079 32.1139L22.4936 33.0595L22.4817 33.0732L16.182 30.3984L16.6754 29.6373L22.5079 32.1139ZM22.1489 33.4588L21.5359 34.1691L14.8258 31.3199L15.7359 30.7359L22.1489 33.4588ZM21.203 34.5547L20.5899 35.2649L13.4214 32.2212L14.3315 31.6371L21.203 34.5547ZM25.527 20.0223L26.4394 20.4553L26.0014 21.0903L24.8382 20.5964L25.527 20.0223ZM19.7119 24.9528L22.5985 26.1641L22.5838 27.1266L19.2268 25.7012L19.7119 24.9528ZM13.03 32.582L20.2572 35.6506L19.6441 36.3608L12.5597 33.3528L13.03 32.582ZM67.7577 40.933L64.0548 58.3088C63.9684 58.7142 63.6036 59.0094 63.1874 59.0108L38.5918 59.088C38.5407 59.088 38.4884 59.1048 38.447 59.1346C38.4443 59.1365 38.4417 59.1385 38.4391 59.1405C36.7749 60.4396 34.4503 60.4397 32.786 59.1405C32.7834 59.1385 32.7808 59.1365 32.7781 59.1346C32.7369 59.1051 32.6848 59.0882 32.6341 59.088L8.03776 59.0108C7.62152 59.0095 7.25674 58.7142 7.17035 58.3088L3.46743 40.933C3.41098 40.6683 3.47674 40.3959 3.64781 40.1855C3.81888 39.9752 4.07282 39.8547 4.34451 39.8547H8.02334L6.81076 41.8421C6.80753 41.8474 6.80546 41.8532 6.80266 41.8586C6.7995 41.8648 6.79609 41.8709 6.79348 41.8773C6.79031 41.8852 6.78812 41.8932 6.78575 41.9013C6.78387 41.9078 6.78168 41.9142 6.78034 41.9208C6.7787 41.9292 6.77814 41.9377 6.77735 41.9462C6.77674 41.9529 6.77559 41.9594 6.77553 41.9663C6.77546 41.9758 6.77674 41.9853 6.77778 41.9949C6.77845 42.0006 6.77833 42.0064 6.77942 42.0121C6.77949 42.0124 6.77942 42.0127 6.77948 42.013L9.00031 53.7491C9.12144 54.3894 9.7062 54.8522 10.3592 54.827C13.9615 54.6848 25.914 54.5939 34.2434 58.9608C23.9086 56.1002 12.6564 56.5503 9.34111 56.7671C8.94233 56.7925 8.57994 56.5193 8.49708 56.1301L5.84693 43.6873C5.819 43.5563 5.68997 43.4727 5.55838 43.5005C5.42691 43.5282 5.34289 43.6569 5.37082 43.7878L8.02097 56.2307C8.15371 56.8539 8.73537 57.2924 9.37299 57.2507C12.8029 57.0264 24.7792 56.5506 35.3637 59.7922C35.4061 59.8253 35.4587 59.8445 35.5138 59.8445C35.5235 59.8445 35.5333 59.8435 35.5431 59.8423C35.5529 59.8436 35.5626 59.8445 35.5723 59.8445C35.6274 59.8445 35.68 59.8253 35.7224 59.7922C46.3069 56.5506 58.2831 57.0265 61.7131 57.2507C62.3517 57.2936 62.9324 56.8539 63.0652 56.2307L65.7153 43.7878C65.7432 43.6569 65.6592 43.5282 65.5277 43.5005C65.3962 43.4727 65.2671 43.5563 65.2392 43.6873L62.589 56.1301C62.5062 56.5193 62.1437 56.7929 61.745 56.7671C58.3966 56.5481 46.9525 56.0911 36.5341 59.0472C39.3982 57.0988 43.6941 55.7893 49.3269 55.1509C54.3497 54.5818 59.0451 54.7283 60.8309 54.8177C61.4912 54.8498 62.0817 54.3876 62.2042 53.7404L64.4234 42.013C64.4346 41.9536 64.4231 41.892 64.3912 41.8406L63.1573 39.8548H66.8805C67.1523 39.8548 67.4062 39.9754 67.5773 40.1857C67.7483 40.3958 67.8141 40.6683 67.7577 40.933Z" fill="#000D38"/>
<path d="M5.53246 42.2201L5.30573 41.1555C5.27786 41.0246 5.14864 40.9409 5.01718 40.9687C4.88571 40.9964 4.80176 41.1251 4.82962 41.2561L5.05636 42.3206C5.08063 42.4346 5.18168 42.5128 5.29416 42.5128C5.31089 42.5128 5.32787 42.511 5.3449 42.5074C5.47637 42.4797 5.56032 42.351 5.53246 42.2201Z" fill="#000D38"/>
<path d="M66.0695 40.9687C65.938 40.941 65.8089 41.0245 65.781 41.1555L65.5542 42.22C65.5264 42.351 65.6103 42.4797 65.7418 42.5074C65.7588 42.511 65.7758 42.5127 65.7925 42.5127C65.905 42.5127 66.0061 42.4346 66.0303 42.3206L66.2571 41.2561C66.2849 41.1251 66.201 40.9965 66.0695 40.9687Z" fill="#000D38"/>
<path d="M26.3435 29.2627C26.2765 29.3274 26.2526 29.4247 26.282 29.513L27.1966 32.2583L26.7271 35.9785C26.7185 36.047 26.7396 36.116 26.7851 36.168L28.87 38.5498L31.4641 45.101C31.5012 45.1946 31.5918 45.2545 31.6904 45.2545C31.7024 45.2545 31.7146 45.2536 31.7268 45.2517C31.8389 45.2349 31.9245 45.1432 31.9332 45.0306L32.4457 38.3503C32.45 38.295 32.4351 38.24 32.4035 38.1944L30.4832 35.4167L30.2555 32.6501C30.2521 32.6093 30.2385 32.5701 30.2158 32.536L28.4969 29.9526C28.4682 29.9095 28.4264 29.8767 28.3778 29.8589L26.5967 29.2092C26.509 29.1771 26.4106 29.1979 26.3435 29.2627ZM27.4396 30.0328L28.1739 30.3446L29.074 31.6972L27.2668 30.9299L26.9027 29.8369L27.4396 30.0328ZM29.7756 32.7517L29.8388 33.5195L27.6455 32.5882L27.6864 32.2643C27.6909 32.2284 27.6873 32.192 27.6759 32.1577L27.4714 31.5437L29.5627 32.4317L29.7756 32.7517ZM30.0455 35.6382L30.9889 37.0028L27.2867 35.4309L27.403 34.5097L30.0404 35.6295C30.0421 35.6324 30.0436 35.6354 30.0455 35.6382ZM27.4661 34.0096L27.5823 33.0884L29.8837 34.0655L29.9664 35.0712L27.4661 34.0096ZM27.2236 35.9311L31.5046 37.7487L31.9538 38.3987L31.9158 38.8939L28.5753 37.4755L27.2235 35.9312L27.2236 35.9311ZM31.6933 41.7944L30.4728 41.2762L30.0108 40.1095L31.7654 40.8545L31.6933 41.7944ZM31.6542 42.3047L31.5821 43.2446L31.1856 43.0763L30.7236 41.9096L31.6542 42.3047ZM29.2949 38.308L31.8767 39.4042L31.8046 40.3442L29.76 39.476L29.3074 38.3331C29.3039 38.3243 29.2993 38.3162 29.2949 38.308ZM31.4364 43.7098L31.5429 43.755L31.5285 43.9424L31.4364 43.7098Z" fill="#000D38"/>
<path d="M37.6688 47.3962L35.4456 53.6695C35.4047 53.785 35.4567 53.9127 35.5668 53.9672C35.6015 53.9843 35.6385 53.9925 35.675 53.9925C35.7545 53.9925 35.8319 53.9536 35.8782 53.8836L39.7043 48.1064L44.263 44.9773C44.3243 44.9352 44.3628 44.8676 44.3677 44.7937L44.7375 39.2093L46.7676 34.9817C46.8189 34.8749 46.7851 34.7467 46.6877 34.6787C46.5902 34.6106 46.4578 34.6228 46.3745 34.7073L42.8951 38.2344C42.8639 38.266 42.842 38.3056 42.8318 38.3489L41.67 43.2817L38.1295 46.2C38.0956 46.228 38.0699 46.2646 38.0552 46.306L37.6918 47.3316C37.6783 47.3507 37.6645 47.3696 37.6511 47.3887L37.6688 47.3962ZM38.7178 46.3441L40.3835 47.0514L39.51 47.651L38.2796 47.1286L38.4916 46.5305L38.7178 46.3441ZM41.7315 46.1262L40.8579 46.7258L39.1398 45.9963L39.917 45.3557L41.7315 46.1262ZM40.3389 45.008L41.116 44.3674L43.0793 45.2011L42.2057 45.8007L40.3389 45.008ZM39.1696 48.0334L38.6679 48.7909L37.8184 48.4302L38.1174 47.5866L39.1696 48.0334ZM36.7335 51.4916L36.8474 51.5399L36.5657 51.9652L36.7335 51.4916ZM36.8958 51.0335L37.1948 50.1899L37.6214 50.3711L37.1197 51.1286L36.8958 51.0335ZM37.3572 49.7319L37.6561 48.8883L38.3955 49.2023L37.8939 49.9598L37.3572 49.7319ZM44.1211 41.1509L44.0586 42.0949L42.5957 41.4737L42.8035 40.5914L44.1211 41.1509ZM42.9163 40.1124L43.1241 39.2301L44.2175 39.6944L44.1551 40.6384L42.9163 40.1124ZM42.4828 41.9528L44.0247 42.6075L43.9622 43.5515L42.275 42.8351L42.4828 41.9528ZM44.8153 37.9237L44.1588 37.6449L44.8336 36.961L45.2024 37.1176L44.8153 37.9237ZM45.4126 36.6799L45.1999 36.5896L45.6988 36.0839L45.4126 36.6799ZM43.7924 38.0164L44.605 38.3614L44.2781 39.0422C44.2647 39.07 44.2568 39.1001 44.2548 39.1309L44.2514 39.1819L43.2369 38.7511L43.29 38.5257L43.7924 38.0164ZM42.0433 43.6031C42.0842 43.5693 42.113 43.5232 42.1251 43.4717L42.1622 43.3141L43.9283 44.064L43.8898 44.6447L43.5536 44.8755L41.538 44.0196L42.0433 43.6031Z" fill="#000D38"/>
<path d="M51.5679 27.704C51.6152 27.7715 51.6909 27.8077 51.7677 27.8077C51.8158 27.8077 51.8643 27.7936 51.9067 27.7641C52.0169 27.6875 52.044 27.5364 51.9671 27.4266L50.1032 24.7659C50.0263 24.6561 49.8746 24.6291 49.7644 24.7057C49.6541 24.7823 49.6271 24.9334 49.704 25.0432L51.5679 27.704Z" fill="#000D38"/>
<path d="M26.5457 22.6075C26.4332 22.6808 26.4018 22.831 26.4754 22.943L27.5937 24.6446C27.6405 24.7157 27.7182 24.7543 27.7976 24.7543C27.8433 24.7543 27.8895 24.7415 27.9307 24.7147C28.0431 24.6414 28.0746 24.4912 28.001 24.3792L26.8826 22.6775C26.809 22.5656 26.6582 22.5341 26.5457 22.6075Z" fill="#000D38"/>
<path d="M35.6154 34.286C35.6629 34.3527 35.7379 34.3882 35.8142 34.3882C35.8628 34.3882 35.912 34.3738 35.9547 34.3436C36.0643 34.2661 36.0902 34.1149 36.0125 34.0057L35.4518 33.2179C35.374 33.1088 35.2222 33.083 35.1125 33.1604C35.0028 33.2378 34.9769 33.3891 35.0547 33.4983L35.6154 34.286Z" fill="#000D38"/>
<path d="M34.3996 32.5763C34.447 32.6429 34.5221 32.6785 34.5983 32.6785C34.647 32.6785 34.6961 32.6639 34.7388 32.6338C34.8485 32.5564 34.8744 32.4052 34.7966 32.2959L30.981 26.9357C30.9034 26.8265 30.7514 26.8007 30.6418 26.8782C30.5321 26.9556 30.5062 27.1068 30.584 27.2161L34.3996 32.5763Z" fill="#000D38"/>
<path d="M60.8161 39.9869C60.8623 40.0608 60.9417 40.1014 61.023 40.1014C61.0669 40.1014 61.1113 40.0896 61.1512 40.0648C61.2654 39.9942 61.3004 39.8448 61.2295 39.731L60.7177 38.9108C60.6468 38.7972 60.4967 38.7623 60.3826 38.8329C60.2684 38.9036 60.2334 39.053 60.3043 39.1667L60.8161 39.9869Z" fill="#000D38"/>
<path d="M59.9094 38.3215C59.9533 38.3215 59.9976 38.3097 60.0376 38.2849C60.1517 38.2143 60.1867 38.0649 60.1158 37.9511L56.6337 32.3703C56.5628 32.2566 56.4128 32.2218 56.2986 32.2924C56.1845 32.363 56.1494 32.5124 56.2203 32.6262L59.7024 38.207C59.7485 38.2809 59.828 38.3215 59.9094 38.3215Z" fill="#000D38"/>
<path d="M4.75767 36.6851L4.45781 35.9385C4.34179 35.6495 4.10733 35.4236 3.81349 35.3177L3.05426 35.044C2.98326 35.0185 2.98161 34.919 3.0517 34.8911L3.80138 34.5925C4.09151 34.4769 4.31832 34.2434 4.42466 33.9508L4.69945 33.1946C4.72513 33.1239 4.82495 33.1223 4.853 33.1921L5.15287 33.9387C5.26888 34.2277 5.50334 34.4535 5.79718 34.5594L6.55641 34.8331C6.62741 34.8587 6.62905 34.9581 6.55897 34.9861L5.80928 35.2847C5.51916 35.4003 5.29236 35.6338 5.18602 35.9264L4.91122 36.6826C4.88549 36.7533 4.78572 36.7549 4.75767 36.6851Z" fill="#EF4141"/>
<path d="M66.3631 36.6851L66.0633 35.9385C65.9472 35.6495 65.7128 35.4236 65.419 35.3177L64.6597 35.044C64.5887 35.0185 64.5871 34.919 64.6572 34.8911L65.4069 34.5925C65.697 34.4769 65.9238 34.2434 66.0301 33.9508L66.3049 33.1946C66.3306 33.1239 66.4304 33.1223 66.4585 33.1921L66.7583 33.9387C66.8744 34.2277 67.1088 34.4535 67.4026 34.5594L68.1619 34.8331C68.2329 34.8587 68.2345 34.9581 68.1644 34.9861L67.4148 35.2847C67.1246 35.4003 66.8978 35.6338 66.7915 35.9264L66.5167 36.6826C66.491 36.7533 66.3912 36.7549 66.3631 36.6851Z" fill="#EF4141"/>
<path d="M2.24043 26.8255C2.29385 26.6462 2.37841 26.4877 2.494 26.3501C2.60959 26.2125 2.74403 26.1024 2.89734 26.0196C3.05071 25.9369 3.21679 25.8848 3.39565 25.8634C3.57457 25.842 3.75398 25.858 3.93399 25.9113L6.38424 26.6361L7.40786 26.9389C7.58788 26.9922 7.74703 27.0764 7.88519 27.1914C8.02335 27.3066 8.13395 27.4405 8.21705 27.5931C8.30021 27.7459 8.35241 27.9113 8.37382 28.0894C8.3953 28.2676 8.37918 28.4463 8.3257 28.6255L8.11868 29.3199C8.0652 29.4992 7.9807 29.6577 7.86511 29.7952C7.74946 29.9329 7.61513 30.043 7.46176 30.1257C7.30846 30.2086 7.14238 30.2606 6.96346 30.2819C6.78466 30.3033 6.60519 30.2873 6.42518 30.2341L5.40161 29.9312C5.22166 29.878 5.0625 29.7938 4.92434 29.6787C4.78618 29.5636 4.67619 29.4299 4.59443 29.2775C4.51267 29.1253 4.46108 28.96 4.43967 28.7818C4.41825 28.6037 4.43424 28.425 4.48778 28.2458L4.69481 27.5514C4.71075 27.4979 4.73332 27.4442 4.76264 27.3902C4.79191 27.3362 4.82506 27.2864 4.86205 27.2406C4.89916 27.1948 4.93974 27.1543 4.98372 27.1193C5.02777 27.0843 5.0726 27.059 5.11817 27.0434L3.66333 26.613C3.58278 26.5891 3.50157 26.5818 3.41986 26.5912C3.33816 26.6005 3.26334 26.6235 3.19538 26.6602C3.12737 26.6968 3.06744 26.7462 3.01536 26.8079C2.96341 26.8697 2.92533 26.9407 2.90136 27.021L2.71824 27.6351C2.69427 27.7154 2.68721 27.7955 2.69688 27.8755C2.70668 27.9556 2.72992 28.0294 2.76679 28.0971C2.80359 28.1648 2.85372 28.2247 2.91705 28.277C2.98044 28.3292 3.05241 28.3672 3.13302 28.391L3.53606 28.5103L3.32295 29.2248L2.97636 29.1222C2.79641 29.069 2.63733 28.9848 2.49911 28.8697C2.36101 28.7546 2.25017 28.6213 2.16664 28.4699C2.08317 28.3186 2.03067 28.1538 2.00925 27.9756C1.98784 27.7976 2.00384 27.6188 2.05731 27.4395L2.24043 26.8255ZM6.11351 27.3378C6.0329 27.3139 5.95175 27.3067 5.87005 27.3161C5.78834 27.3254 5.71351 27.3484 5.64556 27.385C5.5776 27.4217 5.51762 27.4709 5.4656 27.5327C5.41359 27.5945 5.37557 27.6655 5.3516 27.7458L5.14451 28.4402C5.1206 28.5204 5.1133 28.6013 5.12267 28.6827C5.13198 28.764 5.1551 28.8386 5.19191 28.9062C5.22871 28.9739 5.27878 29.0338 5.34217 29.0861C5.4055 29.1384 5.47753 29.1764 5.55814 29.2002L6.69462 29.5364C6.77517 29.5602 6.85571 29.5673 6.93608 29.5576C7.01644 29.5479 7.09127 29.5249 7.16057 29.4886C7.22992 29.4523 7.29081 29.4026 7.34319 29.3395C7.39564 29.2764 7.43378 29.2047 7.45781 29.1244L7.66483 28.4301C7.6888 28.3498 7.69586 28.2697 7.68613 28.1896C7.67633 28.1096 7.65243 28.0356 7.61428 27.9675C7.57614 27.8994 7.52601 27.8394 7.46395 27.7876C7.40196 27.7358 7.3306 27.6979 7.24999 27.674L6.11351 27.3378Z" fill="#000D38" stroke="#000D38" stroke-width="0.122034" stroke-miterlimit="10"/>
<path d="M5.70726 19.0991C5.79864 18.9358 5.91575 18.7994 6.05871 18.6901C6.20162 18.5809 6.35657 18.5031 6.52368 18.4568C6.6908 18.4105 6.86388 18.3963 7.04311 18.4143C7.22239 18.4322 7.39401 18.4867 7.55803 18.5777L11.8441 20.9553L11.48 21.6064L7.14251 19.2002C7.06908 19.1595 6.99145 19.1349 6.90969 19.1262C6.82786 19.1175 6.74981 19.1237 6.67547 19.1448C6.60113 19.1659 6.53184 19.201 6.46753 19.2499C6.40329 19.2989 6.35067 19.36 6.30972 19.4331L6.13379 19.7477C6.09284 19.8209 6.06814 19.8982 6.05944 19.9796C6.05074 20.061 6.05701 20.1388 6.07818 20.2129C6.09935 20.2869 6.13512 20.3563 6.18556 20.421C6.23593 20.4857 6.29792 20.5384 6.37135 20.5792L6.42282 20.6077L9.58867 22.3639C9.75281 22.4549 9.88963 22.5716 9.99932 22.7139C10.109 22.8562 10.1881 23.0103 10.2365 23.1761C10.2848 23.342 10.3 23.5142 10.282 23.6926C10.264 23.8712 10.2093 24.0421 10.118 24.2055L9.94001 24.5237C9.84857 24.6871 9.73146 24.8235 9.58861 24.9326C9.44565 25.0419 9.29045 25.1203 9.12261 25.1678C8.95494 25.2154 8.78144 25.2301 8.60216 25.2122C8.42299 25.1943 8.25138 25.1398 8.08724 25.0487L4.92138 23.2925C4.75736 23.2015 4.62055 23.0849 4.5108 22.9426C4.40111 22.8002 4.32238 22.6457 4.27469 22.4784C4.22693 22.3115 4.21209 22.1387 4.23016 21.9601C4.24817 21.7817 4.30286 21.6107 4.39423 21.4473L4.57218 21.1291C4.66629 20.9609 4.78735 20.8219 4.93525 20.7123C5.0832 20.6026 5.24539 20.5249 5.42188 20.4789C5.36816 20.3054 5.34912 20.1271 5.36487 19.9441C5.38057 19.7611 5.43617 19.5843 5.53162 19.4136L5.70726 19.0991ZM6.05853 21.259L6.00712 21.2304C5.93369 21.1896 5.85601 21.165 5.77424 21.1564C5.69242 21.1477 5.61443 21.1539 5.54002 21.175C5.46568 21.1961 5.39639 21.2312 5.33209 21.2801C5.26778 21.3292 5.21515 21.3902 5.17427 21.4633L4.99627 21.7816C4.95539 21.8547 4.93093 21.9315 4.92296 22.0117C4.91499 22.0919 4.92156 22.169 4.94273 22.2431C4.9639 22.3172 4.99962 22.3865 5.05011 22.4512C5.10054 22.516 5.16247 22.5687 5.2359 22.6094L8.50457 24.4227C8.578 24.4634 8.65508 24.4878 8.73563 24.4957C8.81618 24.5037 8.89423 24.4975 8.96979 24.4771C9.04547 24.4567 9.11537 24.422 9.17961 24.373C9.24392 24.324 9.29648 24.2629 9.33742 24.1897L9.51537 23.8715C9.55631 23.7983 9.58077 23.7217 9.58874 23.6414C9.59677 23.5612 9.58959 23.4837 9.5672 23.409C9.54482 23.3343 9.50899 23.2649 9.45977 23.2008C9.41061 23.1368 9.34929 23.0844 9.27586 23.0436L6.05853 21.259Z" fill="#000D38" stroke="#000D38" stroke-width="0.122034" stroke-miterlimit="10"/>
<path d="M10.0852 13.5749C10.2485 13.4992 10.4168 13.4568 10.5899 13.4477C10.7632 13.4387 10.9353 13.4622 11.1063 13.5184C11.2774 13.5748 11.4331 13.665 11.5734 13.7893L15.2391 17.0368L14.7417 17.5936L11.032 14.3072C10.9691 14.2516 10.8988 14.2107 10.8208 14.1846C10.7428 14.1585 10.6653 14.1477 10.5881 14.1522C10.511 14.1566 10.4357 14.1759 10.3622 14.2098C10.2888 14.2438 10.2241 14.2919 10.1682 14.3545L9.68209 14.8989C9.62618 14.9614 9.5856 15.0311 9.56036 15.1076C9.53505 15.1842 9.52471 15.2609 9.52921 15.3378C9.53371 15.4146 9.55348 15.4902 9.58864 15.5641C9.62375 15.6382 9.67272 15.7031 9.73563 15.7588L13.4453 19.0452L12.948 19.602L9.28227 16.3545C9.14198 16.2303 9.03382 16.0868 8.95777 15.9241C8.88173 15.7615 8.83817 15.594 8.82703 15.4216C8.8159 15.2493 8.83853 15.078 8.89511 14.9076C8.95163 14.7372 9.04228 14.5822 9.16705 14.4424L9.65319 13.8981C9.77785 13.7584 9.9219 13.6507 10.0852 13.5749Z" fill="#000D38" stroke="#000D38" stroke-width="0.122034" stroke-miterlimit="10"/>
<path d="M14.8334 9.37213C15.008 9.32754 15.1817 9.31609 15.3548 9.33784C15.5277 9.35971 15.6932 9.41382 15.8509 9.5004C16.0088 9.58698 16.1452 9.7041 16.2602 9.85188L18.4807 12.7042C18.5957 12.852 18.6757 13.0128 18.7205 13.1866C18.7653 13.3604 18.7768 13.5334 18.7548 13.7056C18.7329 13.8781 18.6785 14.0427 18.5917 14.1999C18.5048 14.3571 18.3871 14.4929 18.2388 14.6075L17.664 15.0513C17.5156 15.1659 17.3541 15.2456 17.1797 15.2902C17.0051 15.3348 16.8314 15.3463 16.6584 15.3244C16.4855 15.3026 16.32 15.2484 16.1622 15.1618C16.0044 15.0753 15.868 14.9581 15.7529 14.8104L15.3202 14.2544L15.9116 13.7978L16.3804 14.4C16.4319 14.4662 16.4932 14.5187 16.5642 14.5575C16.6352 14.5964 16.7094 14.6211 16.787 14.6319C16.8645 14.6426 16.943 14.6376 17.0226 14.6168C17.1022 14.596 17.1751 14.5599 17.2416 14.5086L17.8163 14.0648C17.8827 14.0135 17.9354 13.9525 17.9744 13.8818C18.0134 13.8111 18.0379 13.7366 18.0478 13.6582C18.0578 13.5799 18.0527 13.5017 18.0326 13.4235C18.0126 13.3454 17.9769 13.2733 17.9253 13.207L15.6328 10.2621C15.5813 10.1959 15.5195 10.1429 15.4477 10.103C15.3759 10.0631 15.301 10.0387 15.2233 10.0299C15.1454 10.0211 15.0674 10.0267 14.9889 10.0466C14.9105 10.0666 14.8381 10.1022 14.7716 10.1535L14.2633 10.5461C14.1969 10.5974 14.1442 10.6584 14.1052 10.7291C14.0662 10.7998 14.0419 10.8733 14.0322 10.9497C14.0225 11.026 14.028 11.1039 14.049 11.1831C14.0698 11.2623 14.1061 11.3351 14.1576 11.4012L14.6212 11.9969L14.0298 12.4535L13.6022 11.9042C13.4872 11.7565 13.4072 11.5957 13.3624 11.4219C13.3176 11.2482 13.3055 11.0756 13.3264 10.9041C13.3471 10.7326 13.401 10.5684 13.4878 10.4112C13.5747 10.254 13.6923 10.1182 13.8408 10.0035L14.3491 9.61098C14.4975 9.49646 14.659 9.41679 14.8334 9.37213Z" fill="#000D38" stroke="#000D38" stroke-width="0.122034" stroke-miterlimit="10"/>
<path d="M23.9592 4.49319C24.1393 4.49222 24.31 4.5236 24.4712 4.58728C24.6324 4.65096 24.7789 4.74391 24.9108 4.86612C25.0427 4.98839 25.1463 5.13513 25.2218 5.30636L26.3938 7.96734L25.7085 8.26671L24.5128 5.55205C24.4791 5.47535 24.4322 5.409 24.3722 5.35283C24.3124 5.29679 24.2464 5.25468 24.1744 5.22669C24.1024 5.19869 24.0259 5.18488 23.9449 5.18518C23.864 5.18555 23.785 5.20245 23.708 5.23608L23.5463 5.30672C23.4693 5.34035 23.4032 5.38676 23.3482 5.44584C23.2931 5.50503 23.2516 5.57041 23.2235 5.64209C23.1954 5.71383 23.1817 5.79059 23.1827 5.87251C23.1836 5.95443 23.2009 6.03374 23.2347 6.11038L24.0453 7.95086L23.3562 8.25193L22.5454 6.41152C22.5117 6.33481 22.4648 6.26846 22.405 6.21236C22.345 6.15619 22.2791 6.11414 22.2071 6.08615C22.135 6.05816 22.0585 6.0444 21.9776 6.04465C21.8966 6.04501 21.8177 6.06197 21.7406 6.0956L21.5828 6.16461C21.5058 6.19824 21.4397 6.24471 21.3846 6.30373C21.3296 6.36286 21.288 6.42824 21.26 6.49991C21.2319 6.57165 21.2182 6.64848 21.2191 6.7304C21.22 6.81232 21.2374 6.89163 21.2711 6.96827L22.0818 8.80868L21.3927 9.10975L20.582 7.26934C20.5481 7.19264 20.5013 7.12629 20.4414 7.07012C20.3815 7.01402 20.3155 6.97191 20.2435 6.94398C20.1715 6.91598 20.095 6.90223 20.014 6.90247C19.9331 6.90284 19.8541 6.91974 19.7771 6.95343L19.6232 7.02068C19.5462 7.05437 19.4808 7.10048 19.427 7.15895C19.3732 7.21754 19.3316 7.28292 19.3022 7.3552C19.2728 7.42748 19.2586 7.50461 19.2595 7.58647C19.2604 7.66839 19.2777 7.7477 19.3115 7.82441L20.3823 10.2553C20.4374 10.3806 20.5046 10.4914 20.5838 10.5879C20.663 10.6844 20.7515 10.76 20.8491 10.8149C20.9467 10.8698 21.0521 10.9007 21.1653 10.9076C21.2785 10.9146 21.398 10.8905 21.5239 10.8357L24.8424 9.38574C24.9887 9.32182 25.1398 9.28946 25.2954 9.28843C25.451 9.28752 25.5981 9.31388 25.7366 9.36774C25.8751 9.42155 26.0012 9.50128 26.1151 9.60701C26.229 9.71274 26.318 9.83841 26.3823 9.98412L26.438 10.1106L25.7527 10.41L25.6767 10.2375C25.653 10.1838 25.6205 10.1378 25.5792 10.0995C25.5378 10.0613 25.491 10.0314 25.4388 10.0099C25.3864 9.98867 25.3321 9.97812 25.2756 9.97837C25.2191 9.97873 25.1639 9.99061 25.11 10.0142L21.7992 11.4607C21.5759 11.5582 21.3577 11.6033 21.1448 11.5957C20.9317 11.5882 20.7319 11.5392 20.5451 11.4486C20.3583 11.3579 20.1894 11.2298 20.0383 11.0641C19.8874 10.8985 19.7629 10.7044 19.6649 10.4821L18.6499 8.1777C18.5745 8.00642 18.5362 7.83113 18.5352 7.65166C18.5342 7.47226 18.5655 7.3017 18.6289 7.1398C18.6922 6.97803 18.7847 6.8317 18.9061 6.70089C19.0276 6.57014 19.1743 6.4672 19.3461 6.39201L19.5002 6.32475C19.6772 6.24738 19.8586 6.20927 20.0443 6.21042C20.23 6.21163 20.4071 6.24708 20.5754 6.31669C20.6379 6.14613 20.7311 5.99266 20.8547 5.85633C20.9782 5.72001 21.1286 5.61319 21.3057 5.53581L21.4635 5.4668C21.6406 5.38943 21.8214 5.35162 22.0058 5.35338C22.1902 5.35508 22.3666 5.39082 22.535 5.46044C22.5976 5.28988 22.6912 5.13616 22.8162 4.99929C22.9411 4.86248 23.0921 4.7553 23.2692 4.67799L23.4309 4.60734C23.6029 4.53221 23.779 4.49416 23.9592 4.49319Z" fill="#000D38" stroke="#000D38" stroke-width="0.122034" stroke-miterlimit="10"/>
<path d="M30.4296 3.04605C30.6045 3.08919 30.7622 3.16136 30.9027 3.26254C31.0432 3.36379 31.1623 3.48975 31.26 3.64044C31.3577 3.79125 31.422 3.95884 31.4529 4.14327L32.2595 8.96294L31.5214 9.08545L30.7051 4.20798C30.6912 4.1254 30.6622 4.04954 30.618 3.98053C30.5737 3.91146 30.5203 3.8545 30.4573 3.80985C30.3943 3.76507 30.3236 3.73296 30.2452 3.71345C30.1666 3.694 30.0859 3.69109 30.0029 3.70485L29.2814 3.82469C29.1985 3.83845 29.123 3.86729 29.055 3.91109C28.9871 3.9549 28.9306 4.00816 28.8857 4.07081C28.8408 4.1334 28.8086 4.20459 28.7894 4.28414C28.7699 4.36376 28.7672 4.44489 28.781 4.52753L29.5973 9.405L28.8592 9.52757L28.0525 4.70785C28.0217 4.52347 28.0279 4.34413 28.0712 4.16993C28.1145 3.9958 28.1861 3.8382 28.2861 3.69703C28.3861 3.55592 28.5117 3.43674 28.6631 3.33943C28.8144 3.24218 28.9827 3.17808 29.168 3.14742L29.8895 3.02757C30.0747 2.99673 30.2547 3.00291 30.4296 3.04605Z" fill="#000D38" stroke="#000D38" stroke-width="0.122034" stroke-miterlimit="10"/>
<path d="M38.8934 4.13738C38.9238 3.95288 38.9878 3.78517 39.0851 3.63412C39.1824 3.48319 39.3018 3.35704 39.4435 3.25574C39.5852 3.15449 39.7434 3.08203 39.9182 3.03852C40.0929 2.99496 40.273 2.98836 40.4582 3.01865C40.6491 3.04985 40.8214 3.11626 40.975 3.21775C41.1287 3.3193 41.2571 3.44496 41.3601 3.5948C41.506 3.48567 41.668 3.40751 41.8461 3.36031C42.0244 3.31305 42.2102 3.3053 42.4039 3.33699L42.8768 3.4143L42.765 4.09194L42.2921 4.01456C42.2092 4.00093 42.1284 4.00408 42.0499 4.02371C41.9713 4.0434 41.9 4.07552 41.8359 4.12023C41.7717 4.16489 41.7175 4.22178 41.6735 4.29097C41.6294 4.36017 41.6005 4.43602 41.5869 4.51867L41.523 4.93249L40.7845 4.81168L40.8485 4.39785C40.8622 4.31515 40.8592 4.23408 40.8397 4.15452C40.8201 4.07497 40.7878 4.0039 40.7428 3.94131C40.6978 3.87878 40.6412 3.8257 40.573 3.78202C40.505 3.7384 40.4294 3.7098 40.3465 3.69616C40.2636 3.68259 40.1828 3.68568 40.1043 3.70531C40.0258 3.725 39.9544 3.75712 39.8903 3.80183C39.826 3.84649 39.7719 3.90338 39.7279 3.97257C39.6837 4.04171 39.655 4.11762 39.6414 4.20027L39.398 5.6752C39.4867 5.60207 39.5888 5.55584 39.7042 5.53651C39.8196 5.51719 39.9325 5.51658 40.0432 5.53469L40.7609 5.65212C40.9461 5.68241 41.1145 5.74603 41.2662 5.84298C41.4178 5.93992 41.5445 6.05825 41.6465 6.19797C41.7483 6.33769 41.8212 6.49456 41.8649 6.66857C41.9086 6.84271 41.9152 7.02199 41.8848 7.20649L41.7117 8.2559C41.6813 8.44045 41.6174 8.60823 41.5201 8.75916C41.4227 8.91015 41.3032 9.03629 41.1616 9.13754C41.0199 9.23884 40.8616 9.31125 40.6869 9.35475C40.5121 9.39832 40.3321 9.40492 40.1469 9.37456L39.4292 9.25714C39.2438 9.22685 39.0754 9.16323 38.9239 9.06635C38.7722 8.9694 38.6456 8.85046 38.544 8.70923C38.4422 8.56812 38.3695 8.41064 38.3258 8.23651C38.2821 8.0625 38.2755 7.88315 38.3059 7.69866L38.8934 4.13738ZM39.0342 7.88164C39.0205 7.96428 39.0236 8.04402 39.0437 8.12078C39.0637 8.19767 39.0968 8.26814 39.1431 8.33224C39.1892 8.39647 39.2464 8.45033 39.3145 8.49395C39.3825 8.53764 39.458 8.56624 39.5411 8.57981L40.2587 8.69723C40.3417 8.71087 40.4223 8.70771 40.5009 8.68808C40.5793 8.66839 40.6502 8.63549 40.7132 8.58914C40.7762 8.54291 40.8294 8.48662 40.8731 8.42016C40.9167 8.35375 40.9453 8.27923 40.959 8.19658L41.1518 7.02738C41.1655 6.94474 41.1623 6.86434 41.1426 6.78618C41.1229 6.70795 41.0904 6.63761 41.0454 6.57508C41.0003 6.51255 40.9437 6.45948 40.8757 6.41579C40.8076 6.37217 40.7321 6.34351 40.6492 6.32993L39.9315 6.21251C39.8485 6.19894 39.7677 6.20203 39.6893 6.22166C39.6108 6.24135 39.5394 6.27353 39.4753 6.31818C39.411 6.36283 39.357 6.41912 39.3132 6.48686C39.2694 6.55466 39.2407 6.62985 39.227 6.7125L39.0342 7.88164Z" fill="#000D38" stroke="#000D38" stroke-width="0.122034" stroke-miterlimit="10"/>
<path d="M47.797 5.0872C47.9281 5.21019 48.0301 5.35016 48.1027 5.50696C48.1753 5.66383 48.2171 5.83172 48.2279 6.01083C48.2388 6.18993 48.2123 6.36739 48.1483 6.54323L46.4776 11.1373L45.774 10.8835L47.4648 6.23428C47.4934 6.15557 47.5054 6.07523 47.501 5.9935C47.4963 5.9117 47.4778 5.83596 47.445 5.76622C47.4121 5.69655 47.3664 5.63396 47.3075 5.57858C47.2487 5.52326 47.1797 5.48127 47.1007 5.45273L46.4129 5.20468C46.3338 5.17614 46.2539 5.16445 46.1731 5.16936C46.0922 5.17439 46.0169 5.19317 45.9469 5.22583C45.8768 5.25848 45.8138 5.30471 45.7577 5.3647C45.7017 5.42456 45.6593 5.49393 45.6307 5.5727L43.94 10.2219L43.2364 9.96812L44.9071 5.37403C44.971 5.19826 45.0648 5.04503 45.1883 4.91439C45.3118 4.78382 45.4519 4.68143 45.6086 4.60733C45.7651 4.53323 45.9333 4.49075 46.1131 4.47991C46.2929 4.46906 46.4711 4.49548 46.6477 4.55916L47.3355 4.80727C47.512 4.87083 47.6659 4.9642 47.797 5.0872Z" fill="#000D38" stroke="#000D38" stroke-width="0.122034" stroke-miterlimit="10"/>
<path d="M52.2481 10.2219C52.3137 10.3254 52.363 10.4354 52.3963 10.5523C52.4294 10.6691 52.4474 10.7883 52.4502 10.9099C52.4528 11.0315 52.4386 11.1528 52.4075 11.2738C52.3763 11.3949 52.3272 11.5119 52.2601 11.6249L51.7167 12.5403C51.6212 12.7014 51.5005 12.8346 51.3549 12.9402C51.2092 13.0457 51.0519 13.1201 50.883 13.1633C50.714 13.2065 50.5403 13.2169 50.3616 13.1943C50.1829 13.1718 50.0127 13.113 49.8511 13.0178L49.225 12.6492C49.0634 12.554 48.9296 12.4338 48.8236 12.2888C48.7175 12.1437 48.6428 11.9871 48.5995 11.8188C48.5561 11.6506 48.5457 11.4776 48.5683 11.2995C48.591 11.1216 48.65 10.9521 48.7456 10.791L49.2891 9.87554C49.3846 9.71455 49.5052 9.58138 49.6509 9.47571C49.7966 9.37022 49.9535 9.29636 50.1217 9.25437C50.29 9.21233 50.4633 9.20263 50.6421 9.22517C50.8208 9.24771 50.991 9.30654 51.1527 9.40173L51.5073 9.61052C51.6095 9.65772 51.7139 9.66572 51.8204 9.63433C51.9269 9.60301 52.0093 9.53812 52.0678 9.4396L52.5813 8.57462C52.6112 8.52415 52.6301 8.4704 52.6379 8.41339C52.6456 8.35644 52.6427 8.30112 52.6289 8.24756C52.615 8.19406 52.5915 8.14455 52.5584 8.09899C52.5251 8.05349 52.4832 8.0158 52.4325 7.98599L52.2624 7.8859C52.2118 7.85609 52.1577 7.83724 52.1005 7.82949C52.0432 7.82173 51.9884 7.82506 51.9359 7.83954C51.8833 7.85403 51.8338 7.87838 51.7875 7.91262C51.741 7.94691 51.7029 7.98932 51.673 8.03979L51.3649 8.5588L50.7243 8.18163L51.0067 7.70588C51.0881 7.56895 51.1915 7.45474 51.3174 7.36343C51.4432 7.27218 51.5786 7.20844 51.7239 7.17233C51.8691 7.13616 52.0183 7.12756 52.1714 7.14646C52.3246 7.16536 52.4712 7.2159 52.6111 7.29836L52.7813 7.39851C52.9212 7.48085 53.0363 7.5844 53.1269 7.70903C53.2173 7.83361 53.281 7.96763 53.3181 8.11099C53.3551 8.2544 53.3637 8.40297 53.3441 8.55674C53.3243 8.71052 53.2739 8.85594 53.1926 8.99281L52.7305 9.77139C52.6706 9.87233 52.5992 9.96085 52.5166 10.037C52.4338 10.1131 52.3445 10.1748 52.2481 10.2219ZM51.6459 11.1951C51.6887 11.1231 51.7154 11.0464 51.7262 10.9652C51.737 10.884 51.7327 10.8061 51.7135 10.7316C51.6943 10.657 51.6603 10.5867 51.6116 10.5208C51.5628 10.4548 51.5023 10.4005 51.4299 10.3579L50.8038 9.98927C50.7314 9.94667 50.6551 9.92038 50.5748 9.91032C50.4944 9.90032 50.4169 9.90487 50.342 9.92401C50.2671 9.94322 50.1966 9.97703 50.1303 10.0256C50.0641 10.0741 50.0096 10.1344 49.9668 10.2065L49.3635 11.2229C49.3207 11.2949 49.2942 11.371 49.2843 11.451C49.2741 11.531 49.2784 11.6089 49.297 11.6847C49.3155 11.7605 49.3485 11.8309 49.3961 11.8962C49.4435 11.9615 49.5035 12.0154 49.5759 12.058L50.202 12.4266C50.2743 12.4693 50.3513 12.496 50.4329 12.5066C50.5144 12.5174 50.5929 12.5126 50.6686 12.4922C50.7441 12.4719 50.8147 12.438 50.8802 12.3906C50.9457 12.3433 50.9999 12.2836 51.0427 12.2115L51.6459 11.1951Z" fill="#000D38" stroke="#000D38" stroke-width="0.122034" stroke-miterlimit="10"/>
<path d="M56.5268 13.2785C56.668 13.4018 56.7773 13.5445 56.8546 13.7065C56.9319 13.8686 56.9767 14.0357 56.989 14.208C57.0015 14.3803 56.98 14.5518 56.9248 14.7226C56.8695 14.8934 56.78 15.0492 56.6563 15.1897L55.9526 15.9896C55.8289 16.1303 55.6856 16.2391 55.5229 16.316C55.3602 16.393 55.1918 16.4372 55.0177 16.4486C54.8437 16.46 54.671 16.4382 54.4995 16.3832C54.328 16.3282 54.1717 16.2391 54.0305 16.1158L53.4835 15.6385C53.3423 15.5152 53.233 15.3725 53.1557 15.2105C53.0784 15.0484 53.034 14.8808 53.0225 14.7074C53.0111 14.5341 53.0329 14.3621 53.0882 14.1913C53.1434 14.0205 53.2329 13.8649 53.3567 13.7242L54.0604 12.9243L55.7449 11.0097C55.8686 10.8691 56.0119 10.7603 56.1745 10.6832C56.3373 10.6063 56.5051 10.5617 56.6781 10.5493C56.8511 10.537 57.0233 10.5582 57.1948 10.6133C57.3662 10.6682 57.5237 10.7583 57.667 10.8834C57.7702 10.9735 57.8473 11.0501 57.8982 11.113C57.9489 11.176 57.9921 11.235 58.0276 11.2899C58.063 11.345 58.1014 11.3998 58.1428 11.4544C58.1841 11.5091 58.248 11.5741 58.3344 11.6496C58.4208 11.725 58.5129 11.7961 58.6107 11.8629C58.7084 11.9296 58.7987 11.988 58.8815 12.038C58.9787 12.0969 59.0756 12.1498 59.1721 12.1969L58.7177 12.7133C58.6254 12.6699 58.5306 12.6188 58.4334 12.5599C58.3506 12.51 58.2604 12.4516 58.1626 12.3848C58.0648 12.3181 57.9707 12.2451 57.88 12.1661C57.7894 12.0869 57.7149 12.0127 57.6568 11.9433C57.5985 11.874 57.5469 11.8077 57.502 11.7443C57.4572 11.681 57.4129 11.6211 57.3695 11.5646C57.326 11.5081 57.2738 11.4532 57.2126 11.3999C57.1494 11.3447 57.0792 11.3048 57.0021 11.2802C56.9249 11.2556 56.8473 11.2454 56.7693 11.2495C56.691 11.2536 56.6149 11.2735 56.5408 11.309C56.4666 11.3445 56.4019 11.3938 56.3465 11.4567L55.3574 12.581C55.4736 12.5674 55.5854 12.5822 55.6925 12.6257C55.7997 12.6691 55.8954 12.7276 55.9797 12.8012L56.5268 13.2785ZM56.1323 14.6545C56.1877 14.5915 56.2282 14.5211 56.2539 14.4433C56.2794 14.3654 56.2893 14.2877 56.2831 14.2099C56.277 14.1321 56.2565 14.0569 56.222 13.984C56.1873 13.9111 56.1385 13.8471 56.0751 13.7919L55.5281 13.3145C55.4649 13.2593 55.3942 13.219 55.3161 13.1934C55.2379 13.168 55.1603 13.1577 55.0831 13.1628C55.006 13.1678 54.9304 13.188 54.8563 13.2236C54.7821 13.2592 54.7174 13.3084 54.662 13.3714L53.8807 14.2594C53.8253 14.3224 53.7852 14.3923 53.7605 14.4691C53.7358 14.5458 53.7256 14.6232 53.7297 14.7011C53.7338 14.779 53.7537 14.8548 53.7894 14.9286C53.8251 15.0024 53.8746 15.0669 53.9378 15.122L54.4848 15.5994C54.5481 15.6546 54.6182 15.6945 54.6953 15.7191C54.7724 15.7437 54.8504 15.7534 54.9296 15.7482C55.0087 15.743 55.0848 15.7232 55.158 15.6887C55.2311 15.6542 55.2954 15.6054 55.3509 15.5424L56.1323 14.6545Z" fill="#000D38" stroke="#000D38" stroke-width="0.122034" stroke-miterlimit="10"/>
<path d="M62.7969 16.4913C62.8429 16.6648 62.8556 16.8377 62.835 17.0102C62.8144 17.1827 62.7613 17.3478 62.6755 17.5056C62.5898 17.6634 62.4731 17.8002 62.3256 17.9159L59.4782 20.1484C59.3306 20.264 59.1698 20.3448 58.9957 20.3908C58.8215 20.4368 58.6479 20.4494 58.4747 20.4289C58.3015 20.4083 58.1358 20.3554 57.9773 20.27C57.8189 20.1846 57.6816 20.0684 57.5654 19.9216L57.1155 19.3524C56.9994 19.2054 56.9182 19.0453 56.8721 18.8719C56.826 18.6984 56.8132 18.5255 56.8339 18.353C56.8545 18.1805 56.9077 18.0154 56.9934 17.8576C57.0791 17.6998 57.1958 17.5631 57.3433 17.4474L57.8983 17.0123L58.3612 17.5979L57.76 18.0693C57.6938 18.1211 57.6416 18.1825 57.6031 18.2535C57.5647 18.3244 57.5404 18.3986 57.5302 18.4758C57.5199 18.5531 57.5255 18.6314 57.547 18.7104C57.5685 18.7895 57.6053 18.8619 57.6573 18.9277L58.1072 19.4969C58.1591 19.5626 58.2208 19.6147 58.292 19.653C58.3632 19.6912 58.4382 19.715 58.517 19.7243C58.5957 19.7337 58.6742 19.7281 58.7526 19.7076C58.8307 19.687 58.903 19.6509 58.9691 19.5991L61.909 17.2941C61.975 17.2424 62.0279 17.1805 62.0674 17.1086C62.1068 17.0367 62.1308 16.9621 62.1391 16.8846C62.1473 16.807 62.1412 16.7293 62.1205 16.6513C62.0999 16.5733 62.0636 16.5014 62.0116 16.4356L61.6137 15.9323C61.5617 15.8665 61.5 15.8144 61.4288 15.7761C61.3575 15.7379 61.2835 15.7142 61.2068 15.7051C61.13 15.696 61.0519 15.7021 60.9726 15.7236C60.8932 15.7449 60.8204 15.7815 60.7543 15.8333L60.1598 16.2995L59.6969 15.7139L60.2453 15.284C60.3928 15.1683 60.5536 15.0875 60.7278 15.0416C60.902 14.9956 61.0751 14.9824 61.2475 15.0018C61.4198 15.0213 61.5852 15.0736 61.7437 15.159C61.9021 15.2444 62.0393 15.3605 62.1555 15.5075L62.5534 16.0108C62.6695 16.1577 62.7507 16.3179 62.7969 16.4913Z" fill="#000D38" stroke="#000D38" stroke-width="0.122034" stroke-miterlimit="10"/>
<path d="M63.7363 22.6461C63.8058 22.8083 63.8434 22.9746 63.8493 23.1449C63.8551 23.3152 63.8303 23.4786 63.775 23.6351C63.7197 23.7916 63.6366 23.9358 63.5257 24.0677C63.4148 24.1996 63.2798 24.3071 63.121 24.3901L62.1752 24.8838C62.0089 24.9706 61.8358 25.0207 61.6562 25.0341C61.4765 25.0475 61.3035 25.0283 61.1371 24.9765C60.9706 24.9247 60.8177 24.8431 60.6783 24.7315C60.5389 24.6199 60.4255 24.4813 60.3384 24.3156L59.9989 23.6704C59.9116 23.5047 59.8613 23.3324 59.8479 23.1535C59.8344 22.9746 59.854 22.8029 59.9067 22.6384C59.9592 22.4738 60.0423 22.3218 60.1555 22.1823C60.2688 22.0428 60.4086 21.9296 60.575 21.8428L61.5208 21.3492C61.687 21.2624 61.8601 21.2123 62.0397 21.1989C62.2193 21.1855 62.3915 21.2044 62.556 21.2556C62.7206 21.3067 62.8729 21.3888 63.013 21.5016C63.1531 21.6144 63.2666 21.7536 63.3539 21.9193L63.389 21.9861L64.2789 21.5216L64.195 21.3621C64.1195 21.2187 64.0762 21.0703 64.0652 20.9169C64.054 20.7636 64.0707 20.6163 64.115 20.4749C64.1593 20.3336 64.2298 20.203 64.3265 20.0832C64.4233 19.9634 64.5437 19.866 64.6877 19.7908L64.9595 19.6489L65.3009 20.2979L64.9808 20.4651C64.9287 20.4923 64.8847 20.5277 64.8492 20.5715C64.8138 20.6153 64.7881 20.6641 64.7722 20.7181C64.7562 20.7721 64.7504 20.8271 64.7546 20.8833C64.7588 20.9394 64.7747 20.9934 64.8019 21.0453L65.1844 21.7722C65.1987 21.7994 65.2011 21.8265 65.1916 21.8535C65.1821 21.8805 65.1649 21.9005 65.14 21.9135L63.7363 22.6461ZM62.8257 23.7028C62.9002 23.664 62.9635 23.6128 63.0156 23.5494C63.0675 23.4859 63.1048 23.4169 63.1273 23.3422C63.1496 23.2675 63.1581 23.1905 63.1529 23.1114C63.1475 23.0321 63.1254 22.9555 63.0864 22.8813L62.7469 22.236C62.7078 22.1618 62.6568 22.0995 62.5938 22.0489C62.5307 21.9983 62.4624 21.9615 62.3886 21.9385C62.3148 21.9156 62.2368 21.9073 62.1549 21.9139C62.0729 21.9205 61.9948 21.9432 61.9202 21.9821L60.8702 22.5302C60.7957 22.569 60.733 22.6199 60.6823 22.6826C60.6314 22.7454 60.5938 22.8139 60.5696 22.888C60.5453 22.9622 60.5361 23.0394 60.542 23.1199C60.5479 23.2003 60.5705 23.2776 60.6094 23.3517L60.949 23.997C60.988 24.0712 61.0387 24.1329 61.1011 24.1824C61.1633 24.2317 61.2324 24.2682 61.3081 24.2917C61.3838 24.3152 61.4619 24.324 61.5428 24.3181C61.6235 24.3122 61.7011 24.2898 61.7756 24.251L62.8257 23.7028Z" fill="#000D38" stroke="#000D38" stroke-width="0.122034" stroke-miterlimit="10"/>
<path d="M68.3769 27.8192C68.357 27.9974 68.3059 28.1627 68.2237 28.3148C68.1415 28.4669 68.0319 28.6011 67.8948 28.7174C67.7576 28.8338 67.5993 28.9193 67.4197 28.9741L62.7291 30.406L62.5098 29.6935L67.2567 28.2443C67.3371 28.2198 67.4087 28.1812 67.4716 28.1284C67.5345 28.0756 67.5841 28.0152 67.6203 27.9472C67.6566 27.8792 67.6791 27.8051 67.6882 27.725C67.6972 27.6449 67.6895 27.5648 67.6648 27.4847L67.4504 26.7882C67.4259 26.7082 67.3871 26.6374 67.3346 26.5761C67.282 26.5148 67.2216 26.4661 67.1534 26.43C67.0851 26.3939 67.01 26.3715 66.9282 26.363C66.8464 26.3544 66.7654 26.3623 66.6849 26.3869L61.9381 27.836L61.7188 27.1234L66.4095 25.6915C66.5889 25.6367 66.7682 25.6192 66.9473 25.639C67.1263 25.6588 67.2926 25.7087 67.4462 25.7888C67.5999 25.8689 67.7352 25.9773 67.852 26.1139C67.9687 26.2504 68.0547 26.4081 68.1097 26.587L68.324 27.2836C68.3791 27.4623 68.3967 27.6408 68.3769 27.8192Z" fill="#000D38" stroke="#000D38" stroke-width="0.122034" stroke-miterlimit="10"/>
</svg>
